<svg width="45" height="45" viewBox="0 0 45 45" fill="none" xmlns="http://www.w3.org/2000/svg">
<circle cx="22.5" cy="22.5" r="22.5" fill="#6665D2"/>
<path d="M30.5321 17.7827C28.0814 15.9488 25.7335 16.0004 25.7335 16.0004L25.4935 16.2745C28.4069 17.1486 29.7609 18.4339 29.7609 18.4339C25.5925 16.1389 20.2832 16.1554 15.9476 18.4339C15.9476 18.4339 17.3529 17.0799 20.4378 16.2059L20.2665 16.0001C20.2665 16.0001 17.9357 15.9488 15.4679 17.7825C15.4679 17.7825 13 22.2211 13 27.6882C13 27.6882 14.4397 30.1562 18.2272 30.2762C18.2272 30.2762 18.8613 29.5221 19.3754 28.8709C17.1989 28.2197 16.3762 26.8657 16.3762 26.8657C17.7436 27.7214 19.1262 28.2569 20.8493 28.5967C23.6526 29.1737 27.1396 28.5805 29.744 26.8657C29.744 26.8657 28.887 28.2539 26.6419 28.888C27.1561 29.5221 27.773 30.2591 27.773 30.2591C31.5605 30.1391 33 27.6711 33 27.6885C32.9998 22.2213 30.5321 17.7827 30.5321 17.7827ZM19.8038 26.0946C18.8439 26.0946 18.0557 25.2547 18.0557 24.2094C18.1258 21.7057 21.4992 21.7134 21.5518 24.2094C21.5518 25.2547 20.7805 26.0946 19.8038 26.0946ZM26.0589 26.0946C25.0991 26.0946 24.3109 25.2547 24.3109 24.2094C24.3878 21.7106 27.7191 21.7096 27.807 24.2094C27.807 25.2547 27.0359 26.0946 26.0589 26.0946Z" fill="white"/>
</svg>
