<?xml version="1.0" encoding="utf-8"?>
<!-- Generator: Adobe Illustrator 24.3.0, SVG Export Plug-In . SVG Version: 6.00 Build 0)  -->
<svg version="1.1" id="Шар_1" xmlns="http://www.w3.org/2000/svg" xmlns:xlink="http://www.w3.org/1999/xlink" x="0px" y="0px"
	 viewBox="0 0 1080 1080" style="enable-background:new 0 0 1080 1080;" xml:space="preserve">
<style type="text/css">
	.st0{fill:#EBCC6F;}
	.st1{fill:#442A14;}
	.st2{fill:none;stroke:#442A14;stroke-width:1.4779;stroke-miterlimit:10;}
	.st3{fill:#EBCC6E;stroke:#442A14;stroke-width:1.4779;stroke-miterlimit:10;}
	.st4{fill:none;}
</style>
<g>
	<g>
		<g>
			<path class="st0" d="M308.8,669.8c0,0,13.2,24.1,26.1,27.9c4.3,1.5,3.6,3.6,3.6,5.6s6.9,7.1,12.2,8.4c5.3,1.3,8.4,4.1,11.2,6.6
				c-3.8-0.5-6.3-0.8-6.3-0.8s12.2,12.7,21.6,14.5c9.4,1.8,12.7-0.3,20.6,4.3s21.8,12.2,35.5,13.5c13.7,1.3,17,1,19.5,2
				c-0.5-2.3-2.3-4.3-4.1-5.1c4.3,2,6.1,2,10.2,3.8c4.1,1.8,13.2,6.1,21.1,2.5c-4.3-2.5-19.5-7.1-23.1-10.4c-3.6-3.3,0.8-3,3.3-3
				c2.5,0,9.9-2,15.7,0s6.6,4.1,11.2,4.6s8.9,0.8,11.7,5.3c2.8,4.6,5.1,9.4,5.1,9.4s1.5-5.8,0-11.2c-1.5-5.3-4.7-18.5,5.1-15
				c5.6,2,10.2,5.8,13.5,6.1c-4.3,2.5-9.1,6.6-10.7,9.6c4.1,0.5,7.6-1.5,11.7-0.3c4.1,1.3,8.1,5.6,15.5,7.6c7.4,2,21.3,6.1,25.4,5.6
				c-5.2,0.3-11.2,1.7-14.9,2.6c-0.8,0.2-0.7,1.3,0.1,1.4c6.4,0.9,20.3,2.2,32.8,1.3c20.9-1.5,69.7-6.9,97.5-30.5
				c4.7-4,7.9-5.6,4.8,6.3c6.3-5.8,18.6-16.6,25.6-22.7c7-6.1,19.7-16.8,23.7-17c3-0.1,7.7,3.4,10.3,6c0.6,0.6,1.7,0,1.4-0.9
				c-1.1-4-4.3-9.1-4.6-10.7c-0.4-2.1-3.4-7.6-1.5-18.5c0.6-3.7,4.5-5,10.3-19.8c7.3-18.8,7.7-42.5,7.7-43.9c1.5,1.6,5,5.9,10,13.3
				c2.4,3.5,5.1,8.9,7,12c0.3,0.5,1.2,0.1,0.9-0.5c-1.7-4.5-5.8-13-6.7-14.6c-3-5.4-11-13.7-11-13.7s1.1-11.7,0.6-13.7
				c2.3,1.2,12.1,7,16.9,10.8c4.8,3.8,12.8,9.9,13.7,9.6c0.9-0.3-8.7-9.2-11.4-11.2c-2.8-2-14.1-9.5-19.2-11.9
				c0-1.3-0.1-3.9-0.1-3.9s19.6,8.7,27.1,13.8c7.5,5.1,18.8,13.3,20.6,13.3c1.8,0-3.4-3.4-5.7-5.5c-11-9.6-32.5-20.5-41.9-23.9
				c0-4.3-0.5-6.9-0.5-6.9s14.8,4.4,25.5,9.8s14.1,8.1,16.8,10.2c2.7,2.2,10,9.5,12.3,10c2.3,0.5-8.5-9.1-10.3-11.3
				c-6.5-6.6-30.3-17.5-44.6-21.6c0.1-4.2-2-15.2-2.5-17.1c8.2-0.1,28.1,1.1,40.4,6.2c12.3,5.1,16.1,7.7,16.9,6.9
				c0.9-0.9-7.2-5.1-14.4-8.4c-7.2-3.3-25.5-7.7-43.5-7.4c-0.4-3.2-2.2-8.4-2.2-8.4s20.4-3.8,31-3c10.6,0.8,13.5,0.4,13.5-0.3
				c0-1.2-12.7-2.4-17.7-2.3c-7.1,0.1-22.5,2.2-27.5,3.6c-1.3-4-3.6-7.2-4.5-8.6c-0.9-1.3-4.3-9.8-5.6-14.3c0,0,7.7-4.9,11.8-6.4
				c4.1-1.5,10-3.6,9.9-4.6c-0.1-1-1.6-0.3-4.9,0.8s-11.8,4.4-17.4,7.9c-1-2.6-4.4-17.7-5.6-23.2s-1.2-9-1.8-12.1
				c-1.3-6.7-7.9-20.3-14.7-30.7c-6.9-10.4-10-14.5-15.7-20.6c-6.9-7.2-22.5-21.1-29.4-23.3c-7-2.2-10.1-3.5-15.7-8.5
				c-1.9-1.9-5.8-3.8-6-4.8c-0.2-1,1.7-5.1,3-8.4c1.2-3.3,4.5-11.4,3-22.4c-1.4-11-5.6-30.6-7.1-36.2c-1.5-5.5-4.3-16.4-4.6-19
				c-0.4-2.7-2-6.1-5.3-8.7c-3.2-2.6-6.3-4.8-11.1-4.4c-4.8,0.4-10.5,3.9-14.5,12.6c-4,8.8-8.6,18.8-10.7,23.6
				c-1.3,3-8.9,12.6-12.8,17.3c-3.8,4.8-8.4,13.1-14.1,15.6s-8.6,3.4-17.7,4.8c-4.9,0.8-9.9,4-19.2,4.9c-3.6,0.4-12.2-0.8-29.3,0.4
				c-17.1,1.1-24.6,1.6-30.1,2.1c-5.6,0.5-9.4,1.5-14.7-4.3c-5.3-5.8-35-35-38.1-38.3c-3-3.3-8.6-12.7-12.7-15.7
				c-4.1-3-18.8-11.7-33-5.8c-10.3,5.3-20.6,56.9-17.5,87.1c1.5,12.4,6,22.4,7.8,25.7c1.8,3.3,3.4,8.8,0.6,11.1
				c-2.8,2.3-10.3,9.5-18,29.9c-4.1,10.8-4.8,20.7-4.7,28c0.1,7.4,0.8,14.6,1.1,17.4c0.3,2.8-0.2,9.5-7.7,28.4S327.9,596,326.7,602
				s-7.2,32.5-9.5,39.2C314.9,647.9,308.7,666.5,308.8,669.8z"/>
			<g>
				<path class="st1" d="M528.4,739.5c-13.3-3.4-17.7-13.7-35.3-10.3c6.4-2.9,6.9-6.4,13.3-4.9c-9.8-2.9-22.1-8.8-29.5-7.9
					c7.9-2,8.3-5.4,13.3-3.4c-4.9-3.4-11.8-9.8-11.8-15.7c6.9,7.4,22.1,14.7,27.5,14.7c-4.9,2.5-3.4,3.4-7.4,3.4
					c8.3,0.5,27.5,13.3,36.3,5.9c-0.5,8.3,13.7,10.3,8.8,18.7c9.8-3.4,11.8,0.5,14.7-3.9c3.9,7.9,14.7,4.4,17.2,11.8
					c2.9-4.9,4.4-10.8,10.8-13.3c-4.9,7.4,0,13.7,3.4,17.7c2-4.9,7.9-5.9,8.3-11.3c4.4,5.4,9.3,3.4,8.8,10.3c3.9-2,6.9-8.8,6.9-15.7
					c4.4,9.3,22.1,8.3,26.5,13.3c2-3.9,8.3-6.9,6.9-12.8c6.4,5.4,10.8,0.5,11.3,4.9c8.3-4.9,17.7-8.3,16.2-16.7
					c6.4,3.9,10.8-2,13.3,5.4c4.9-5.4,13.7-13.7,14.2-21.6c2.5,6.9,4.4,1.5,2.5,9.8c5.4-6.9,24.1-18.7,24.5-29.9
					c2.5,3.9,2.9,1.5,3.4,5.4c1.5-8.8,3.4-16.7,6.4-22.6c2.9-5.9,14.2-17.2,15.7-58.9c0-0.3,0-0.7,0-1c-5.8-5.9-13.3-12.6-22.6-19.6
					c-5.7-4.3-1.4-1.8-0.1-0.9c1.2,0.8,12.3,9.2,22.7,19.7c0.2-5.6,0.3-10.6,0.3-15c-7.6-4-14.9-7.1-19.6-8.5
					c-2.2-0.7-4.7-2.4,0-0.9c2.3,0.7,10.5,4.2,19.7,8.9c0-1.8,0-3.6,0-5.2c-7.1-2.9-13.6-5.1-18.1-6.2c-2.8-0.7-6.1-2.7-0.1-1.2
					c2.3,0.6,9.4,3.1,18.2,6.7c0-3-0.1-5.7-0.3-8.2c-4.2-1.2-8.7-2.4-13.5-3.5c-8.5-2-2.5-1.4-0.5-1c0.9,0.2,6.5,1.4,14,3.7
					c-0.5-7.5-1.4-13-2.9-18.2c-5.6,0-11.6,0.1-18,0.6c-8.7,0.6-2.8-0.7-0.8-0.8c1.1-0.1,8.6-0.6,18.6-0.5c-0.9-3.1-2-6.1-3.3-9.4
					c-6.6,1.5-12.4,3.2-16.3,4.8c-2.4,1-5.6,1.1-0.5-0.9c2-0.8,8.5-2.6,16.6-4.4c-0.8-2.1-1.8-4.2-2.8-6.6
					c-2.6-6.1-4.9-11.6-6.9-16.8c-8.5,5.8-16.8,12.9-20.9,17.6c-1.5,1.7-3.9,2.2-0.7-1c2.2-2.2,10.7-10.3,21.4-17.3
					c-4.2-11.3-6.9-21.1-7.5-32c-1-16.2-13.7-38.3-25.5-50.6c-11.3-11.8-22.2-22.6-34.4-26.5c-12.3-3.9-21.4-12.8-21.4-16.7
					c0-3.9,6.4-12.8,6.4-24.5c0-11.8-8.2-60.2-15.5-68.2c-2.5-2.7-3.3-2.6-4.9-2.6c2.3,1,2.9,4.4,2.9,6.4c-1.9-3.5-4.3-2.8-4.3-2.8
					s2.7,2,2.5,7.7c-1.8-3.1-3.3-5.7-5.6-7.1c0.8,1.6,1.8,4.1,1.7,6.2c-1.4-2.6-3.9-2.5-5.4-2c1.9,0.5,3.5,2,4.1,4.2
					c-1.8-1.3-3.3-1.1-4.9-0.6c2.6,0.6,5.5,4.6,5.5,6.6c-2.6-2.3-3.9-2.7-5.5-2.2c2.3,1.2,6.1,8.6,6.6,19.1c-2.2-1-2.7-1.7-4.3-1.4
					c1.7,1.2,4.7,11.5,3.8,14.1c-1.6-3.7-4.8-6.8-8-7c2.2,3.1,3.1,10.8,5.5,11.9c-3.2,1-9.1,6.3-11.9,10.1c-2.8,3.8,3.2,6.6,5.8,6.1
					s6.4,0.4,7.7,1.6c-2.5,0-3.6,1.1-3.6,1.1s4.5,0.5,6.5,2.7c0.6-3.3,0.7-4.8-0.2-9c2.1,3.6,2.5,3.7,2.3,5.2
					c0.7-2.7,2.6-10.9,1.6-14.9c-1-3.9-1.6-7.9-0.9-11c0.5,1.7,0.7,2.7,0.7,3.7c0.9-1.4,1-3.3,0.7-5.2c-0.2-1.8,0.6-1.4,1.1-3.6
					c0.2,5.3-0.7,8.5-1.1,10.1c-0.4,1.6,2.5,8,2.6,11.9c0.1,3.9-0.4,5.8-1,7.2c1.4-1.2,2.1-1.1,2.8-2.3c-0.1,2.1-1.8,7.6-3.4,9
					c2.1-0.5,2.8,0.1,3.7-1.2c-0.1,2.5-0.9,5.6-2.2,6.1c2,0.2,2.5,0,3.1-1.1c-0.2,2-0.6,4.1-1.8,4.8c2.3-0.1,3.4,0.5,3.9,1.4
					c-1.5-0.5-2.1,0.5-2.1,0.5s2.3,1,2,2.6c-1.2-0.9-2.3-0.4-1.6,0.6c0.7,1,0.6,1.3,1.5,2.1c-2,0.4-2.1,1.1-1.7,1.8
					c-1.6-1.4-2.6-5.6-6.3-6c-3.7-0.4-8.1-2.1-9.3-4.2c-1.2-2.1-5.5-7.9-10.4-8.1c-4.9-0.2-4.1-2.8-0.2-2.7
					c-0.4-1.4-1.7-1.7-2.7-1.5c1.4-1.1,0.6-2,2.2-2.2c-2.2-2-5.8,0.4-4.8,2.8c-2-0.4-6.8-0.2-8.5,0.4c0.4-0.6,0-1.1,1.4-1.3
					c-2.2-0.5-3.6,0.9-7.5,1.1c-3.9,0.2-12-0.5-15.5,0.5c-3.4,1.1-24.1,4.9-33.1,8.1c1.6-1.1,3.4-3.1-0.4-1.4
					c-3.8,1.7-19,2.9-24.7,0.9c1.5,1.7,1,1.8,2.5,2.5c-5.8-0.7-28.7-4-37.6-1.5c4.1,0.3,3.3,1.3,6.4,1.8c-4.9,1.1-11,6.7-14.4,16.2
					c3.4-2.1,4.9-1.1,6.4-2.8c-1.5,4.9-8.7,5.6-11.6,8.3c2.6,0.3,3.3,0.8,1.1,2.3c-2.1,1.5-3.6,1.8-6.5,5.6c2.6-0.3,4.1-0.5,4.1-0.5
					s-3.9,3.1-6.2,3.4c-2.3,0.3-5.9,1.3-7.9,4.9c3.6-2,4.6-0.7,6.2-1.5c-2.3,2.3-3.9,3.3-6.4,3.8c2.9,2.3,4.9,1.8,6.2,1.5
					c-3.8,2.1-7,2.6-9.3,4.4c3.1,0,4.1,1,4.1,1s-7.4,0.8-10,3.8c4.4-0.7,4.7,0.3,4.7,0.3s-5.2,4.9-7.5,3.3c-0.2,2.1,0.2,3.1,1.6,4.1
					c-3.8-1.3-4.9-1-5.9-2.1c-0.2,2.5,1.1,4.3,1.8,5.2c-3.1-0.7-5.2-5.7-9.5-8.2c2.5,3.9,0.5,5.6,0.5,5.6s-2.8-1-4.3-3.8
					c-2.8,2.8,1,5.9-2.5,9.2c-1-2.1-2.1-2.1-2-3.6c-2.5,1.1-2.3,1.8-2.3,3.1c-2.5-3.3-3.4-4.3-4.7-7.2c-1.3-2.9-2.9-4.1-4.9-4.1
					c1.3,2.1,0.8,6.7-0.5,8.5c-2.6-2.3,1.6-16-14.2-23.6c2.9,3.8,7.2,9.3,8.5,15.2c1.2,5.9,1.8,12,1,15.7
					c-2.3-6.5-4.2-10.3-4.4-16.3s-6.6-11.4-13.7-16.3c-7.1-4.9-6.8-6.9-6.6-8.5c2.8,3.8,6.6,6.3,10.2,7.6c-3.3-3.8-8.1-9.2-8.2-11.8
					c5.8,4.5,9.8,7.9,10.7,11c1.1-5.6-1.7-16.7-7-19.9c4.9,1,11.6,11.5,13.7,17.7c-1.5-10.1-7.9-20.1-14.1-24.4
					c-6.2-4.3-4.6-7.4-8.8-9.8c4.7,0.8,8,2,7.2-2.1c-0.8-4.1,0.7-5.1-2-7.2c4.1,0,8.4,1.5,6.1,3.8c-2.3,2.4-2.5,3.9-2.6,4.8
					c2.1-2,15.2-7,21.8-4.1c-4.7-0.4-20,3.3-23.7,10.2c6-6.3,26.3-6.1,30.4-1.7c-5.8-1.1-8.3,5.5-15.1,5.8
					c4.9,2.3,11.3,1.2,14.4-0.5c3.1-1.7,7.7-0.4,10.2,4.5c2.5,4.9,4.8,6.1,7.1,6.8c-3.1,0.5-7.5-0.7-9.1-2.5
					c-1.6-1.7-3.9-1.5-6.4-1.1c-2.5,0.4-5.3-1.4-6.3-3.6c-0.1,3.1,4.3,9.2,7.2,10.4c-5.5-1.8-6-1.8-8.6-3.6
					c2.1,3.1,7.2,9.3,16.3,15.3c-10.7-5.2-15.3-7.9-16.9-10.2c1.5,4.7,13.4,11.4,18.4,16.7c5,5.3,9.8,10.3,11.4,12.6
					c1.5-1.7,2.7-3.1,2.3-5.3c1.6,1.6,2.2,2.6,1.7,3.7c2-2.9,4.8-3.8,3.8-7.1c1.8,1.4,2.1,2.8,2.1,2.8s0-3.9-3.1-7.4
					c-3.1-3.4-0.7-7.1,0.2-8.7c0,3.4,3.9,5.3,4.1,7.9c0.1,2.6,0.7,3.7,0.7,3.7s3.2-2.5,2.8-9c-0.4-6.5-2.6-8.8-7.7-10.9
					c4.9,0.4,5.8,1.2,7,2.2c-3.6-5.4-5.9-9.2-8.8-11c3.9,1.2,6.3,3.4,6.3,3.4s-2.5-5.5-6.4-7.2c-3.9-1.7-6-2.8-7-5.5
					c3.4,2.8,5.4,1.7,7.5,3.8c-4.1-5.5-5.9-8.3-9.7-11.7c-3.8-3.3-4.2-5.3-4.5-6.8c2.3,2.8,6.3,7.1,8.8,9c-2.5-5.6-4.8-9.9-8.1-11.7
					c2.3-0.1,3.3-0.2,4.2,0.5c-0.7-2.6-5.5-9.2-6.4-7.4c-0.9,1.8-1.1,2.6-0.5,3.8c-2.1-1.7,0.1-6.5-1.6-6.9
					c-1.7-0.4-1.8,0.2-2.2,1.2c-1.5-2.3-4.3-10.6-8.2-11.3c2.2-0.6,2-2,3.8-0.9c-4.7-3.4-6.4-4.8-7.4-6.3c-1-1.5-1.1-2.7-2.3-3.4
					c1.8,0.5,2.1,0.1,3.4,1.6c-1.2-2.7-1.2-5.4-3.6-8.3c3.3,2.5,7.7,7.7,8.8,9.6c-1.9-1.1-1.8-0.6-2-1c1.2,2.2,4.8,6.2,6.1,7.5
					c-1.5-0.5-1.2,0.1-1.8-0.6c1.1,1.6,3.1,2.8,4.2,3.7c-1.1,0.4-1.3,0.2-2-0.1c2,1.8,3.9,3.7,5.5,4.9c-0.6,0.6-1.6,0.4-2.2,0.4
					c1.6,1.5,4.8,1.7,5.9,3.6c-1.5-0.1-2,0-2.6-0.5c3.6,2.9,5.9,4.3,6.8,5.9c-2-0.2-1.5-0.1-1.5-0.1s2.9,4.2,4.9,6
					c-1.6,0-1.5,0.6-2.5-0.2c1,2.2,1.8,3.1,3.7,4.3c-1.1,0.4-1.6,0.4-2.1-0.1c1,2.5,4.2,3.1,5.9,3.2c-2,1.2-2.9,0.9-3.8,0.4
					c1.2,3.7,7.4,5.8,8,9.9c2-1.2,3.1-1,3.1-4.1c2,3.2,1.8,4.3,1.1,5.3c1.3,0.5,2.7,0.4,3.3-0.5c-1,2.3-2.3,3.8-4.4,4.8
					c3.7,0.1,4.4-0.6,5-1.7c0.1,2.6,0.9,4.4-1.4,5c4.2,0.7,6.4,2.6,9,2c-3.1,1.8-6.6,1-8.5,2.8c2.7,0.4,5.3-1.2,7,0.1
					c1.7,1.3,2,2.7,1.7,4.5c1.8-3.4,3.4-4.7,2.6-6.4c2.7,0.4,5.4-1.2,6.3-2.8c-3.2,0.7-4.5-2.8-7.9-3.3c-3.3-0.5-4.9-4.3-4.9-4.3
					s1.6,2.1,4.4,2.5c2.8,0.4,5.8,2.5,8.3,1.7c-1.7-1.4,0.1-4.1-1-5.8c3.7,1,3.2-3.6,6.6-3.4c-4.7-2.1-11.4-2.8-14.7-3.7
					c1.2-0.1,1.6-0.5,2.5-0.5c-3.2-0.2-7-2.1-8.3-4.1c-1.4-2-2.2-4.3-4.3-5.8c1.5,3.9,0.6,5,1,7.6c-2.8-1.7-2.2-3.4-5.2-5.5
					c3.2,0.6,2.9-0.1,3.3,1.1c-0.6-2.7-4.1-8.2-9-9.3c1.8,0,2-1.1,3.1-1c-4.8-2-7.5-4.5-8.2-6c2.2,1.1,1.6-0.4,2.8,0.6
					c-2.3-2-14-14.5-17.8-18s-6.5-7.5-8.8-10.9c-2.3-3.4-9.2-12.1-19.2-14.2c-10-2.1-11.9,3.3-15.2,3.6c4.7,1.6,9.3-0.8,12.1,1
					c-3.4,1.3-6.5,3.9-8.8,3.3c1.3,2.5,0.7,3.6,3.8,4.1c-3.1,1.3-4.3,2.9-7,1.6c1.6,3.6,6.5,7.4,8.7,8.5c-6.7-1.6-8.3-0.8-9.7-2.9
					c1,3.4,6.5,5.1,9.7,6.1c-5.1,0.7-9-1.1-12.4,0.5c-3.4,1.6-3.8,2.6-4.7,4.3c2.8-0.8,5.7-0.8,7.5,0.8c-4.6,0.2-6.7,2.9-8,4.7
					c3.9-1.6,8.2-0.7,9.8,1.3c-4.3-0.2-11.1,3.8-11.9,6.7c4.4-1.6,6.9-0.7,8-0.2c-2.8,0-9,7.9-9.5,11.6c3.8-3.4,7-4.3,9.3-1.5
					c-2-0.5-7.7,1.6-8.7,6.2c2.3-0.3,4.3-1,5.2,0.2c-1.6,0-5.9,1.6-5.9,4.7s-0.8,6.1,0.7,7.7c-2.3-0.2-3.4-1-4.1-2
					c0.2,2.9,2.6,6.5,5.2,8c-2.9,0-3.9-0.5-4.9-1.5c-1-1-2.9,6.4,1.1,7.9c4.1,1.5,5.9,2.9,8.5,2.3c-1.8,2-7,2.1-9.3,1.1
					c1.3,2.8,2.9,5.1,5.4,5.4c-2.9,2-3.3,2-4.6,1.3c1.1,2.8,4.3,7.2,6.7,5.9c-2.3,3.6-2,4.6-1.3,7.9c2.9-1.8,4.6-3.9,7.5-2.1
					c-3.1,0.8-3.8,2-3.8,3.9c2-1,6.1,1.8,7.7,6.2c-2-1-2.6,0.2-4.3-1.5c1.3,3.9,9.7,12.9,12.8,11.9c3.1-1,7.4-2.8,2.5-6.5
					c3.8,0.8,5.7,3.4,6.5,6.9c0.8,3.4,2.3,11.1,4.9,13.1c2.6,2,8.2,3.3,10.3-1.5c2.1-4.7,1.3-5.1,0.7-7.7c3.4,3.1,2.5,7.9,6.9,5.1
					c4.4-2.8,5.4-4.1,8.3-4.7c-6.7,4.7-20.1,13.4-24.4,19c-4.3,5.6-11,12.2-13.1,15.2c0.6-2.2,2.1-3.1,0.7-5.8
					c-0.6,3.3-6.5,10.1-9,12.2c0.1,0.1,0.2,0.1,0.3,0.1c-3.2,1.4-9.1,4.6-8.8,10.2c-2.9-3.7-11.8-4.7-14.7-2.9
					c3.4-3.2,7.6-5.9,11-4.7c-4.2-2.5-5.2-2.7-7.1-1.2c1-3.7,7.9-5.9,2.2-8.8c3.2-1.2,6.5-6.5,1.1-8.2c2.9-0.5,6.9,1.5,9.5,1.3
					c2.6-0.2,9.2-1.8,11.8-0.8c-3.3-1.6-8.8-0.3-12.3-2.1c-3.4-1.8-8.8-2.6-11.8-1.3c1.5-2.5,2.3-3.4,4.1-3.4
					c-2.9-1.8-3.4-4.3-3.4-6.7c2,2.6,2.8,3.1,3.9,3.9c-2.8-5.2-3.3-8.7-2.8-12.4c1.5,2,3.4,9.3,7.2,7.7c3.8-1.6,9.8,0.2,6.9-5.1
					c2.5,2.6,9,7.9,6.7,1c2.9,3.6,3.1,6.1,4.7,6.5c-3.9,1.1-8.3,4.4-6.9,7c-3.1-0.5-7.9,0.2-10.5-3.6c1.3,3.8,15.4,7.9,16,5.1
					c0.7-2.8,3.3-6.4,5.7-7.2c2.5-0.8,2-18.8-2-18c-3.9,0.8-8,0.8-11-1.1c3.9,3.1,5.1,6.2,2.6,6.2c-2.5,0-5.1,0-7.7-3.8
					c-2.6-3.8-6.5-5.2-8.8-7c0.7,4.3,3.6,9,5.9,9.8c-3.4,0.3-4.6-0.3-5.4-1.5c1,3.6,2.6,6.4,4.4,6.9c-4.6-1.1-7.4-4.3-7.7-7
					c-0.3-2.8,2.5-11.3,1.3-15c-2.9-9.2-10.3-17.7-10.3-42.7c0-25,7.4-71.4,19.6-74.7c12.3-3.3,23.7,2.1,29.9,7.2
					c6.2,5.1,7.7,11,14.7,17.5c7,6.5,33.9,33.9,37.5,37.6s8.2,3.4,12.6,2.8c4.4-0.7,47.1-3.7,56-2.7c8.8,1,19.1-4.2,24.3-4.9
					c5.2-0.7,18.9-2.7,24.3-10.6c5.4-7.9,18.4-23.8,20.4-27.5c2-3.7,10.3-26.8,16.2-31.9c5.9-5.2,10.8-5.2,15.5-2.5
					c4.7,2.7,8.1,5.9,8.8,11.5c0.7,5.6,13.3,47.6,11.5,64.1c-1.7,16.4-9.6,20.4-4.7,23.1c4.9,2.7,9.6,9.3,19,11.6
					c9.5,2.3,28.4,20.6,34.9,27.5c6.5,6.9,25.6,36.7,26.6,49.1c0.6,7.7,3.7,22.3,7.3,34.2c4.2-2.6,8.7-5.1,13.3-6.8
					c12-4.7,11.6-3.8-0.2,0.7c-3.9,1.5-8.4,3.9-12.9,6.9c2.2,7,4.5,13.1,6.7,16.1c1.4,2,2.7,4.7,3.9,8.1c11-2.3,24.1-4.2,33.4-3.5
					c16.1,1.3,14.4,1.8-1.3,0.8c-9.1-0.6-21.2,1-31.9,3.2c1,3,1.9,6.4,2.7,10.1c14.8,0.3,34.2,2.1,46.9,8.5c18,9.1,8.8,5.2-1.5,0.2
					c-8-4-23.3-7.5-45.3-7.9c1.2,5.8,2.1,12.2,2.7,18.9c14.5,4.4,35.2,12.2,46.5,23c14.6,14,6.9,7.6-1.5-0.3
					c-6.9-6.5-21.8-14.9-45-21.8c0.2,2.8,0.4,5.7,0.5,8.6c12.4,5.2,27.4,12.4,36.8,19.5c15.7,11.9,13.8,11.2-1.7-0.1
					c-9.3-6.8-22.9-13.7-35.1-18.7c0.1,1.8,0.1,3.7,0.1,5.5c7.9,4.2,16.2,9.1,21.7,13.9c11.8,10.1,10.3,9.5-1.3-0.2
					c-5.4-4.5-12.9-9.2-20.4-13.2c0,3.8-0.2,7.5-0.5,11c-0.1,1.6-0.3,3.1-0.4,4.7c5.7,6,10.9,12.5,13.9,18.7c7,14.6,3.1,7.6-1-0.7
					c-2.1-4.3-6.3-10.2-13-17.2c-1.9,22.3-4.5,45.8-16.9,62c-4.3,5.6-0.3,23.6,1.3,26.2c1.6,2.6,3.3,6.5,3.3,6.5s-7.5-10.1-15.7-4.3
					c-10.8,7.7-37.3,31.3-42.7,36.7c1.5-7.9,1-11.8-10.3-2c-11.3,9.8-59.9,32.4-124.2,26.5c19.6-2,16.2-2.5,18.7-4.4
					c-9.3,0.5-32.4-5.4-37.3-8.3c-4.9-2.9-8.3-7.9-19.1-4.4C518.1,743,523.5,739.1,528.4,739.5z"/>
				<path class="st1" d="M391.9,492.7c1.2-0.5,2-0.7,2-0.7S393.4,493.3,391.9,492.7z"/>
				<path class="st1" d="M509.3,511c0.6,2.5,5.8,6.8,6.9,8.2s1.6,2.3,4.4,2.9c2.8,0.6,1.2,3.3,3.7,3.2c2.5-0.1,3.3,0.7,5.3,0.6
					c2-0.1,3.4,0.9,4.1,1.7c0.6,0.9,3.4,0.4,5.2,0c1.7-0.4,1.5-1.6-3.4-3.3c-4.9-1.7-7.4-0.2-12.2-3.1c-8-4.7-9.8-9.3-10.1-11.3
					c-0.2-2,1.6-2.3,3.1,0.5s3.6,3.6,6.9,8.1c3.3,4.5,16.6,4.2,21.1,4.2c4.5,0,1-2.6,0.7-4.4s3.3-2.9,3.2-8.6
					c-0.1-5.6-3.1-10.6-3.6-12.9c-0.5-2.3-4.3-1.1-4.5,0.7c-0.2,1.8-0.5,2.7-1.7,1.2c-1.2-1.5-3.7-2.3-4.7-3.4
					c-1-1.1,0.1-2.7,2.5-2.8c2.3-0.1,7-0.4,5.8-2.2c-1.2-1.8-0.1-1.6,2.7-1.1c2.8,0.5,7.7,4.3,12.3,10.2c4.5,5.9,4.3,11.9,1.5,16.9
					c-2.8,5-13.3,8.5-15.7,9.2c-2.5,0.7-2.9,2-1.2,2.1s2,1.2,5.2-0.5c3.2-1.7,11.3-2.3,15-4.5c3.7-2.2,7.7-2.7,9.5-2.9
					c-0.6-4.3,1.3-5.8,3.4-5.4c0.5,0.1-0.5-3.3-2.1-4.7c-1-0.3-1.4-1.2,0.3-0.9s4.9-1.3-0.3-2.2c-5.2-0.9-1.1-2.7,0.9-4
					c2-1.3,1.6-2.2-0.7-2.2s-4.9,0.6-4.8-2.9s-3.8-1.8-6.9-3.4c-3.1-1.6-8.1-7-11-9.2c-2.9-2.1-6.1-2.9-12-2.7
					c-5.9,0.2-9.7,3.1-11.9,4.8c-2.2,1.7-5.4,1.5-7,1.8c-1.6,0.4-7,8.6-9.5,11c-2.5,2.5-3.9,4.8-3.9,6.5
					C505.4,508.1,508.7,508.6,509.3,511z M562.2,514.9c0.6-1,2.9-1.5,3.4-0.7c0.5,0.8,0.7,1.4-1.5,2.9c-2.4,1.6-6.4,2.8-4.7,0.8
					C561,516.2,561.4,516.1,562.2,514.9z M527.9,497.4c0-0.7,0.6-1.8,1.8-1.7c1.5,0.1,1.8,0.9,1.8,1.7c0,0.9-1,1.5-1.8,1.3
					C528.9,498.6,527.9,498.1,527.9,497.4z"/>
				<path class="st1" d="M685.9,487.8c0.1-1.2-2.1-1.7-2.6-3.2c-0.5-1.5-0.9-3.6-2.2-4.2c-1.4-0.6-2.2-0.1-1.8,1.8
					c0.4,2,0.6,6.5-2.7,9.7c-3.3,3.2-5.4,3.3-3.8,0.7c1.6-2.6,3.1-6.9,2.7-10.8c-0.4-3.9-2.6-7.2-3.8-9.1c-1.2-1.8-3.6-5.2-5.5-5.9
					c-2-0.7-0.9-1.2,1.5-1c2.3,0.2,6,2.8,7.6,5.9c1.6,3.1,1.6,3.1,2,4.2c0.4,1.1,6.1,4.5,3.4-0.4c-1.5-2.7-5.3-10.3-8.8-13.9
					c-3.6-3.6-7.6-3.4-10.2-3.4c-2.6,0-8,1.7-8.5,2.9c-0.5,1.2-2.2,2.9-3.8,2.8c-1.6-0.1-2,0.6-1.7,1.5c0.2,0.9,1.1,2.2-0.6,2.7
					c-1.7,0.5,1.8,4.3-0.4,4.2c-2.2-0.1-4.7-2.8-4.5-0.7c0.1,2.1,3.3,10.8,4.9,13.5c1.6,2.7,5.5,10.6,11.4,14.7
					c5.9,4.2,14.7,5.9,16.2,4.7c1.5-1.2-0.6-2.7-0.9-3.6c-0.2-0.9-0.6-1.6-3.8-1.5c-3.2,0.1-5.4-0.4-8.7-0.6
					c-3.3-0.2-4.4-1.7-5.3-2.8c-0.9-1.1,1.7,0.5,3.8,0.9c2.1,0.4,3.8,1.2,6.1,0.9c2.3-0.4,5.9-2.7,7.2-1.8c1.3,0.9,3.1,2.6,3.3,4.3
					c0.2,1.7,1.5,2.5,2.1,0.4c0.6-2.1,0.5-3.4,1.8-3.7c1.4-0.2,2.7-1.6,2.3-3.1c-0.4-1.5,0.6-1.8,2.1-2c1.5-0.1,1.5-0.6,0.2-1.2
					C683.8,490.2,685.8,489.1,685.9,487.8z M655.3,475.9c-0.2,1.5-2.3,2.2-2.9,1.2c-0.7-1.1-0.6-0.1-2-1.8c-1.4-1.7-0.7-3.1,0.6-3.3
					c1.4-0.2,2.9-0.7,3.8,0.5C655.7,473.6,655.6,474.4,655.3,475.9z M662.6,475.4c0,1-0.9,1.7-1.4,1.5c-0.5-0.2-1.4-0.9-1.5-1.8
					c-0.1-0.9,0.2-1.7,1.2-1.6C661.8,473.5,662.6,474.3,662.6,475.4z M667.5,475.9c-0.8,0.5-1.4-1.8-2.8-2.1
					c-1.4-0.4-2.1-1.8-1.6-3.1c0.6-1.3,2.4-2.5,4.4,0.1C669,472.7,668.6,475.2,667.5,475.9z"/>
				<path class="st1" d="M569.1,628.7c2-1.4,2.5-1.8,2.6-2.9c0,1.1,0.6,1.5,0,2.3c1.5-0.6,4.4-3.1,4.9-4.5c0.6,2.8,1.8,4.2,0.7,5.9
					c1.6-0.5,3.6-2,4.1-3.6c0.9-0.4,2.1-1.7,2.1-1.7s0.7,2.9-0.1,4.1c1.6-0.9,2.6-0.2,2.6-1.2c-0.1,1.8,0.4,1.8,0.4,1.8
					c0,1.4-1.2,4.4-2.7,5.3c-1.5,0.9-1.5,0.9-2.2,2.1c-1.1-1-1-1.5-0.9-2.6c-2.2-0.1-7.5,0.7-8.5-0.5s-0.6-2.5-2.8-2.6
					C567,630.4,567.1,630.1,569.1,628.7z"/>
				<path class="st1" d="M664.9,603.7c-0.5,1-1.2,1.8-1.5,2.8c-0.2,1-2.5-0.5-2.5-2c0-1.5,0.7-2.1,1.5-2c0.7,0.1,1.6-0.9,2-1.7
					c0.8-1.9,3.7-3.2,3.4-1c-0.2,2.2,2.7,0.9,3.4,2.6c0.7,1.7,1.8,1.1,2.1,2.2c0.2,1.1,2.6,0.2,2.7-0.4c0.1-0.6,1.5,0.5,1.5-1.1
					s0.7-1,1.1-0.4c0.4,0.6,2.5-0.5,2.5,1.1c0,1.6-1.7,1-2.2,1.4c-0.5,0.4-1.8,0.1-2.3,0.9c-0.5,0.7-0.6,2.6-1.7,2.6
					c-1.1,0-0.1-2-1.5-2.2c-1.3-0.2-2.2-1.3-2.9-1s-1.1,1.8-0.2,2.1s0.4,2.3,0.4,3.1c0,0.7-2.2,2.8-1.7,0.6c0.5-2.2,0.1-4.7-0.7-4.9
					s-1.4,0.9-1.6,1.6c-0.2,0.7-2,0.5-2.2,0c-0.2-0.5,0.5-1.6,0.9-1.8c0.4-0.2,0-1.3,0.4-1.7C665.9,604.1,665.4,602.7,664.9,603.7z"
					/>
				<path class="st1" d="M661.1,611c-0.9,1.2-2.5,2-2.5,0.2c0-1.7-1.5-1.5-2-2c-0.5-0.5,0-2.8,1.5-2.6c1.5,0.2,2.8,0.6,3.1,1.5
					c0.3,1.1,2.7,1.1,2.1,2.2C662.7,611.5,662,609.8,661.1,611z"/>
				<path class="st1" d="M654.8,599c-1.2,0.9-2.2-0.7-1.5-1.4c0.7-0.6,2.5-1.1,2.5-1.1c1-0.4,3.3,0.2,3.4,1.5c0.1,1.2-0.6,1.7,0,2.2
					c0.6,0.5,1.3,1.8,0,2c-1.4,0.1-0.6-1.5-1.5-2C656.9,599.8,656.1,598.2,654.8,599z"/>
				<path class="st1" d="M652.5,606.3c-0.5-0.5-1-3.3-1-3.3c0.1-1.7,1.4-1.4,1.5-0.6s-0.6,2.8,0.6,2.9c1.2,0.1,2.8-0.2,2.1,0.7
					C655,607,653,606.8,652.5,606.3z"/>
				<path class="st1" d="M649.8,614c-0.6,0.7-1.7,2.2-2.6,1.7c-0.9-0.5-1.1-4.3,0.9-4.4C649.3,611.2,650.4,613.3,649.8,614z"/>
				<path class="st1" d="M647.6,591.9c-1.6-0.2-1.5-3.3,0-3.2c1.5,0.1,2.6-0.1,3.1-0.7s1.5,0.4,1.3,1c-0.1,0.6,1.2,1.6,1.2,1.6
					c1,0,1.8,0.1,1.8,1.2c0,1.1-0.6,2.2-2.3,2.1c-1.7-0.1,0-2.8-1.4-2.7C650.1,591.3,649.2,592.1,647.6,591.9z"/>
				<path class="st1" d="M648.1,595.1c1.7,0.1,1.8,1,1.8,1.8c0,0.9-1,1.7-1.6,0.7s-0.9-0.7-1.8-0.9
					C645.5,596.7,645.9,595,648.1,595.1z"/>
				<path class="st1" d="M643.2,605.9c-1.5-0.4-2.6-1.4-2.3-2.3s2.2-1.1,3.4-1c0.9,0.1,2.3,1.2,2.1,2.6
					C646.1,606.5,644.7,606.3,643.2,605.9z"/>
				<path class="st1" d="M638.3,592c1.5,0.1,2.2,1.2,2.2,2.2s-1.5,1.8-2.9,1.6c-1.5-0.2-2-1.1-1.7-2.2S638.3,592,638.3,592z"/>
				<path class="st1" d="M632.4,601.1c1.4,1.2,2,0.7,2,0.7c1.5,0.2,2.1,1.8,2.2,2.8c0.1,1-1.7,0.4-1.8,1.6c-0.1,1.2-1.6,0.2-1.6-0.6
					c0-0.9-2.2-0.2-2-1.2c0.2-1,0.4-1.5-0.5-1.8C629.8,602.2,631,599.9,632.4,601.1z"/>
				<path class="st1" d="M627.1,588.1c-0.6-1.2-1.2-4.5,1.7-2.5c0.9,0.7,1.8,2.2,1.1,2.7C629.2,588.8,627.7,589.3,627.1,588.1z"/>
				<path class="st1" d="M624.2,598.5c1.5,0.6,2.7,3.7,1.6,4.1c-1.1,0.4-2.2,0.9-3.2,0.2c-1-0.6,0-2-0.6-2.8
					S623.2,598.2,624.2,598.5z"/>
				<path class="st1" d="M618,584.4c-1.5-0.5-1.7-1.8-0.7-2.5s2.2-0.1,2.2-0.1c1.3,0.2,2.3,1,2.2,2.9c-0.1,2-2.1,2-2.8,1.6
					C618.1,586,619.5,584.9,618,584.4z"/>
				<path class="st1" d="M608.7,582.3c0.1-0.7,1.6-1.5,1.6-1.5c0.7,0.4,1.5,2.6,0.4,2.9S608.6,583.1,608.7,582.3z"/>
				<path class="st1" d="M600.7,582.7c-0.2-0.7,0.4-2,1.6-1.7c1.2,0.2,1.6,1.5,1,1.8C602.7,583.2,601,583.4,600.7,582.7z"/>
				<path class="st1" d="M604.9,596.2c1,0,1.6,0.2,0.8,1.1c-0.8,1-1.8,0.7-2.1,0.2C603.2,597,604,596.2,604.9,596.2z"/>
				<path class="st1" d="M638.6,616c-0.7-1.5-3.3-0.7-3.1-2.1c0.2-1.5,1.8-2.9,2.1-3.9s2.1-1.6,2,0.2c-0.2,1.8-1.3,2.6-0.2,2.9
					c2,0.6,4.4-0.3,3.1,1.8C641.2,617,639.2,617.5,638.6,616z"/>
				<path class="st1" d="M634.6,623.5c-0.7-0.7,0-1.8,1-2.6c0.9-0.7,2.6,0.7,2.1,1.8C637.3,623.9,635.3,624.2,634.6,623.5z"/>
				<path class="st1" d="M630.7,613.4c-0.2,1.1,1.8,1,2,2.6s-0.3,3.6-1.6,3.1c-1.3-0.5-2-2.3-2-3.4s-0.2-2-1.1-2.3
					c-1-0.3-0.7-1.5,0.2-1.6C629.2,611.5,630.9,612.2,630.7,613.4z"/>
				<path class="st1" d="M568.7,640.5c1.6-1.2,3.1-0.7,6.9-1c-2,0.9-2.5,2.9-4.8,4.3c2.7,0,3.9-1.2,7.2-3.2c1.3-0.8,2.2-0.8,2.8-0.5
					c-3.4,6.5-6,13.2-7.2,19.3c-3.7,19.9-1.2,10.2,1-1.1c0.9-4.5,3.1-10.6,6.8-17.8c0.6,0.7,0.9,1.9,1.1,2.9
					c1.7-1.4,3.9,0.9,3.9,0.9s-4.1,2.1-2.9,4.9c1-1,2-1.4,3-1.4c-1.2,2.6-2.1,5.2-2.8,7.5c-4.1,14.4-3,13.1,1.2-0.9
					c0.6-2.1,1.4-4.3,2.4-6.5c1.9,0.3,4,1.6,6.5,1.9c-2.6,0.5-6.9,3.9-5.9,6.4c2.7-3.6,8.5-2.8,11.8-2.7c-1.3,0.9-3.6,1.7-6.1,2
					c2.5,1.1,5,0.7,7.7-0.1c2.7-0.9,6.6,0.6,5,1.5c-1.6,0.9-7.7,2.2-7.7,2.2s2.5,1.1,5,0.4c2.6-0.7,2.6-2.3,6.5-1.5
					c-2,0.4-3.7,1.2-3.2,4.7c2.2-2.2,4.4-2,7.6-2.7c3.2-0.7,5.4-3.4,5.4-3.4s-4.2,0.7-6.5,1.3c-2.3,0.6-2.3-3.3-2.3-3.3
					s-2.9,0.5-5.5-1c1.5-0.4,1.4-0.1,2.7-2.2c-2,0.9-5.4,1.6-8.2,0c2.2-0.1,3.6-2.1,5.3-2.2c-1-0.6-1.8-0.6-3.3-0.1
					c-1.5,0.5-3.3,0-6.6-0.5c1.2-0.6,2.7-1.6,5.3-1.6c-1.2-0.6-3.3-0.9-5.6-0.2c-2.3,0.6-5,0.5-5.5-0.7c-0.5-1.2,0.9-1.5,1.1-4
					c-0.3,0.7-0.7,1.1-1.1,1.3c1.1-2.4,2.4-4.8,3.7-7.1c0.2,0.5,0.3,1.4,0.2,2.4c-0.1,2,0.1,5,1.8,5c1.7,0-0.5-2,1.3-3.4
					c1.8-1.5,4.3-0.7,5.9-1.7c1.6-1,2.6-2.2,3.4-2.6c0.9-0.4,2.3,1.6-0.5,3.2c-2.8,1.6-5.6,3.2-6.8,4.8c2.5,1.6,5.5,0.4,6.5-0.9
					c1-1.2,3.2-3.3,4.5-4.4c1.2,1.6,1.7,4.7,0.1,5.9c-1.6,1.2-4.4,1-5.5,3.3c2.2-0.9,7.4-2.5,9-0.7c0-2.9-0.4-9,3.4-8.8
					c3.8,0.1,6,2.9,3.8,5.6c-2.2,2.7-2.3,4.2-3.8,4.2c0.7,0.7,1.6,0.6,2.7,2.1c1.8-1,2.6-3.2,3.2-5.4c0.9,1.8,1.7,5.3,0.9,8.1
					c2.3-1.6,5.2-5,7-5.2c-1.1,2.1-1.1,3.3-0.8,4.4c1.5-2.3,7.4-3.8,4.9-5.9c-2.5-2.1-4.9-2.8-3.6-5.4c1.3-2.6,2.6-2.6,2.6-2.6
					s0.5,6.9,5.7,8.3c-1.8-2.9-3.4-7.2-1.6-8.7c1.8-1.5,4.1-3.1,4.3,1.8c0.2,4.9,1.8,5.9,1.8,5.9s-0.3-5.7,3.1-7.9
					c3.4-2.1,6.1-0.3,2.8,2.1c-3.3,2.5-4.3,4.9-4.6,7c2.5-2.5,3.8-3.9,5.7-5.1c2-1.1,1.9,0.6,1.1,2.8c-0.8,2.3-3.4,3.6-3.4,3.6
					s9-3.1,11-6.2c1.1,1.5,1.5,3.1,0.2,4.6c4.1-2.8,6.2-4.1,5.9-7.2c1.5,0.3,1.8,0.8,3.9-1c-1,2.1-3.1,4.1-2.9,7
					c1.8-1.1,3.9-3.3,3.9-3.3s-2.1,2.6-1.6,4.6c2.5-0.5,3.3-1.1,3.4-2.5c1.5,2.3,3.3,2.1,2.8,3.9c1.6-3.6-2.1-7.9,3.1-11.9
					c3.3-2.3,3.9-2.9,2.6,0.3c-1.3,3.3-3.8,7-1.6,9.8c2.1,2.8,5.7,4.1,7.2,4.1c-2.6-2.9-4.9-3.4-5.2-6.2c-0.3-2.8,0.3-4.3,2.1-2.1
					c1.8,2.1,2.8,4.7,4.4,5.6c1.6,0.8,3.4,1.5,3.4,1.5s-2.5-1.6-2.9-2.9c-0.5-1.3-1-8.2,3.1-4.7c-0.7-2.5,2.5-3.1,3.3-1
					c0.2-2.5-0.3-6.7,2.5-7.4c1.3,2,2.1,5.1,1,6.7c2.6-2.5,4.4-3.8,3.4-6.1c1.6,0.7,2.6-0.2,3.1,1.1c1-2.3,1-4.3-0.3-5.6
					c2.8-0.7,3.3-4.9,4.7-3.3c1.6-2.6-1.6-3.8-1-6.2c0.7-2.5-2-2.9-3.9-5.1c-2-2.1-0.8-4.7-2.6-5.2c-1.8-0.5-1.1,3.1-2.6,2.9
					c-1.5-0.2-5.1,0.3-7.2-0.5c-2.1-0.8-4.1,2.5-5.7,0.7c-1.6-1.8-0.7-2.3,1-5.1c1.6-2.8,0.2-4.6,3.1-6.1c2.9-1.5,6.1,0.5,4.1,2.1
					c-2,1.6-4.9,3.9-4.6,6.2c1.5-1,4.4-4.7,6.1-3.6c1.6,1.1,2.8,1.8,3.4,3.3c0.5-2-1.6-4.3-2.5-6.9c-0.8-2.6,0.8-0.5,2,0.7
					c1.1,1.1,5.4,5.6,7.4,6.7c2,1.1,1.6,2.5,2.6,4.4c1,2,2.3,1,2.6,0c0.3-1-2-5.1-4.6-7.2c-2.6-2.1-7-5.1-7.9-7.4
					c-0.8-2.3-2.3-3.1-4.1-2.8s-0.5-1,0.2-2.1c0.7-1.1,1.6-2.9,2.6-1.5c1,1.5,2.5,5.9,5.6,8.2c3.1,2.3,2.6,3.1,4.4,4.4
					c1.8,1.3,5.1,6.2,5.6,7.5c1.1-0.8-1.5-8.7-8-14.6c3.8,2.3,8.7,4.6,10.5,7.5c0-3.8-7-7.7-8.5-10c-1.5-2.3-1.5-3.9-2.8-3.4
					c-1.3,0.5-2.3,2.8-3.1,0.2c-0.8-2.6,0.3-5.2,2.3-4.3c2,1,4.6,2.8,6.7,5.4c2.1,2.6,3.9,4.3,4.3,1.6s-0.5-0.8-3.1-3.1
					c-2.6-2.3-5.4-5.2-3.9-5.6c1.5-0.3,4.7,5.1,6.5,5.7c1.8,0.7,5.2,0.3,1.8-1.6c-3.4-2-6.2-5.9-7.5-6.9c-1.3-1-4.1,0.2-6.1,2.5
					c-2,2.3-8.5,7.4-3.1,1.5c5.4-5.9,6.1-8.3,7.7-8.2c1.6,0.2,3.6,1.3,5.2,3.8c1.6,2.5,2.3,2.6,3.9,3.1c1.6,0.5-1.3-0.8-1.8-2
					c-0.5-1.1-4.4-5.6-5.7-6.4c-1.3-0.8,0.2-1.8,1.1-4.1c1-2.3,1.8-3.4,1.8-3.4c0-2.7-2-3.7-4.2-1c-2.2,2.7-9.1,2.2-11.8-0.5
					c-2.4-2.4-3.6-6.3-1.9-8.2c0.2-0.3,0.7,0,0.6,0.3c-0.9,4.7,4.4,8.8,7.1,7.9c2.9-1,2.7-6.9,5.2-7.9c2.5-1,5.2-4.4,3.9-8.1
					c-1.2-3.7-5.2-18.7-26.8-18.7c-21.6,0-29.5,6.6-34.1,9.6c-4.7,2.9-13.5,7.1-11.8,10.3c1.7,3.2,5.4,13.5,3.9,14.2
					c-1.5,0.7,2.7,4.9,0.7,4.9c-2,0-4.7,3.7-1.7,4.4c2.9,0.7,6.6,3.7,5.9,2c-0.7-1.7-2.2-5.6-0.2-4.9c2,0.7,4.9,5.4,3.2,5.9
					s-3.9,0.7-4.2,2.5s1.7,1.5,3.7,0.5c2-1,11.8,1,13,4.2c1.2,3.2,3.2,6.6,1.2,6.4c-2-0.2-2,4.4,1.2,2.7c3.2-1.7,1.2-3.4,3.2-3.7
					c2-0.2,3.2-2.7,5.2-2c2,0.7-2.5,2.2-1.5,2.7c1,0.5,0.2,4.7,2.9,4.4c2.7-0.2,0.7-3.4,2.7-3.9c2-0.5,2.7,0.5,2.7,2
					c0,1.5,2.7,0.2,3.2-0.5c0.5-0.7,2.2,0.2,2.2,2.7c0,2.5-2.7,13.5-4.9,13.7c-2.2,0.2-2.2-1.5-2.7-2.9c-0.5-1.5,1,3.9-1.2,4.4
					c-2.2,0.5-4.4,0.5-5.2-1.2c-0.7-1.7-1.5,1.7-1.5,3.4c0,1.7-4.9,4.2-4.9,0.5c0-3.7-1,4.2-4.9,4.2c-3.9,0-8.8,0.5-15.5,4.7
					c-6.6,4.2-8.6,2.5-7.9,4.7c0.7,2.2-4.4,3.4-4.9,1.7c-0.5-1.7-2.7-3.2-3.9-0.7c-1.2,2.5-3.7,7.1-4.7,6.6c-1-0.5-0.8-3-1.2-3.6
					c-0.4-0.6-3.9-1-5.5-0.5c0.2-1.2-0.8-3.9-8.1-0.9c0.2-2.8-0.1-4.2-4.6-2.6c-4.5,1.6-5.5,2.6-2.5-1.6c-2.3,0.7-3,1.2-4.6,1.6
					c4.6-7.5,9.5-14.3,13.1-18.2c1.6-1.8,2.8-4.5-0.7-0.7c-1.7,1.9-7.5,9.8-13.2,19c-0.1,0-0.3,0.1-0.4,0.1c1.1-1.6,0.4-3.8,0.4-3.8
					s-2,1.3-2.3,2.6c-1.1-1.5-2.3-4.9-3.9-2.2c-1.6,2.7-4.9,7.4-4.5,9.2c0.4,1.8,6-0.6,7.4-1.2c0.3-0.2,0.6-0.2,0.8-0.1
					c-1.5,2.5-2.9,5.1-4.1,7.7c-0.6-0.1-1.2-0.7-1.6-1.7c-0.5,2.1-2.5,0-2.7-1.7c-0.7,0.7-1.6,0.4-2.5-0.3
					c5.5-10.5,14.2-23.4,26.8-37.8c1.4-1.6,2.2-2.6,2.6-3.1c0,0.1,0.1,0.3,0.2,0.4c0.7,0.8,1.6,1,3.1,1.1c1.5,0.2,0.6-3.4-1-3.6
					c-1.6-0.2-2.3,0.8-2.4,1.6c-0.6,0.4-2,1.7-2.7,2.4c-1.4,1.5-17.2,19.4-27.3,38.5c-0.5-0.6-1.1-1.2-1.5-1.9
					c-1.1,0.4-5.8,0.1-8.7,0.6c0.9-0.5,0.5-1,2.8-2.5C570,635.7,568.7,637.8,568.7,640.5z M680.8,589c0-4.1,0.3-11.6,1.3-14.4
					c1-2.8,2.1-2.3,2,0.2c-0.1,2-1,6.7-0.7,10.1c0.3,3.4,1.1,10,0,9.5c-1.1-0.5-7.9-0.7-13.3-4.6C668.3,588.5,680.8,593.1,680.8,589
					z M678.3,564c-0.6-1.9-3.6-7.7-7.9-9.2c-2.1-0.7-0.7-0.9,1.1-0.3c1.1,0.4,4.7,2.4,6.4,5.7c1.2,2.3,1.6,4.4,1.2,5.5
					c-0.3,1.1-1.1,2.6-1.4,1.9C677.3,566.8,678.9,565.8,678.3,564z M660.5,576.1c3.7-0.6,6.4-2.2,6.4-2.2c2.6-1.6,4.3-3.8,4.7-3.4
					c0.5,0.3-0.1,0.9-0.1,1.5c-0.1,0.6,0.6,1.5,1.8-0.2c1.1-1.6,3.7-4.3,2.1-0.9c-1.5,3.4-5.3,6-8,6.7c-2.7,0.7-1.7,2.8-6,2.7
					C657.2,580.2,656.8,576.7,660.5,576.1z M654.9,565.1c1.7-3.9,2.5-7.7,4.6-8.8c3.1-1.7,8.2-2.3,5.4-0.7c-2.8,1.6-7.4,3.8-6.9,7.9
					c0.5,4.1-1.5,6.1-5.9,6.7c-4.4,0.7-7.2-1.3-7.9-4.3c-0.7-2.9-2.3-9.5,2.1-8.5c2.5,0.6,0,3.3,0.5,6.1c0.5,2.8,0.7,5.2,2.8,4.9
					S653.9,567.4,654.9,565.1z M690.8,553c1.5-1.3,2.4-2,4.7-3.8c2.3-1.8,6.1-2.3,8.5-0.4c2.4,1.9,2,4.4,1.5,4.4c-0.5,0,0-1-1-2
					c-1-1-6.7-2.9-9.7,2.1c-0.9,1.5,0.3,3.3-0.9,4.2c-1.1,0.8-1.1-1.1-2.1-1.8C690.8,555.1,689.8,553.9,690.8,553z M688.3,580.7
					c0-3.8,0.7-8,1.1-5c0.4,3.1,0.3,9.6,0.3,12.1c-0.1,2.5-1.4,3.2-1.5-0.3C688,584.1,688.3,580.7,688.3,580.7z M667.2,548.7
					c-5.1,1.5-10,4.9-11.8,5.7c-1.8,0.8,1.6-4.6,4.1-5.4c2.5-0.8,5.2-1.8,3.9-2.6c-1.3-0.8-1.3-3.9,1.3-3.9c2.6,0,6.4-1.1,6.9-2.5
					c0.5-1.3,5.9-4.1,6.1-2.6c0.2,1.5-5.2,5.4-2.8,5.7c2.5,0.3,4.6-4.7,5.9-4.1c1.3,0.7-2.3,3.8,1,3.1c3.3-0.7,5.1-3.9,5.7-2.9
					c0.7,1,0.7,1,0.7,1s-1,2.8,3.3,2.3c4.3-0.5,5.2-2.9,7-2.3c1.8,0.7,2.9,1.3,4.4,2.3c1.4,1,3.9,4.7,1.1,3.1
					c-2.8-1.6-8-1.8-15.9-0.3C679.6,546.9,672.3,547.3,667.2,548.7z M651.5,629.6c4.2,0,16-0.2,25.9-2.8c9.9-2.6,17.4-7.1,17.4-7.1
					c2-1.1,9.7-5.6,5.8-1.6c-3.9,4.1-10.6,8.5-25.4,11.4c-14.9,2.9-22,2.2-24.5,1.7C648.1,630.7,647.4,629.6,651.5,629.6z"/>
				<path class="st1" d="M723.3,593.3c-1.2-0.8-1.8-2.4,0.5-0.6c2.3,1.8,13.8,11.1,20,21.7c4.4,7.5,3.8,7.4-0.4,0
					C739.2,607,728.7,596.9,723.3,593.3z"/>
				<path class="st1" d="M705.4,688.8c-0.7-8.5-6.1-22-9.5-27.5c-0.8-1.2-0.7-2.9,0.7-0.4c1.4,2.6,7.9,15.8,9.2,28.1
					C706.6,697.6,706.2,697.2,705.4,688.8z"/>
				<path class="st1" d="M664.6,680.1c1,3,6,18.5,5.4,32.4c-0.4,9.8-0.8,9.3-0.3-0.3c0.5-9.6-3.1-25.3-5.8-31.8
					C663.3,678.9,663.6,677.1,664.6,680.1z"/>
				<path class="st1" d="M702.5,651.9c1.1,1.8,6.2,10.8,7.4,19.1c0.8,5.8,0.4,5.6-0.3-0.1c-0.7-5.7-5-15-7.6-18.7
					C701.4,651.3,701.4,650.1,702.5,651.9z"/>
				<path class="st1" d="M740.5,634c-3.5-9.9-13.6-24.4-19-29.9c-1.2-1.2-1.7-3.3,0.6-0.7c2.3,2.6,13.6,16.3,18.8,30.6
					C744.6,644.3,744,644,740.5,634z"/>
				<path class="st1" d="M589.8,584.5c-9.9-2-32.2-2.3-44.2,1.4c-12,3.7-12.9,3.2-0.5-0.4c17.5-5.1,40.3-2.8,44.8-2.2
					C594.3,583.8,592.1,584.9,589.8,584.5z"/>
				<path class="st1" d="M632.1,673.2c-4.2,6.8-10.4,23-10.8,32.6s-1,10.1-0.5,0.3c0.8-13.9,8.7-30,10.3-33.2
					C632.8,669.8,633,671.7,632.1,673.2z"/>
				<path class="st1" d="M609.5,673c-4.4,4.5-12.1,16-14.1,23.4c-2,7.4-2.6,7.7-0.4,0.1c3.1-10.7,12-21.7,13.8-23.9
					C610.7,670.5,610.5,672,609.5,673z"/>
				<path class="st1" d="M592.5,596.3c-11.3,1.2-35.8,8.2-49.2,16.5c-13.4,8.2-15.2,8.6-1.5-0.1c14.6-9.3,45.6-16.8,50.8-17.4
					C598,594.7,595.1,596.1,592.5,596.3z"/>
				<path class="st1" d="M537.9,641.2c16.5-16.4,54.2-35.2,60.5-37.5c6.7-2.4,3.4,0.2,0.2,1.3c-14.1,4.9-43.5,21.3-58.8,35.9
					S522.5,656.5,537.9,641.2z"/>
				<path class="st1" d="M519,636.5c20.1-20.8,68.1-33,71.2-33.8c2.2-0.5,9.1-1.3-0.6,1.2c-37.1,9.6-59.6,22.7-69,32.2
					C511.3,645.7,502.7,653.4,519,636.5z"/>
				<path class="st1" d="M325.5,612.1c6.9-36.3,22.9-70,26.2-83.5c3.3-13.4-0.9-12.8,0.7-37.6c1.1-16.5,14.4-41.7,19.3-44.5
					c3-1.7,0.2,4.4-3.8,8.3c-3.9,3.9-11.3,19.4-13,32.2c-1.7,12.8,2,19.1,0.7,33.4s-6.1,24.8-11.3,38.5c-5.2,13.7-13.3,43-15.5,50.8
					c-2.2,7.9-4.9,25-8.8,35.3c-3.9,10.3-6.2,17.4-6.9,23.3s12.4,15.7,18.9,20.3c-2.3-4.3-1.6-5.2,1.3-11.5c0,4.3,1.6,8.2,6.9,15.1
					c5.2,6.9,24.2,18,29.5,22.9c5.2,4.9,7.5,0.7,14.7,7.2c-3.9-1.6-3.9,2-10.5,3.9c14.1,1,20,5.9,29.8,7.2c-2.6-1.6-3.3-3.6-5.9-7.5
					c13.7,6.2,14.4,12.1,18.7,14.4c4.3,2.3,10.5-0.3,20.3-1.6c-5.6-1.3-2-3.3-8.8-7.2c6.9,0.7,10.5,1,16.7,3.6
					c6.2,2.6,13.4-2.6,13.4-2.6s-4.9-2.6-6.2-5.6c4.9,2.6,5.2,0.3,13.4,0.7c0.7,5.2,9.2,6.5,12.1,3.6c2.3,4.6,19.3,9.8,19.3,9.8
					s2.6,1-1.6-6.2c7.5,4.9,7.9,18.7,7.9,18.7s-1.3-2.6-4.9-6.9c-3.6-4.3-10.8-1.6-17.7-6.2c-6.9-4.6-12.4-2.9-21.3-2.3
					c-8.8,0.7-6.9,3.6-2,6.5c4.9,2.9,12.4,6.2,19.6,8.2c-4.3,1-13.1-0.7-17.3-3.6c-4.3-2.9-19.3-6.5-24.2-5.2
					c8.5,1,12.1,3.3,15.7,6.2c-6.2-2-7.5,0.7-19-1.6c-11.5-2.3-20.3-5.2-31.4-12.1c-11.1-6.9-14.4-3.6-22.9-5.6
					c-8.5-2-12.4-6.2-18.3-11.5c4.3,2.3,4.3,1.6,9.2,1c-5.2-1-9.2-7.5-14.7-9.2c-5.6-1.6-12.1-3.6-14.1-9.2c4.6,0.7,4.3,1.6,9.5,3.9
					c-1.6-2.9-5.2-6.2-14.1-9.5c-8.8-3.3-15.4-12.1-24.9-27.2C311.1,658.5,318.6,648.4,325.5,612.1z"/>
				<path class="st1" d="M649.3,663.9c-1.8-1.8,4.1-6.4,4.9-8.3c0.9-2,6.2-5.9,8.8-6.5c-2.1,2.6-3.5,2.9-4.1,5.2
					c2.3-0.3,4.8-0.7,5.3-2.5c0.5,2.5,0.9,6.4,1.9,3.4c1.1-2.9,1.8-2.6,0.9-4.7c2.5,1.5,2.1,5.1,3.2,6.9c1.8-3.4,3.9-5.1,3-7.4
					c2.6,2.3,2.8,4.6,1.8,6.5c1.9-0.3,3.2-1.1,4.4,0c0.2-2.3,0-3.8-1.6-5.4c3,1.1,4.4,1.5,5.5,3.1c0.7-2.3,1.8-3.3,1.8-3.3
					s-1.1,5.2,5.3,0.3c0,0-5.8,7.9-14,11.1c1.8-2.1,2.1-3.9,2.1-3.9s-3.4,0.8-5.1,2.9c-1.8,2.1-3.7,2.8-5.7,3.6
					c1.2-2.5,1.2-4.6-0.4-6.1c0.4,1.6-1.9,1.8-2.5,3.6c-1.4-0.7-0.7-4.4-0.7-4.4s-3.2-0.2-3,2.6c-1.6-2.3-2.8-2.1-2.8,0.2
					c-1.9-1-1.9-2.9-1.9-2.9s-4.2,5.7-4.4,8.3c-1.6-2.3-1.4-4.1-1.1-5.4C649.3,662.5,649.5,662,649.3,663.9z"/>
				<path class="st1" d="M372.3,587.8c3.9-1.6,7.2-1.6,10.1,1.3c-2-5.2-7.5-8.2-7.9-12.4c-0.3-4.3,5.6-5.6,1-10.1
					c4.6,2.3,7.5,0,4.9-4.3c-2.6-4.3-5.2-9.8-6.2-15.1c4.3,3.9,6.5,3.9,6.5,3.9s-4.9-8.2,0.3-17.3c0.7,5.9,4.4,7.9,6.9,8.8
					c-4.4,2-4.9,1.3-7.2-0.7c0.3,6.9,2.9,11.5,5.9,12.8c-3.9,1-5.2,0.7-6.9,0.3c2.9,5.6,8.5,19,11.5,21.3c-7.5,1.3-9.2,2-12.4-0.3
					c2.3,6.2,7.5,10.1,12.4,11.1c-4.3,2-4.3,5.6-7.9,4.9c5.2,3.9,4.9,10.1,10.5,12.8c-5.6,1.6-10.1,2.6-13.4,1.3
					c3.9,6.2,14.7,10.8,18,11.5c-4.6,3.3-7.9,3.6-11.1,3.3c5.6,4.6,15.7,12.4,22.6,13.4c-7.9,3.9,1,5.6,5.6,8.2
					c-4.3,1.6-6.9,2.6-9.8,1.3c3.3,4.3,5.9,9.2,10.5,11.5c-3.3,2.3-9.2,1.3-9.2,1.3s10.8,7.5,17.7,8.8c-3.9,2-3.9,4.6-7.5,4.3
					c9.2,4.3,23.9,7.9,30.4,6.9c-3.3,2.9-10.5,4.9-10.5,4.9s5.6,5.2,11.1,6.2c-4.6,2.3-15.1,1-19.3-2.3c5.2,0.7,5.2,0,9.2,0.7
					c-4.9-3.3-19-10.5-28.8-10.5c5.2-4.9,4.3-8.5,4.3-8.5s-10.5-4.6-17.3-2.9c2.3-3.6,13.1-2.9,13.1-2.9s-6.2-5.6-10.1-5.6
					c2-1,5.2-3.3,8.8-2.3c-3.6-2.6-6.2-8.8-14.4-8.5c-7.2,0-5.6-5.9-11.1-8.2c8.2,0,14.1,3.9,19.6,4.6c-5.2-3.9-7.2-9.8-11.5-11.5
					c-4.3-1.6-5.6-7.9-12.1-9.2c4.9-2.6,6.2-4.9,9.2-4.6c-5.2-3.9-10.8-5.9-13.1-9.8c3.9-5.6,7.9-6.2,7.9-6.2
					S379.5,591.1,372.3,587.8z"/>
				<path class="st1" d="M685.6,523.5c-2.9-2.5-8.8-6.7-11.4-8.8c-2.6-2.1-4.2-4.8,2.7,0.4c6.9,5.2,8.1,6.4,9,7.2
					C693.7,529.4,691.6,528.6,685.6,523.5z"/>
			</g>
		</g>
		<g>
			<path class="st0" d="M182.2,569.8c-17.6-21.1-33.8-79.9-29.2-125.2s38.2-163.8,42.3-191.9s23.9-77.9,57.7-109.6
				c15.1-14.2,26.1-16.7,45.7-31.3s31.3-24.7,51.7-30.4c20.4-5.7,61.6-13.4,88.6-13c27,0.4,41.5-4,55.1,4.5
				c13.5,8.4,16.4,14.9,27.2,18.4c10.8,3.5,13.2,4.7,17.2,8.1c4.1,3.4,7.1,11.3,16.5,15.6c9.4,4.3,25.1,20.1,28.7,26.4
				c10.4-1,55.5-15,64.7-4.7c9.2,10.3,20.6,28,19.8,42.3s12.3,43.4,9.9,95.6c-1,21.1,24.6,38.1,31.6,48.6s34.5,55.8,40.4,70.2
				s17.5,41.7,46,51c28.6,9.2,56,29.8,58.6,34.1s6.6,14.3,4.7,18.3s-7.5,0-9,7.6c-1.5,7.6-21.3,11.8-29.7,10.3
				c-8.4-1.4-17.9-7.6-41-5.8c-41.5,3.1-67.3-81.6-94.8-83.8c-17.2-1.4-96.5,0.2-153.4,23.6s-107,63.4-127.4,69.1
				s-50.5,11.6-79.3,24c-28.7,12.5-40.4,23.3-53.1,23.8c-12.7,0.5-30.4-5.3-41.7-5.7C218.7,559.6,193.2,583,182.2,569.8z"/>
			<path class="st2" d="M182.2,569.8c-17.6-21.1-33.8-79.9-29.2-125.2s38.2-163.8,42.3-191.9s23.9-77.9,57.7-109.6
				c15.1-14.2,26.1-16.7,45.7-31.3s31.3-24.7,51.7-30.4c20.4-5.7,61.6-13.4,88.6-13c27,0.4,41.5-4,55.1,4.5
				c13.5,8.4,16.4,14.9,27.2,18.4c10.8,3.5,13.2,4.7,17.2,8.1c4.1,3.4,7.1,11.3,16.5,15.6c9.4,4.3,25.1,20.1,28.7,26.4
				c10.4-1,55.5-15,64.7-4.7c9.2,10.3,20.6,28,19.8,42.3s12.3,43.4,9.9,95.6c-1,21.1,24.6,38.1,31.6,48.6s34.5,55.8,40.4,70.2
				s17.5,41.7,46,51c28.6,9.2,56,29.8,58.6,34.1s6.6,14.3,4.7,18.3s-7.5,0-9,7.6c-1.5,7.6-21.3,11.8-29.7,10.3
				c-8.4-1.4-17.9-7.6-41-5.8c-41.5,3.1-67.3-81.6-94.8-83.8c-17.2-1.4-96.5,0.2-153.4,23.6s-107,63.4-127.4,69.1
				s-50.5,11.6-79.3,24c-28.7,12.5-40.4,23.3-53.1,23.8c-12.7,0.5-30.4-5.3-41.7-5.7C218.7,559.6,193.2,583,182.2,569.8z"/>
			<path class="st1" d="M230.2,547c-9.3,1.9-37.3,16.5-37.5,20.5c-0.1,4,5.6,4.4,15.1-1.4c10.1-6.2,22.1-11.1,33.5-7.2
				c11.4,3.9,24.5,5.4,30.4,4.3c5.9-1.1,17-2.6,38.3-16.9c7.9-6.2,41.8-17,64.7-23.1c0,0,32.5-3.5,79.4-36.3
				c16.1-11.3,45-28.6,72.5-38.7c27.5-10.1,55.1-18.7,94.4-22.5s67.3-3.2,76.4,0.9c10.9,5,42.6,69.9,76.1,79.6
				c4.2,1.2,16.5-1.9,28.3,0.1c11.8,2.1,20-1.7,30.1,1.6s19.1-2.2,8.1-3.4c-11-1.2-13.6-12.9-6.9-11.1c6.7,1.8,9.2,3.8,18,2.2
				s3.1-10.3,0.5-10.7c-26.8-4-28.8-17.3-59.3-23.7s-50.1-17.3-57.4-28.9s-4-0.7-5.9,0.8c-1.9,1.5-3.5,0.2-3.1,4.8
				c0.4,4.6,4.7,14.8-2.2,8.6c-2.3-2-2.3,2.8-5.5-2.3c-3.1-5.1-5.8,0.2-6.9-7.9c-1.2-8.1,4.5-5.3,2.8-9.6
				c-1.7-4.3-8.5-7.8-14.8-10.7c-6.3-2.9,1.4-6.6-10.3-8.5c-11.7-1.9-15.6-11.5-6-15.4c9.6-3.9,14.9-0.4,21,10.5
				c6,10.9,27.8,19.8,38,21.8s14.1,1.6,6.9-6.6c-7.3-8.3-21.4-9.4-27.8-14.3s-10.3-13.5,1-10.1s20.6,17,27.9,14.8
				c7.3-2.2-10.6-22.4-15.2-34c-4.6-11.5-29.8-55.5-46.3-66.9c-16.6-11.4,6.6,17.3,13.5,31.6c6.9,14.3,13.9,35.6,5.3,23.9
				c-8.6-11.7-9.9-20-15.9-20.4c-6-0.4-7-10.3-8.3-18.7c-1.3-8.4-0.4-16.5-3.5-31.6c-1.8-8.8-7.1-16.8-7.3-8.8
				c-0.2,8,1.3,13.4-2.2,13.7S660,287.4,659,277c-1-10.4,0.1-20,4.4-11.4s9.3,14.1,8.3,3.2s1.1-24.6-4.6-43
				c-5.8-18.4-9.8-19.5-8.5-5.7s6.7,38.8,1.8,34.8c-4.9-4-10.8,1.5-11.8-14.3s8.1-4.3,4.6-35.9s-8.6-27.6-8.3-34.6
				c0.3-7,2.6-14.2,6.9-6.6c4.2,7.6,8.8,14.1,8.1,6.7s-6-20.9-9.4-25.1c-3.4-4.2-24-0.7-61.9,5.4c-37.8,6.1-68.1,18-107,18.2
				c-38.9,0.2-81.6-2.7-100.1,7.1s-33.2,23.6-40.4,26.8s-16.3,7-13.6,9.3c2.7,2.2,14.9-6.4,13-0.2c-1.9,6.2-14,15.3-17.8,17.2
				c-3.8,1.9-0.8,13-4.8,17.4c-4.1,4.4-7.1,8.1-10.7,13.5c-3.5,5.3-0.4,12,3.5,5.7s7.9-6.2,9.5-4.9c1.6,1.3-0.4-4.5,4.6-8.9
				c5.1-4.5,10.7-8,8-10.2c-2.7-2.2,9.5-5.4,9.4-11.4c-0.1-6-3.6-11.6,5-15.9s13-9.7,16.8-17.1c3.8-7.3,11-15.5,21.7-13.5
				s7.7,12.2,30.2,7.6c22.5-4.6,42.1-3.5,48.9-5.2c6.8-1.7,17.7,7.3,27.2,2.4c9.5-4.9,25.2-7.4,27.5,0.4c2.2,7.8-0.9,21.5-9.1,19.3
				s-4.2-13.1-9.3-14.1s-12.8-3.3-8.2,3.3s9,20.6-9.3,22.8c-18.2,2.2-42.4,10.5-47.5,4s-12.6-6.3-13,4.7s10.1,16.5-11.3,17.5
				s-33.5,30.6-33.3,43.1s3.6,32.6-10,41.9c-13.6,9.3-24.4,5.3-30.5-6.1c-6.1-11.4-17-31.3-7.6-42.7c9.4-11.4-6.8-18.8-14.8-14.1
				c-8,4.8-10,0-13,9.7c-3.1,9.8-14.8,22.9-7.2,24.1c7.6,1.3,12.9-11.7,21.4-5.5s0.8,13.4-9.1,14.8c-9.8,1.4-17.5-5.3-16.8,1.6
				s3.3,8.7,8.6,12.1c5.3,3.5,11.7,7.4,7.9,9.7c-3.8,2.4-8.8,2.3-10.7,8c-2,5.7-1.4,11.1-11.3,23c-9.8,11.9-3.6,30.3-7.7,34.7
				c-4.1,4.4-5.1,9-1.1,9.1c4,0.1,5.7-13.5,12.2-13.6c6.5-0.1,5.8,8.9,12.7,7.8c6.9-1.2,9.8-6.9,10.6-20c0.8-13,15.8-17,23.5-10.2
				c7.6,6.8,3.5,5.2-2.8,7.7s-10.4,6-11.4,11.6s3.2,2.2,12.8-2.2c9.6-4.4,17.3-7.1,18.6-3.3c1.4,3.9-7.6,9.2,2.5,16.2
				s15.2,23,28,21.8s27.7-23.6,34.9-42.3s14-25.8,14.7-18.9c0.7,6.9-6.8,33.6-12.2,39.1c-5.5,5.5-4,15.4,15.2,2s20.9-11,25.8-16.9
				s10.7-19,14.5-15.9c3.8,3.1,2.2,7.3-2,10.7c-4.2,3.4-6.3,12.1-13.1,14.2s-17.1,9.1-20.2,12.9s4.5,5.1,11.3,3.4
				c6.8-1.7,10.8,8.5,2.4,9.7c-8.4,1.3-30.3,6.9-37.4,5.1c-7.2-1.8-32.7,2.1-38.1,8.6s-4.4,16.9-2.1,25.2c2.3,8.3-12,0.1-3.3,12.8
				c8.7,12.6-27-5.9-35.9-0.1c-8.9,5.8-7.2,18.7-18.4,21.7c-11.2,3.1-28.7,2.7-33.3,6.7c-4.6,3.9,1.2,7.4-2.2,8.2
				c-3.4,0.8-10.2-2.5-11.1-6.9c-0.9-4.4-2.9-9.2-5.1-6.5c-2.2,2.7-11.8-8.4-5.8,7.5c6,15.9,10.6,7,13.6,16.7
				c2.9,9.7-0.3,12.5,2.9,14.2c3.2,1.7,8.7-3.3,17.8-7.2c9.1-3.9,5-6.3-10.6-6c-6.5,0.1-3.8-3.6,4.1-8.9c8-5.3,13.5-9.8,26.7-7.5
				s13.7-8.3,20.9-11c7.2-2.7,28.2,2.3,39.4,0.2s14-15.8,36.3-16.9c22.3-1.1,22.6-25.1,53.1-39.5c30.6-14.4,33.4-21.2,23-20.7
				c-10.4,0.5-20.1,3.4-14.6-6.1c5.6-9.5,11.9-32.1,21.8-32.5c9.9-0.5,12.2,13.3,6.1,16.9c-6.1,3.6-9.5,9.9-15.2,12.9
				c-5.7,3-6.7,8.1,6.5,5.4s29.7-2.8,25.2,3.1c-4.4,5.9-21.7,23.5,2.5,5.7c24.3-17.8,74.9-25.1,96.4-25.2
				c21.5-0.1,23.2-7.7,22.5-15.6c-0.8-7.9-8.9-9.1-22.3-3.9c-13.5,5.3-36.7,12.5-43.4,10.1c-6.7-2.4-12.4-9.3-9.4-14.6
				c3-5.3,7.5-15.2,25.6-14.4s31.6,6.5,36.8,9.5c5.3,3,13.3,3.2,20.8-7c7.5-10.2,15.2-18.4,12.8-27.7s-11.7-12.4-12.5-20.8
				c-0.8-8.4-4.1-0.6-4.2,2.9c-0.2,3.5,7,10.3-2.1,9.7c-9-0.6-8.9,0.4-5.9-9.9c3-10.3-10-11-6.4-14.4c3.7-3.3,10.8-2,10.5-5
				c-0.3-3-6.4-9.4-9.4-10.1c-3.1-0.7-4.3-3.1-1.2-7.4c3.1-4.3,11.2-8.6,11.3-17.5c0.1-9-4.6-32,2-15.2c6.6,16.8,14,31.6,9.4,35.5
				c-4.6,3.9-12.1,9.1-0.8,7.6s15.1,16.5,7.7,18.2c-7.3,1.7-0.1,4,4.4,4.1c4.5,0.1,9.7,12.5,6.7,17.8c-3,5.3,7.6,6.3,8.9,9.6
				s1.2,12.9,4.2,18.1c3,5.2,2.3,13.8,5.4,15c3.1,1.2,6.6,6.4-0.3,7.5s-10.7-2-11.9-9.8c-1.3-7.9-2-20.8-2.4-24.7
				c-0.4-4-5.8-8.4-6.1-0.9c-0.3,7.5-4,20.8-9.1,25.3c-5.1,4.5-14.7,13.4-12.5,21.1c2.2,7.8,3.9,9.1,11,5.9
				c7.2-3.2,19.8,3.6,9.5,5.6c-10.3,2-31.2,8.1-56.2,7.4c-8-0.2-12.1,9.1-20.7,7.5c-8.6-1.7-1.8-8.3-11.1-6.9s-5.4,6.5-13.7,8.3
				c-8.3,1.8-7,4.7-1.6,4.6c5.5,0,13.4,4.2,0.6,6.4c-12.8,2.2-1.3-7.9-17.4-9.3s-26.5,10-29.2,13.3c-2.7,3.3-1.4,6.6,4.2,2.1
				c5.6-4.5,18.1-9.2,25.7-7.4c7.7,1.8,5.3,3.5-4.7,3.4c-10,0-11.1,9-27.7,12.6s-34.9,20.8-49.4,26.2c-14.5,5.4-19.9,5.4-29,10.3
				c-9,4.9-25.1,19.4-32.1,19.5c-7,0.2-18.7,2.3-29.6,8.3c-10.9,6-30.3,1.9-35.8,6.9c-5.5,5-7.5,15.2-15.7,13.5
				c-8.1-1.7-16.6-1.4-25.7,3s-19,14.8-21.9,11.1c-2.9-3.7-7.3-13.3-12.5-16.3s-4.7-12.5-8.6-16.6c-3.9-4.1-13.4-14.7-8.4-30.1
				c5-15.4-3.2-18.2-1.2-28.3c2-10.2,3.9-32.8,12.3-44.1c8.4-11.3,13.2-13.7,14.3-33.3s6.9-64,13.9-79.2c7-15.1,10.8-38,22.9-58.6
				s8.7-29.3,20.8-37.9c12.1-8.6,31.8-28,48.2-33.1s44-9.7,65.5-8.8c21.5,0.9,56.2-2.4,83.2-6.9c27-4.6,43.4-5.6,50.3-5.8
				c7-0.2,5.8-2.1,1.4-6.1s-18.6-17.2-31.9-25.4c-13.3-8.2-5.2-12.5-18.7-17.7c-13.5-5.2-21.8-8.4-28.7-13.2s-14-5.6-32.7-2.4
				c-18.6,3.3-7.6-6.8-26-6s-66.5,3.9-70.9,9.8c-4.4,5.9-13.6,9.3-21.5,9.5c-8,0.3-19.7,7.9-24.7,12.8c-5,5-13-0.3-28.3,17.2
				s-26.1,14.5-33.4,21.2c-7.3,6.7-8.6,25.3-26.1,40.4c-17.5,15.1-18,25.7-20.5,35.9c-2.5,10.2-12,15.1-18.5,46.2
				c-6.5,31.1-27.8,110.9-31.1,123.2s-2.3,39.1-5.3,43.9s-6.2,23.6-1.1,24.6c5.1,1,8.1,11.2,1.9,14.8c-6.1,3.6-3.8,17.8-2.6,25.2
				c1.2,7.4,11.4,24.9,11.9,30.8c0.6,5.9,0.2,23.4,11.1,26.9c10.8,3.5,20.3-11.9,25.5-20.9c5.1-9,18.5-10.2,28.2-8.2
				c9.7,2.1,16.6,1.4,20.7,2s-1.5,5.1,5.3,9s14.7,8.1,10.1,11.5s-0.3,7.5-8.3,7.3c-8-0.2-7.8-8.2-17-10.4
				C237.1,545.8,230.2,547,230.2,547z"/>
		</g>
	</g>
	<g>
		<path class="st3" d="M315.7,848.8c-21.4-28.9-57.5-27.9-103.1-19.8c-19.3,2.9-40.3-3.3-48.9-17.3c11.5-3.7,21.5-11.9,22.7-24.2
			c-13.1-21.7-50.4-40.5-56.3-96.4c19.6,25.8,61.2,30.2,82.9,22c50.3-18.9,102.4,0.1,102.7,19V848.8z"/>
		<path class="st3" d="M758.6,848.8c21.4-28.9,57.5-27.9,103.1-19.8c19.3,2.9,40.3-3.3,48.9-17.3c-11.5-3.7-21.5-11.9-22.7-24.2
			c13.1-21.7,50.4-40.5,56.3-96.4c-19.6,25.8-61.2,30.2-82.9,22c-50.3-18.9-102.4,0.1-102.7,19V848.8z"/>
		<path class="st1" d="M315.3,837.8c-48.9-14.5-78.5-51.5-80.7-72.8c0-0.1,0-0.1,0-0.2c-0.1-0.6-0.1-1.1-0.1-1.7c0-0.1,0-0.2,0-0.3
			v-0.5c0.5-14.9,24.1-25.1,47.3-14.6c33.5,15.2,33.9-9.2,34.2-14.2L315.3,837.8z"/>
		<path class="st1" d="M758.6,839.7c48.9-14.5,79.1-53.2,81.3-74.5c0-0.1,0-0.1,0-0.2c0.1-0.6,0.1-1.1,0.1-1.7c0-0.1,0-0.2,0-0.3
			v-0.5c-0.5-14.9-24.1-25.1-47.3-14.6c-33.5,15.2-33.9-9.2-34.2-14.2L758.6,839.7z"/>
		<path class="st3" d="M840,762.4v126.8c0,46.7-135.6,123.1-302.8,123.1c-148.2,0-271.5-68.3-297.7-107.5c-3.4-5-5.1-10.2-5.1-15.5
			V762.8c0,0.1,0,0.2,0,0.3c0,0.6,0,1.1,0.1,1.7c0,0.1,0,0.1,0,0.2c2.2,21.4,115.3,126.9,302.6,128.3
			C725.8,894.5,840,787.7,840,762.4z"/>
	</g>
	<g>
		<path class="st4" d="M838.9,859.5c0.8-47.2-133.6-87.9-300.3-90.9s-302.5,33-303.3,80.2c-0.8,47.2,132.8,134.2,299.4,137.1
			S838,906.7,838.9,859.5z"/>
		<path class="st1" d="M349.4,915.2c-8.8,15.1-27.2,20.9-42.7,11.9c-15.4-9-20.8-28.6-12.1-43.7c8.8-15.1,28.5-20.2,43.9-11.2
			c11.1,6.4,16,17.4,15.6,29.1l-21-5.6c0-2.9-1.1-5.5-4-7.2c-4.8-2.8-11.2-0.3-15,6.3c-3.7,6.4-2.9,13.3,2,16.2
			c3.8,2.2,7.1,1.5,10-0.8l-8.4-4.9l6.5-11.2l27.5,16C351.2,911.9,350.5,913.4,349.4,915.2z"/>
		<path class="st1" d="M386.9,915.1l-2,5.4l13.2,4.9l-5,13.5l-13.2-4.9l-2,5.4l17.1,6.4l-6.1,16.2l-38.2-14.3l21.2-56.8l38.2,14.3
			l-6.1,16.2L386.9,915.1z"/>
		<path class="st1" d="M480.4,921.8L467.7,981l-23.4-5l-6.7-29.5l-5.7,26.8l-22-4.7l12.6-59.3l23.4,5l6.7,29.5l5.7-26.8L480.4,921.8
			z"/>
		<path class="st1" d="M515.9,941.9l-0.4,5.8l14,0.9l-1,14.4l-14-0.9l-0.4,5.8l18.2,1.2l-1.2,17.3l-40.7-2.7l4.1-60.5l40.7,2.7
			l-1.2,17.3L515.9,941.9z"/>
		<path class="st1" d="M612,982.2l-25.3,1.9l-12.5-16.4l1.3,17.3l-22.4,1.7l-4.6-60.4l35.1-2.6c12.5-0.9,20.4,8.4,21.3,20.1
			c0.6,8.4-2.5,16-8.9,20.1L612,982.2z M582.4,946.1c-0.3-4.4-3-6.3-6.1-6.1l-4.2,0.3l1,13l4.2-0.3
			C580.4,952.8,582.8,950.6,582.4,946.1z"/>
		<path class="st1" d="M684.4,967l-22,4.8l-3.9-6.5l-17.3,3.8l-0.8,7.6l-22,4.8l10-64.2l20.1-4.4L684.4,967z M649.4,949.6l-5.5-9.3
			l-1.1,10.8L649.4,949.6z"/>
		<path class="st1" d="M727.1,932.9l5.9,16.3l-38.4,13.9l-20.7-57l21.2-7.7l14.8,40.7L727.1,932.9z"/>
		<path class="st1" d="M738.8,939.5l-2.3-16.8c8.6,1.3,18.5-2.7,18.5-2.7c6.7-2.6,7.8-4.2,6.9-5.9c-0.9-1.7-4-0.1-11.5,2
			c-16.1,4.4-22.2,0.9-26.8-7.4c-5.8-10.7-0.7-22.9,16.2-32.1c5.4-2.9,13.6-5.5,21.3-5l2.3,16.7c-2.1-0.3-8.1-0.7-15.9,3
			c-5.1,2.5-5.7,3.9-4.9,5.4c0.8,1.5,3.5,0.4,8.2-1.3c9.2-3.3,24.2-7.1,31.5,6.3c5.6,10.2,1,23.5-16,32.7
			C752.5,941.9,738.8,939.5,738.8,939.5z"/>
	</g>
	<g>
		<path class="st4" d="M965.9,601c0-66.7-190.7-120.7-425.9-120.7s-425.9,54-425.9,120.7S304.8,862.3,540,862.3
			S965.9,667.6,965.9,601z"/>
		<path class="st1" d="M432.7,819c-7.5,20.6-25.4,23.9-57.1,12.4l-30-10.9c-1.8-0.6-2.5-2.1-1.8-4l19-52.6c0.7-1.8,2.1-2.5,3.9-1.9
			l30,10.9C428.5,784.5,440.2,798.4,432.7,819z M422.6,815.4c4.8-13.4-2.2-23-29.2-32.8l-23.1-8.4L356,813.5l23.1,8.4
			C406.2,831.6,417.7,828.7,422.6,815.4z"/>
		<path class="st1" d="M534.9,833.8c-2.9,23-20,29.9-49,26.2l-2.7-0.4c-29.1-3.7-43.9-14.6-40.9-37.6c3-23.2,20-29.9,49.1-26.1
			l2.7,0.4C523.1,799.9,537.9,810.7,534.9,833.8z M524.4,832.5c1.9-14.9-6.2-23.3-31.6-26.5l-2.7-0.4c-25.4-3.2-35.4,2.8-37.3,17.7
			c-1.9,14.6,6.2,23.2,31.6,26.4l2.7,0.4C512.6,853.4,522.6,847.1,524.4,832.5z"/>
		<path class="st1" d="M633.5,845.6c0.2,1-0.1,1.9-1.2,2.7c-3.8,3.1-14.8,8.9-36.8,11.5c-30.7,3.7-47.6-3.1-50.5-26.3
			c-2.8-23.2,12-33.8,42.7-37.6c21.8-2.6,33.9,0.2,38.3,2.3c1.9,0.9,2.2,2.7,1,4.3l-2.3,3.2c-1,1.5-2.2,1.6-4,1.2
			c-4.1-1.1-13.6-3.5-31.8-1.2c-27.4,3.3-35.1,11.6-33.3,26.4c1.8,14.8,11.3,21,38.7,17.7c15.6-1.9,24.2-5.4,28.7-7.8l-1.5-12.7
			l-21.1,2.6c-1.9,0.2-3.1-0.8-3.4-2.7l-0.4-3.1c-0.2-1.9,0.7-3.2,2.6-3.5l27.9-3.4c1.9-0.2,3.1,0.8,3.4,2.7L633.5,845.6z"/>
		<path class="st1" d="M647.8,796l5.5,15.8l56.5-19.5c1.8-0.6,3.2,0.1,3.9,1.9l1.1,3.2c0.6,1.8,0,3.3-1.8,3.9l-56.5,19.5l5.2,14.9
			l61.4-21.2c1.8-0.6,3.2,0.1,3.9,1.9l1.2,3.6c0.6,1.8,0,3.3-1.8,3.9l-68.3,23.6c-1.8,0.6-3.2-0.1-3.9-1.9l-18.3-52.9
			c-0.6-1.8,0-3.3,1.8-3.9l68.3-23.6c1.8-0.6,3.2,0.1,3.9,1.9l1.2,3.6c0.6,1.8,0,3.3-1.8,3.9L647.8,796z"/>
	</g>
</g>
<g>
</g>
<g>
</g>
<g>
</g>
<g>
</g>
<g>
</g>
<g>
</g>
</svg>
