<svg width="273" height="305" viewBox="0 0 273 305" fill="none" xmlns="http://www.w3.org/2000/svg">
<path d="M62.6444 193.964C62.6444 193.964 66.8611 201.662 70.9819 202.876C72.3555 203.356 72.1319 204.026 72.1319 204.665C72.1319 205.304 74.3361 206.933 76.0292 207.349C77.7222 207.764 78.7125 208.658 79.6069 209.457C78.393 209.297 77.5944 209.201 77.5944 209.201C77.5944 209.201 81.4917 213.258 84.4944 213.833C87.4972 214.408 88.5514 213.737 91.075 215.207C93.5986 216.676 98.0389 219.104 102.415 219.519C106.792 219.935 107.846 219.839 108.644 220.158C108.485 219.424 107.91 218.785 107.335 218.529C108.708 219.168 109.283 219.168 110.593 219.743C111.903 220.318 114.81 221.692 117.333 220.542C115.96 219.743 111.104 218.274 109.954 217.219C108.804 216.165 110.21 216.261 111.008 216.261C111.807 216.261 114.171 215.622 116.024 216.261C117.876 216.9 118.132 217.571 119.601 217.731C121.071 217.89 122.444 217.986 123.339 219.424C124.233 220.893 124.968 222.426 124.968 222.426C124.968 222.426 125.447 220.574 124.968 218.849C124.489 217.156 123.467 212.939 126.597 214.057C128.386 214.696 129.856 215.91 130.91 216.006C129.536 216.804 128.003 218.114 127.492 219.072C128.801 219.232 129.919 218.593 131.229 218.976C132.539 219.392 133.817 220.765 136.181 221.404C138.544 222.043 142.985 223.353 144.294 223.193C142.633 223.289 140.717 223.736 139.535 224.024C139.279 224.087 139.311 224.439 139.567 224.471C141.611 224.758 146.051 225.174 150.044 224.886C156.721 224.407 172.31 222.682 181.19 215.143C182.692 213.865 183.714 213.354 182.724 217.156C184.736 215.303 188.665 211.853 190.901 209.904C193.137 207.956 197.194 204.537 198.472 204.474C199.431 204.442 200.932 205.56 201.762 206.39C201.954 206.582 202.306 206.39 202.21 206.103C201.858 204.825 200.836 203.196 200.74 202.685C200.612 202.014 199.654 200.257 200.261 196.775C200.453 195.593 201.699 195.178 203.551 190.45C205.883 184.444 206.011 176.874 206.011 176.426C206.49 176.937 207.608 178.311 209.206 180.675C209.972 181.793 210.835 183.518 211.442 184.508C211.537 184.668 211.825 184.54 211.729 184.349C211.186 182.911 209.876 180.196 209.589 179.685C208.631 177.96 206.075 175.308 206.075 175.308C206.075 175.308 206.426 171.571 206.267 170.932C207.001 171.315 210.132 173.168 211.665 174.382C213.199 175.596 215.754 177.544 216.042 177.449C216.329 177.353 213.262 174.51 212.4 173.871C211.506 173.232 207.896 170.836 206.267 170.069C206.267 169.654 206.235 168.824 206.235 168.824C206.235 168.824 212.496 171.603 214.892 173.232C217.287 174.861 220.897 177.481 221.472 177.481C222.047 177.481 220.386 176.394 219.651 175.724C216.137 172.657 209.269 169.175 206.267 168.089C206.267 166.715 206.107 165.885 206.107 165.885C206.107 165.885 210.835 167.29 214.253 169.015C217.671 170.74 218.757 171.603 219.619 172.274C220.482 172.976 222.814 175.308 223.549 175.468C224.283 175.628 220.833 172.561 220.258 171.858C218.182 169.75 210.579 166.268 206.011 164.958C206.043 163.617 205.372 160.103 205.212 159.496C207.832 159.464 214.189 159.847 218.118 161.476C222.047 163.106 223.261 163.936 223.517 163.681C223.804 163.393 221.217 162.051 218.917 160.997C216.617 159.943 210.771 158.537 205.021 158.633C204.893 157.611 204.318 155.95 204.318 155.95C204.318 155.95 210.835 154.736 214.221 154.992C217.607 155.247 218.533 155.119 218.533 154.896C218.533 154.512 214.476 154.129 212.879 154.161C210.611 154.193 205.692 154.864 204.094 155.311C203.679 154.033 202.944 153.011 202.657 152.564C202.369 152.149 201.283 149.433 200.868 147.996C200.868 147.996 203.328 146.431 204.637 145.951C205.947 145.472 207.832 144.801 207.8 144.482C207.768 144.162 207.289 144.386 206.235 144.737C205.181 145.089 202.465 146.143 200.676 147.261C200.357 146.431 199.271 141.607 198.887 139.85C198.504 138.093 198.504 136.975 198.312 135.985C197.897 133.844 195.789 129.5 193.617 126.178C191.412 122.856 190.422 121.546 188.601 119.597C186.397 117.297 181.414 112.857 179.21 112.154C176.974 111.451 175.983 111.036 174.194 109.439C173.587 108.832 172.342 108.225 172.278 107.906C172.214 107.586 172.821 106.276 173.236 105.222C173.619 104.168 174.674 101.581 174.194 98.0667C173.747 94.5528 172.406 88.2917 171.926 86.5028C171.447 84.7458 170.553 81.2639 170.457 80.4333C170.329 79.5708 169.818 78.4847 168.764 77.6542C167.742 76.8236 166.751 76.1208 165.218 76.2486C163.685 76.3764 161.864 77.4944 160.586 80.2736C159.308 83.0847 157.839 86.2792 157.168 87.8125C156.753 88.7708 154.325 91.8375 153.079 93.3389C151.865 94.8722 150.396 97.5236 148.575 98.3222C146.754 99.1208 145.828 99.4083 142.921 99.8556C141.356 100.111 139.758 101.133 136.787 101.421C135.637 101.549 132.89 101.165 127.428 101.549C121.965 101.9 119.569 102.06 117.812 102.219C116.024 102.379 114.81 102.699 113.117 100.846C111.424 98.993 101.936 89.6653 100.946 88.6111C99.9875 87.5569 98.1986 84.5542 96.8889 83.5958C95.5791 82.6375 90.8833 79.8583 86.3472 81.743C83.0569 83.4361 79.7666 99.9194 80.7569 109.567C81.2361 113.528 82.6736 116.722 83.2486 117.776C83.8236 118.831 84.3347 120.587 83.4403 121.322C82.5458 122.057 80.15 124.357 77.6903 130.874C76.3805 134.324 76.1569 137.486 76.1889 139.818C76.2208 142.182 76.4444 144.482 76.5403 145.376C76.6361 146.271 76.4764 148.411 74.0805 154.449C71.6847 160.486 68.7458 170.389 68.3625 172.306C67.9792 174.222 66.0625 182.687 65.3278 184.828C64.593 186.968 62.6125 192.91 62.6444 193.964Z" fill="#EBCC6F"/>
<path d="M132.794 216.229C128.546 215.143 127.14 211.853 121.518 212.939C123.562 212.012 123.722 210.894 125.767 211.374C122.636 210.447 118.707 208.562 116.343 208.85C118.867 208.211 118.994 207.125 120.592 207.764C119.026 206.678 116.822 204.633 116.822 202.749C119.026 205.112 123.882 207.444 125.607 207.444C124.042 208.243 124.521 208.531 123.243 208.531C125.894 208.69 132.028 212.779 134.839 210.415C134.679 213.067 139.215 213.706 137.65 216.389C140.781 215.303 141.419 216.549 142.346 215.143C143.592 217.667 147.042 216.549 147.84 218.912C148.767 217.347 149.246 215.462 151.29 214.664C149.725 217.028 151.29 219.04 152.376 220.318C153.015 218.753 154.9 218.433 155.028 216.708C156.433 218.433 157.999 217.794 157.839 219.999C159.085 219.36 160.043 217.187 160.043 214.983C161.449 217.954 167.103 217.635 168.508 219.232C169.147 217.986 171.16 217.028 170.712 215.143C172.757 216.868 174.162 215.303 174.322 216.708C176.974 215.143 179.976 214.057 179.497 211.374C181.542 212.619 182.947 210.735 183.746 213.099C185.311 211.374 188.122 208.722 188.282 206.199C189.081 208.403 189.687 206.678 189.081 209.329C190.806 207.125 196.779 203.356 196.907 199.778C197.706 201.024 197.833 200.257 197.993 201.503C198.472 198.692 199.079 196.168 200.037 194.283C200.964 192.399 204.574 188.789 205.053 175.468C205.053 175.372 205.053 175.244 205.053 175.149C203.2 173.264 200.804 171.124 197.833 168.887C196.012 167.514 197.386 168.312 197.801 168.6C198.185 168.856 201.731 171.539 205.053 174.893C205.117 173.104 205.149 171.507 205.149 170.101C202.721 168.824 200.389 167.833 198.887 167.386C198.185 167.162 197.386 166.619 198.887 167.099C199.622 167.322 202.242 168.44 205.181 169.942C205.181 169.367 205.181 168.792 205.181 168.281C202.912 167.354 200.836 166.651 199.399 166.3C198.504 166.076 197.45 165.437 199.367 165.917C200.101 166.108 202.369 166.907 205.181 168.057C205.181 167.099 205.149 166.236 205.085 165.437C203.743 165.054 202.306 164.671 200.772 164.319C198.057 163.681 199.974 163.872 200.612 164C200.9 164.064 202.689 164.447 205.085 165.182C204.925 162.786 204.637 161.029 204.158 159.368C202.369 159.368 200.453 159.4 198.408 159.56C195.629 159.751 197.514 159.336 198.153 159.304C198.504 159.272 200.9 159.112 204.094 159.144C203.807 158.154 203.456 157.196 203.04 156.142C200.932 156.621 199.079 157.164 197.833 157.675C197.067 157.994 196.044 158.026 197.674 157.387C198.312 157.132 200.389 156.557 202.976 155.982C202.721 155.311 202.401 154.64 202.082 153.874C201.251 151.925 200.517 150.168 199.878 148.507C197.162 150.36 194.511 152.628 193.201 154.129C192.722 154.672 191.956 154.832 192.978 153.81C193.681 153.107 196.396 150.519 199.814 148.283C198.472 144.674 197.61 141.543 197.418 138.061C197.099 132.886 193.042 125.826 189.272 121.897C185.662 118.128 182.181 114.678 178.283 113.432C174.354 112.186 171.447 109.343 171.447 108.097C171.447 106.851 173.492 104.008 173.492 100.271C173.492 96.5013 170.872 81.0402 168.54 78.4847C167.742 77.6222 167.486 77.6541 166.975 77.6541C167.71 77.9736 167.901 79.0597 167.901 79.6986C167.294 78.5805 166.528 78.8041 166.528 78.8041C166.528 78.8041 167.39 79.443 167.326 81.2638C166.751 80.2736 166.272 79.443 165.537 78.9958C165.793 79.5069 166.112 80.3055 166.081 80.9763C165.633 80.1458 164.835 80.1777 164.356 80.3375C164.962 80.4972 165.474 80.9763 165.665 81.6791C165.09 81.2638 164.611 81.3277 164.1 81.4875C164.931 81.6791 165.857 82.9569 165.857 83.5958C165.026 82.8611 164.611 82.7333 164.1 82.893C164.835 83.2763 166.049 85.6402 166.208 88.9944C165.506 88.675 165.346 88.4513 164.835 88.5472C165.378 88.9305 166.336 92.2208 166.049 93.0513C165.537 91.8694 164.515 90.8791 163.493 90.8152C164.196 91.8055 164.483 94.2652 165.25 94.6166C164.228 94.9361 162.343 96.6291 161.449 97.843C160.554 99.0569 162.471 99.9513 163.301 99.7916C164.132 99.6319 165.346 99.9194 165.761 100.303C164.962 100.303 164.611 100.654 164.611 100.654C164.611 100.654 166.049 100.814 166.687 101.517C166.879 100.462 166.911 99.9833 166.624 98.6416C167.294 99.7916 167.422 99.8236 167.358 100.303C167.582 99.4402 168.189 96.8208 167.869 95.543C167.55 94.2972 167.358 93.0194 167.582 92.0291C167.742 92.5722 167.806 92.8916 167.806 93.2111C168.093 92.7638 168.125 92.1569 168.029 91.55C167.965 90.975 168.221 91.1027 168.381 90.4C168.444 92.093 168.157 93.1152 168.029 93.6264C167.901 94.1375 168.828 96.1819 168.86 97.4277C168.892 98.6736 168.732 99.2805 168.54 99.7277C168.987 99.3444 169.211 99.3763 169.435 98.993C169.403 99.6638 168.86 101.421 168.349 101.868C169.019 101.708 169.243 101.9 169.531 101.485C169.499 102.283 169.243 103.274 168.828 103.433C169.467 103.497 169.626 103.433 169.818 103.082C169.754 103.721 169.626 104.392 169.243 104.615C169.978 104.583 170.329 104.775 170.489 105.062C170.01 104.903 169.818 105.222 169.818 105.222C169.818 105.222 170.553 105.542 170.457 106.053C170.074 105.765 169.722 105.925 169.946 106.244C170.169 106.564 170.137 106.66 170.425 106.915C169.786 107.043 169.754 107.267 169.882 107.49C169.371 107.043 169.051 105.701 167.869 105.574C166.687 105.446 165.282 104.903 164.899 104.232C164.515 103.561 163.142 101.708 161.576 101.644C160.011 101.581 160.267 100.75 161.512 100.782C161.385 100.335 160.969 100.239 160.65 100.303C161.097 99.9513 160.842 99.6638 161.353 99.6C160.65 98.9611 159.5 99.7277 159.819 100.494C159.181 100.367 157.647 100.431 157.104 100.622C157.232 100.431 157.104 100.271 157.551 100.207C156.849 100.047 156.401 100.494 155.156 100.558C153.91 100.622 151.322 100.399 150.204 100.718C149.118 101.069 142.506 102.283 139.631 103.306C140.142 102.954 140.717 102.315 139.503 102.858C138.289 103.401 133.433 103.785 131.612 103.146C132.092 103.689 131.932 103.721 132.411 103.944C130.558 103.721 123.243 102.667 120.4 103.465C121.71 103.561 121.454 103.881 122.444 104.04C120.879 104.392 118.931 106.181 117.844 109.215C118.931 108.544 119.41 108.864 119.889 108.321C119.41 109.886 117.11 110.11 116.183 110.972C117.014 111.068 117.237 111.228 116.535 111.707C115.864 112.186 115.385 112.282 114.458 113.496C115.289 113.4 115.768 113.336 115.768 113.336C115.768 113.336 114.522 114.326 113.787 114.422C113.053 114.518 111.903 114.837 111.264 115.987C112.414 115.349 112.733 115.764 113.244 115.508C112.51 116.243 111.999 116.562 111.2 116.722C112.126 117.457 112.765 117.297 113.181 117.201C111.967 117.872 110.944 118.032 110.21 118.607C111.2 118.607 111.519 118.926 111.519 118.926C111.519 118.926 109.156 119.182 108.325 120.14C109.731 119.917 109.826 120.236 109.826 120.236C109.826 120.236 108.165 121.801 107.431 121.29C107.367 121.961 107.494 122.281 107.942 122.6C106.728 122.185 106.376 122.281 106.057 121.929C105.993 122.728 106.408 123.303 106.632 123.59C105.642 123.367 104.971 121.769 103.597 120.971C104.396 122.217 103.757 122.76 103.757 122.76C103.757 122.76 102.862 122.44 102.383 121.546C101.489 122.44 102.703 123.431 101.585 124.485C101.265 123.814 100.914 123.814 100.946 123.335C100.147 123.686 100.211 123.91 100.211 124.325C99.4125 123.271 99.125 122.951 98.7097 122.025C98.2944 121.099 97.7833 120.715 97.1444 120.715C97.5597 121.386 97.4 122.856 96.9847 123.431C96.1542 122.696 97.4958 118.319 92.4486 115.892C93.375 117.106 94.7486 118.862 95.1639 120.747C95.5472 122.632 95.7389 124.581 95.4833 125.762C94.7486 123.686 94.1417 122.472 94.0778 120.556C94.0139 118.639 91.9694 116.914 89.7014 115.349C87.4333 113.783 87.5292 113.144 87.593 112.633C88.4875 113.847 89.7014 114.646 90.8514 115.061C89.7972 113.847 88.2639 112.122 88.2319 111.292C90.0847 112.729 91.3625 113.815 91.65 114.806C92.0014 113.017 91.1069 109.471 89.4139 108.449C90.9792 108.768 93.1194 112.122 93.7903 114.103C93.3111 110.876 91.2667 107.682 89.2861 106.308C87.3055 104.935 87.8167 103.944 86.475 103.178C87.9764 103.433 89.0305 103.817 88.775 102.507C88.5194 101.197 88.9986 100.878 88.1361 100.207C89.4458 100.207 90.8194 100.686 90.0847 101.421C89.35 102.187 89.2861 102.667 89.2542 102.954C89.925 102.315 94.1097 100.718 96.218 101.644C94.7167 101.517 89.8292 102.699 88.6472 104.903C90.5639 102.89 97.0486 102.954 98.3583 104.36C96.5055 104.008 95.7069 106.117 93.5347 106.212C95.1 106.947 97.1444 106.596 98.1347 106.053C99.125 105.51 100.594 105.925 101.393 107.49C102.192 109.056 102.926 109.439 103.661 109.662C102.671 109.822 101.265 109.439 100.754 108.864C100.243 108.321 99.5083 108.385 98.7097 108.512C97.9111 108.64 97.0167 108.065 96.6972 107.362C96.6653 108.353 98.0708 110.301 98.9972 110.685C97.2403 110.11 97.0805 110.11 96.25 109.535C96.9208 110.525 98.55 112.506 101.457 114.422C98.0389 112.761 96.5694 111.899 96.0583 111.164C96.5375 112.665 100.339 114.806 101.936 116.499C103.533 118.192 105.067 119.789 105.578 120.524C106.057 119.981 106.44 119.533 106.312 118.831C106.824 119.342 107.015 119.661 106.856 120.012C107.494 119.086 108.389 118.799 108.069 117.744C108.644 118.192 108.74 118.639 108.74 118.639C108.74 118.639 108.74 117.393 107.75 116.275C106.76 115.189 107.526 114.007 107.814 113.496C107.814 114.582 109.06 115.189 109.124 116.019C109.156 116.85 109.347 117.201 109.347 117.201C109.347 117.201 110.369 116.403 110.242 114.326C110.114 112.25 109.411 111.515 107.782 110.844C109.347 110.972 109.635 111.228 110.018 111.547C108.868 109.822 108.133 108.608 107.207 108.033C108.453 108.417 109.219 109.119 109.219 109.119C109.219 109.119 108.421 107.362 107.175 106.819C105.929 106.276 105.258 105.925 104.939 105.062C106.025 105.957 106.664 105.606 107.335 106.276C106.025 104.519 105.45 103.625 104.236 102.539C103.022 101.485 102.894 100.846 102.799 100.367C103.533 101.261 104.811 102.635 105.61 103.242C104.811 101.453 104.076 100.079 103.022 99.5041C103.757 99.4722 104.076 99.4402 104.364 99.6638C104.14 98.8333 102.607 96.725 102.319 97.3C102.032 97.875 101.968 98.1305 102.16 98.5138C101.489 97.9708 102.192 96.4375 101.649 96.3097C101.106 96.1819 101.074 96.3736 100.946 96.693C100.467 95.9583 99.5722 93.3069 98.3264 93.0833C99.0292 92.8916 98.9653 92.4444 99.5403 92.7958C98.0389 91.7097 97.4958 91.2625 97.1764 90.7833C96.8569 90.3041 96.825 89.9208 96.4417 89.6972C97.0167 89.8569 97.1125 89.7291 97.5278 90.2083C97.1444 89.3458 97.1444 88.4833 96.3778 87.5569C97.4319 88.3555 98.8375 90.0166 99.1889 90.6236C98.5819 90.2722 98.6139 90.4319 98.55 90.3041C98.9333 91.0069 100.083 92.2847 100.499 92.7C100.019 92.5402 100.115 92.7319 99.9236 92.5083C100.275 93.0194 100.914 93.4027 101.265 93.6902C100.914 93.818 100.85 93.7541 100.626 93.6583C101.265 94.2333 101.872 94.8402 102.383 95.2236C102.192 95.4152 101.872 95.3513 101.681 95.3513C102.192 95.8305 103.214 95.8944 103.565 96.5014C103.086 96.4694 102.926 96.5014 102.735 96.3416C103.885 97.268 104.619 97.7152 104.907 98.2263C104.268 98.1625 104.428 98.1944 104.428 98.1944C104.428 98.1944 105.354 99.5361 105.993 100.111C105.482 100.111 105.514 100.303 105.194 100.047C105.514 100.75 105.769 101.037 106.376 101.421C106.025 101.549 105.865 101.549 105.706 101.389C106.025 102.187 107.047 102.379 107.59 102.411C106.951 102.794 106.664 102.699 106.376 102.539C106.76 103.721 108.74 104.392 108.932 105.701C109.571 105.318 109.922 105.382 109.922 104.392C110.561 105.414 110.497 105.765 110.274 106.085C110.689 106.244 111.136 106.212 111.328 105.925C111.008 106.66 110.593 107.139 109.922 107.458C111.104 107.49 111.328 107.267 111.519 106.915C111.551 107.746 111.807 108.321 111.072 108.512C112.414 108.736 113.117 109.343 113.947 109.151C112.957 109.726 111.839 109.471 111.232 110.046C112.094 110.174 112.925 109.662 113.468 110.078C114.011 110.493 114.107 110.94 114.011 111.515C114.586 110.429 115.097 110.014 114.842 109.471C115.704 109.599 116.567 109.087 116.854 108.576C115.832 108.8 115.417 107.682 114.331 107.522C113.276 107.362 112.765 106.149 112.765 106.149C112.765 106.149 113.276 106.819 114.171 106.947C115.065 107.075 116.024 107.746 116.822 107.49C116.279 107.043 116.854 106.181 116.503 105.637C117.685 105.957 117.525 104.487 118.611 104.551C117.11 103.881 114.969 103.657 113.915 103.369C114.299 103.337 114.426 103.21 114.714 103.21C113.692 103.146 112.478 102.539 112.062 101.9C111.615 101.261 111.36 100.526 110.689 100.047C111.168 101.293 110.881 101.644 111.008 102.475C110.114 101.932 110.306 101.389 109.347 100.718C110.369 100.91 110.274 100.686 110.401 101.069C110.21 100.207 109.092 98.45 107.526 98.0986C108.101 98.0986 108.165 97.7472 108.517 97.7791C106.983 97.1402 106.121 96.3416 105.897 95.8625C106.6 96.2139 106.408 95.7347 106.792 96.0541C106.057 95.4152 102.319 91.4222 101.106 90.3041C99.8917 89.1861 99.0292 87.9083 98.2944 86.8222C97.5597 85.7361 95.3555 82.9569 92.1611 82.2861C88.9667 81.6152 88.3597 83.3402 87.3055 83.4361C88.8069 83.9472 90.2764 83.1805 91.1708 83.7555C90.0847 84.1708 89.0944 85.0013 88.3597 84.8097C88.775 85.6083 88.5833 85.9597 89.5736 86.1194C88.5833 86.5347 88.2 87.0458 87.3375 86.6305C87.8486 87.7805 89.4139 88.9944 90.1167 89.3458C87.9764 88.8347 87.4653 89.0902 87.018 88.4194C87.3375 89.5055 89.0944 90.0486 90.1167 90.368C88.4875 90.5916 87.2417 90.0166 86.1555 90.5277C85.0694 91.0388 84.9417 91.3583 84.6542 91.9013C85.5486 91.6458 86.475 91.6458 87.05 92.1569C85.5805 92.2208 84.9097 93.0833 84.4944 93.6583C85.7403 93.1472 87.1139 93.4347 87.625 94.0736C86.2514 94.0097 84.0792 95.2875 83.8236 96.2138C85.2292 95.7027 86.0278 95.9902 86.3792 96.15C85.4847 96.15 83.5042 98.6736 83.3444 99.8555C84.5583 98.7694 85.5805 98.4819 86.3153 99.3764C85.6764 99.2166 83.8555 99.8875 83.5361 101.357C84.2708 101.261 84.9097 101.037 85.1972 101.421C84.6861 101.421 83.3125 101.932 83.3125 102.922C83.3125 103.912 83.0569 104.871 83.5361 105.382C82.8014 105.318 82.45 105.062 82.2264 104.743C82.2903 105.669 83.0569 106.819 83.8875 107.299C82.9611 107.299 82.6417 107.139 82.3222 106.819C82.0028 106.5 81.3958 108.864 82.6736 109.343C83.9833 109.822 84.5583 110.269 85.3889 110.078C84.8139 110.717 83.1528 110.749 82.418 110.429C82.8333 111.324 83.3444 112.058 84.143 112.154C83.2167 112.793 83.0889 112.793 82.6736 112.569C83.025 113.464 84.0472 114.869 84.8139 114.454C84.0792 115.604 84.175 115.924 84.3986 116.978C85.325 116.403 85.868 115.732 86.7944 116.307C85.8042 116.562 85.5805 116.946 85.5805 117.553C86.2194 117.233 87.5292 118.128 88.0403 119.533C87.4014 119.214 87.2097 119.597 86.6667 119.054C87.0819 120.3 89.7653 123.175 90.7555 122.856C91.7458 122.536 93.1194 121.961 91.5542 120.779C92.768 121.035 93.375 121.865 93.6305 122.983C93.8861 124.069 94.3653 126.529 95.1958 127.168C96.0264 127.807 97.8153 128.222 98.4861 126.689C99.1569 125.187 98.9014 125.06 98.7097 124.229C99.7958 125.219 99.5083 126.753 100.914 125.858C102.319 124.964 102.639 124.549 103.565 124.357C101.425 125.858 97.1444 128.637 95.7708 130.426C94.3972 132.215 92.2569 134.324 91.5861 135.282C91.7778 134.579 92.2569 134.292 91.8097 133.429C91.618 134.483 89.7333 136.656 88.9347 137.326C88.9667 137.358 88.9986 137.358 89.0305 137.358C88.0083 137.806 86.1236 138.828 86.2194 140.617C85.293 139.435 82.45 139.115 81.5236 139.69C82.6097 138.668 83.9514 137.806 85.0375 138.189C83.6958 137.39 83.3764 137.326 82.7694 137.806C83.0889 136.624 85.293 135.921 83.4722 134.994C84.4944 134.611 85.5486 132.918 83.8236 132.375C84.75 132.215 86.0278 132.854 86.8583 132.79C87.6889 132.726 89.7972 132.215 90.6278 132.535C89.5736 132.024 87.8167 132.439 86.6986 131.864C85.6125 131.289 83.8875 131.033 82.9292 131.449C83.4083 130.65 83.6639 130.362 84.2389 130.362C83.3125 129.787 83.1528 128.989 83.1528 128.222C83.7917 129.053 84.0472 129.212 84.3986 129.468C83.5042 127.807 83.3444 126.689 83.5042 125.507C83.9833 126.146 84.5903 128.478 85.8042 127.967C87.018 127.456 88.9347 128.031 88.0083 126.337C88.8069 127.168 90.8833 128.861 90.1486 126.657C91.075 127.807 91.1389 128.606 91.65 128.733C90.4042 129.085 88.9986 130.139 89.4458 130.969C88.4555 130.81 86.9222 131.033 86.0917 129.819C86.5069 131.033 91.0111 132.343 91.2028 131.449C91.4264 130.554 92.2569 129.404 93.0236 129.149C93.8222 128.893 93.6625 123.143 92.3847 123.399C91.1389 123.654 89.8292 123.654 88.8708 123.047C90.1167 124.037 90.5 125.028 89.7014 125.028C88.9028 125.028 88.0722 125.028 87.2417 123.814C86.4111 122.6 85.1653 122.153 84.4305 121.578C84.6542 122.951 85.5805 124.453 86.3153 124.708C85.2292 124.804 84.8458 124.612 84.5903 124.229C84.9097 125.379 85.4208 126.274 85.9958 126.433C84.5264 126.082 83.6319 125.06 83.5361 124.197C83.4403 123.303 84.3347 120.587 83.9514 119.406C83.025 116.467 80.6611 113.751 80.6611 105.765C80.6611 97.7791 83.025 82.9569 86.9222 81.9027C90.8514 80.8486 94.493 82.5736 96.4736 84.2027C98.4542 85.8319 98.9333 87.7166 101.169 89.793C103.406 91.8694 111.999 100.622 113.149 101.804C114.299 102.986 115.768 102.89 117.174 102.699C118.579 102.475 132.219 101.517 135.062 101.836C137.874 102.156 141.164 100.494 142.825 100.271C144.486 100.047 148.862 99.4083 150.587 96.8847C152.312 94.3611 156.465 89.2819 157.104 88.1C157.743 86.918 160.394 79.5388 162.279 77.9097C164.164 76.2486 165.729 76.2486 167.231 77.1111C168.732 77.9736 169.818 78.9958 170.042 80.7847C170.265 82.5736 174.29 95.9902 173.715 101.261C173.172 106.5 170.649 107.778 172.214 108.64C173.779 109.503 175.281 111.611 178.283 112.346C181.318 113.081 187.356 118.926 189.432 121.131C191.508 123.335 197.61 132.854 197.929 136.815C198.121 139.275 199.111 143.939 200.261 147.74C201.603 146.91 203.04 146.111 204.51 145.568C208.343 144.067 208.215 144.354 204.446 145.792C203.2 146.271 201.762 147.037 200.325 147.996C201.028 150.232 201.762 152.181 202.465 153.139C202.912 153.778 203.328 154.64 203.711 155.726C207.225 154.992 211.41 154.385 214.381 154.608C219.524 155.024 218.981 155.183 213.965 154.864C211.058 154.672 207.193 155.183 203.775 155.886C204.094 156.844 204.382 157.931 204.637 159.112C209.365 159.208 215.562 159.783 219.619 161.828C225.369 164.735 222.431 163.489 219.14 161.892C216.585 160.614 211.697 159.496 204.669 159.368C205.053 161.221 205.34 163.265 205.532 165.406C210.164 166.811 216.776 169.303 220.386 172.753C225.05 177.225 222.59 175.181 219.907 172.657C217.703 170.581 212.943 167.897 205.532 165.693C205.596 166.587 205.66 167.514 205.692 168.44C209.653 170.101 214.444 172.401 217.447 174.669C222.462 178.471 221.856 178.247 216.904 174.637C213.933 172.465 209.589 170.261 205.692 168.664C205.724 169.239 205.724 169.846 205.724 170.421C208.247 171.762 210.899 173.328 212.656 174.861C216.425 178.087 215.946 177.896 212.24 174.797C210.515 173.36 208.119 171.858 205.724 170.581C205.724 171.794 205.66 172.976 205.564 174.094C205.532 174.606 205.468 175.085 205.436 175.596C207.257 177.512 208.918 179.589 209.876 181.569C212.112 186.233 210.867 183.997 209.557 181.346C208.886 179.972 207.544 178.087 205.404 175.851C204.797 182.975 203.967 190.482 200.006 195.657C198.632 197.446 199.91 203.196 200.421 204.026C200.932 204.857 201.475 206.103 201.475 206.103C201.475 206.103 199.079 202.876 196.46 204.729C193.01 207.189 184.544 214.728 182.819 216.453C183.299 213.929 183.139 212.683 179.529 215.814C175.919 218.944 160.394 226.164 139.854 224.279C146.115 223.64 145.029 223.481 145.828 222.874C142.857 223.033 135.478 221.149 133.912 220.222C132.347 219.296 131.261 217.699 127.811 218.817C129.504 217.347 131.229 216.101 132.794 216.229Z" fill="#442A14"/>
<path d="M89.1902 137.39C89.5736 137.231 89.8291 137.167 89.8291 137.167C89.8291 137.167 89.6694 137.582 89.1902 137.39Z" fill="#442A14"/>
<path d="M126.693 143.236C126.885 144.035 128.546 145.408 128.897 145.856C129.249 146.303 129.408 146.59 130.303 146.782C131.197 146.974 130.686 147.836 131.485 147.804C132.283 147.772 132.539 148.028 133.178 147.996C133.817 147.964 134.264 148.283 134.487 148.539C134.679 148.826 135.574 148.667 136.149 148.539C136.692 148.411 136.628 148.028 135.062 147.485C133.497 146.942 132.699 147.421 131.165 146.494C128.61 144.993 128.035 143.524 127.939 142.885C127.875 142.246 128.45 142.15 128.929 143.044C129.408 143.939 130.079 144.194 131.133 145.632C132.187 147.069 136.436 146.974 137.874 146.974C139.311 146.974 138.193 146.143 138.097 145.568C138.001 144.993 139.151 144.642 139.119 142.821C139.087 141.032 138.129 139.435 137.969 138.7C137.81 137.965 136.596 138.349 136.532 138.924C136.468 139.499 136.372 139.786 135.989 139.307C135.606 138.828 134.807 138.572 134.487 138.221C134.168 137.869 134.519 137.358 135.286 137.326C136.021 137.294 137.522 137.199 137.139 136.624C136.756 136.049 137.107 136.112 138.001 136.272C138.896 136.432 140.461 137.646 141.931 139.531C143.368 141.415 143.304 143.332 142.41 144.929C141.515 146.526 138.161 147.644 137.394 147.868C136.596 148.092 136.468 148.507 137.011 148.539C137.554 148.571 137.65 148.922 138.672 148.379C139.694 147.836 142.282 147.644 143.464 146.942C144.646 146.239 145.924 146.079 146.499 146.015C146.307 144.642 146.914 144.162 147.585 144.29C147.744 144.322 147.425 143.236 146.914 142.789C146.594 142.693 146.467 142.406 147.01 142.501C147.553 142.597 148.575 142.086 146.914 141.799C145.253 141.511 146.562 140.936 147.201 140.521C147.84 140.106 147.712 139.818 146.978 139.818C146.243 139.818 145.412 140.01 145.444 138.892C145.476 137.774 144.231 138.317 143.24 137.806C142.25 137.294 140.653 135.569 139.726 134.867C138.8 134.196 137.778 133.94 135.893 134.004C134.008 134.068 132.794 134.994 132.092 135.537C131.389 136.081 130.367 136.017 129.856 136.112C129.344 136.24 127.619 138.86 126.821 139.626C126.022 140.425 125.575 141.16 125.575 141.703C125.447 142.31 126.501 142.469 126.693 143.236ZM143.592 144.482C143.783 144.162 144.518 144.003 144.678 144.258C144.837 144.514 144.901 144.705 144.199 145.185C143.432 145.696 142.154 146.079 142.697 145.44C143.208 144.897 143.336 144.865 143.592 144.482ZM132.635 138.892C132.635 138.668 132.826 138.317 133.21 138.349C133.689 138.381 133.785 138.636 133.785 138.892C133.785 139.179 133.465 139.371 133.21 139.307C132.954 139.275 132.635 139.115 132.635 138.892Z" fill="#442A14"/>
<path d="M183.107 135.825C183.139 135.442 182.436 135.282 182.276 134.803C182.117 134.324 181.989 133.653 181.574 133.461C181.126 133.269 180.871 133.429 180.999 134.036C181.126 134.675 181.19 136.112 180.136 137.135C179.082 138.157 178.411 138.189 178.922 137.358C179.433 136.528 179.912 135.154 179.785 133.908C179.657 132.662 178.954 131.608 178.571 131.001C178.187 130.426 177.421 129.34 176.814 129.117C176.175 128.893 176.526 128.733 177.293 128.797C178.028 128.861 179.21 129.692 179.721 130.682C180.232 131.672 180.232 131.672 180.36 132.024C180.487 132.375 182.308 133.461 181.446 131.896C180.967 131.033 179.753 128.606 178.635 127.456C177.485 126.306 176.207 126.369 175.376 126.369C174.546 126.369 172.821 126.912 172.661 127.296C172.501 127.679 171.958 128.222 171.447 128.19C170.936 128.158 170.808 128.382 170.904 128.669C170.968 128.957 171.256 129.372 170.712 129.532C170.169 129.692 171.287 130.906 170.585 130.874C169.882 130.842 169.083 129.979 169.147 130.65C169.179 131.321 170.201 134.1 170.712 134.962C171.224 135.825 172.469 138.349 174.354 139.658C176.239 141 179.05 141.543 179.529 141.16C180.008 140.776 179.337 140.297 179.242 140.01C179.178 139.722 179.05 139.499 178.028 139.531C177.006 139.562 176.303 139.403 175.249 139.339C174.194 139.275 173.843 138.796 173.556 138.444C173.268 138.093 174.099 138.604 174.769 138.732C175.44 138.86 175.983 139.115 176.718 139.019C177.453 138.892 178.603 138.157 179.018 138.444C179.433 138.732 180.008 139.275 180.072 139.818C180.136 140.361 180.551 140.617 180.743 139.946C180.935 139.275 180.903 138.86 181.318 138.764C181.765 138.7 182.181 138.253 182.053 137.774C181.925 137.294 182.244 137.199 182.724 137.135C183.203 137.103 183.203 136.943 182.787 136.751C182.436 136.592 183.075 136.24 183.107 135.825ZM173.332 132.024C173.268 132.503 172.597 132.726 172.406 132.407C172.182 132.056 172.214 132.375 171.767 131.832C171.319 131.289 171.543 130.842 171.958 130.778C172.406 130.714 172.885 130.554 173.172 130.937C173.46 131.289 173.428 131.544 173.332 132.024ZM175.664 131.864C175.664 132.183 175.376 132.407 175.217 132.343C175.057 132.279 174.769 132.056 174.737 131.768C174.706 131.481 174.801 131.225 175.121 131.257C175.408 131.257 175.664 131.512 175.664 131.864ZM177.229 132.024C176.974 132.183 176.782 131.449 176.335 131.353C175.887 131.225 175.664 130.778 175.824 130.362C176.015 129.947 176.59 129.564 177.229 130.394C177.708 131.001 177.581 131.8 177.229 132.024Z" fill="#442A14"/>
<path d="M145.796 180.835C146.435 180.388 146.594 180.26 146.626 179.908C146.626 180.26 146.818 180.388 146.626 180.643C147.106 180.451 148.032 179.653 148.192 179.206C148.383 180.1 148.767 180.547 148.415 181.09C148.926 180.931 149.565 180.451 149.725 179.94C150.012 179.813 150.396 179.397 150.396 179.397C150.396 179.397 150.619 180.324 150.364 180.707C150.875 180.419 151.194 180.643 151.194 180.324C151.162 180.899 151.322 180.899 151.322 180.899C151.322 181.346 150.939 182.304 150.46 182.592C149.981 182.879 149.981 182.879 149.757 183.263C149.406 182.943 149.437 182.783 149.469 182.432C148.767 182.4 147.074 182.656 146.754 182.272C146.435 181.889 146.562 181.474 145.86 181.442C145.125 181.378 145.157 181.282 145.796 180.835Z" fill="#442A14"/>
<path d="M176.399 172.849C176.239 173.168 176.015 173.424 175.919 173.743C175.856 174.062 175.121 173.583 175.121 173.104C175.121 172.625 175.344 172.433 175.6 172.465C175.824 172.497 176.111 172.178 176.239 171.922C176.494 171.315 177.421 170.9 177.325 171.603C177.261 172.305 178.187 171.89 178.411 172.433C178.635 172.976 178.986 172.785 179.082 173.136C179.146 173.487 179.912 173.2 179.944 173.008C179.976 172.817 180.424 173.168 180.424 172.657C180.424 172.146 180.647 172.337 180.775 172.529C180.903 172.721 181.574 172.369 181.574 172.88C181.574 173.392 181.031 173.2 180.871 173.328C180.711 173.455 180.296 173.36 180.136 173.615C179.976 173.839 179.944 174.446 179.593 174.446C179.242 174.446 179.561 173.807 179.114 173.743C178.699 173.679 178.411 173.328 178.187 173.424C177.964 173.519 177.836 173.999 178.124 174.094C178.411 174.19 178.251 174.829 178.251 175.085C178.251 175.308 177.549 175.979 177.708 175.276C177.868 174.574 177.74 173.775 177.485 173.711C177.229 173.647 177.037 173.999 176.974 174.222C176.91 174.446 176.335 174.382 176.271 174.222C176.207 174.062 176.431 173.711 176.558 173.647C176.686 173.583 176.558 173.232 176.686 173.104C176.718 172.976 176.558 172.529 176.399 172.849Z" fill="#442A14"/>
<path d="M175.185 175.18C174.897 175.564 174.386 175.819 174.386 175.244C174.386 174.701 173.907 174.765 173.747 174.605C173.587 174.446 173.747 173.711 174.226 173.775C174.706 173.839 175.121 173.967 175.217 174.254C175.312 174.605 176.079 174.605 175.887 174.957C175.696 175.34 175.472 174.797 175.185 175.18Z" fill="#442A14"/>
<path d="M173.172 171.347C172.789 171.635 172.469 171.124 172.693 170.9C172.917 170.708 173.492 170.549 173.492 170.549C173.811 170.421 174.546 170.612 174.578 171.028C174.61 171.411 174.386 171.571 174.578 171.73C174.769 171.89 174.993 172.305 174.578 172.369C174.131 172.401 174.386 171.89 174.099 171.73C173.843 171.603 173.587 171.092 173.172 171.347Z" fill="#442A14"/>
<path d="M172.437 173.679C172.278 173.519 172.118 172.625 172.118 172.625C172.15 172.082 172.565 172.178 172.597 172.433C172.629 172.689 172.406 173.328 172.789 173.36C173.172 173.392 173.683 173.296 173.46 173.583C173.236 173.903 172.597 173.839 172.437 173.679Z" fill="#442A14"/>
<path d="M171.575 176.139C171.383 176.362 171.032 176.842 170.744 176.682C170.457 176.522 170.393 175.308 171.032 175.276C171.415 175.244 171.767 175.915 171.575 176.139Z" fill="#442A14"/>
<path d="M170.872 169.079C170.361 169.015 170.393 168.025 170.872 168.057C171.351 168.089 171.703 168.025 171.862 167.833C172.022 167.642 172.342 167.961 172.278 168.153C172.246 168.344 172.661 168.664 172.661 168.664C172.981 168.664 173.236 168.696 173.236 169.047C173.236 169.399 173.044 169.75 172.501 169.718C171.958 169.686 172.501 168.824 172.054 168.855C171.671 168.887 171.383 169.143 170.872 169.079Z" fill="#442A14"/>
<path d="M171.032 170.101C171.575 170.133 171.607 170.421 171.607 170.676C171.607 170.964 171.287 171.219 171.096 170.9C170.904 170.58 170.808 170.676 170.521 170.612C170.201 170.612 170.329 170.069 171.032 170.101Z" fill="#442A14"/>
<path d="M169.467 173.551C168.987 173.424 168.636 173.104 168.732 172.817C168.828 172.529 169.435 172.465 169.818 172.497C170.106 172.529 170.553 172.881 170.489 173.328C170.393 173.743 169.946 173.679 169.467 173.551Z" fill="#442A14"/>
<path d="M167.901 169.111C168.381 169.143 168.604 169.494 168.604 169.814C168.604 170.133 168.125 170.389 167.678 170.325C167.199 170.261 167.039 169.974 167.135 169.622C167.231 169.271 167.901 169.111 167.901 169.111Z" fill="#442A14"/>
<path d="M166.017 172.018C166.464 172.401 166.656 172.242 166.656 172.242C167.135 172.305 167.326 172.817 167.358 173.136C167.39 173.455 166.815 173.264 166.783 173.647C166.751 174.03 166.272 173.711 166.272 173.455C166.272 173.168 165.569 173.392 165.633 173.072C165.697 172.753 165.761 172.593 165.474 172.497C165.186 172.369 165.569 171.635 166.017 172.018Z" fill="#442A14"/>
<path d="M164.324 167.865C164.132 167.482 163.94 166.428 164.867 167.067C165.154 167.29 165.442 167.769 165.218 167.929C164.994 168.089 164.515 168.249 164.324 167.865Z" fill="#442A14"/>
<path d="M163.397 171.187C163.876 171.379 164.26 172.369 163.908 172.497C163.557 172.625 163.206 172.785 162.886 172.561C162.567 172.369 162.886 171.922 162.694 171.667C162.503 171.411 163.078 171.092 163.397 171.187Z" fill="#442A14"/>
<path d="M161.417 166.683C160.937 166.524 160.874 166.108 161.193 165.885C161.512 165.661 161.896 165.853 161.896 165.853C162.311 165.917 162.631 166.172 162.599 166.779C162.567 167.418 161.928 167.418 161.704 167.29C161.449 167.194 161.896 166.843 161.417 166.683Z" fill="#442A14"/>
<path d="M158.446 166.012C158.478 165.789 158.957 165.533 158.957 165.533C159.181 165.661 159.436 166.364 159.085 166.46C158.733 166.556 158.414 166.268 158.446 166.012Z" fill="#442A14"/>
<path d="M155.89 166.14C155.826 165.917 156.018 165.501 156.401 165.597C156.785 165.661 156.912 166.076 156.721 166.172C156.529 166.3 155.986 166.364 155.89 166.14Z" fill="#442A14"/>
<path d="M157.232 170.453C157.551 170.453 157.743 170.517 157.487 170.804C157.232 171.124 156.912 171.028 156.817 170.868C156.689 170.708 156.944 170.453 157.232 170.453Z" fill="#442A14"/>
<path d="M167.997 176.778C167.774 176.299 166.943 176.554 167.007 176.107C167.071 175.628 167.582 175.181 167.678 174.861C167.774 174.542 168.349 174.35 168.317 174.925C168.253 175.5 167.901 175.755 168.253 175.851C168.892 176.043 169.658 175.756 169.243 176.426C168.828 177.097 168.189 177.257 167.997 176.778Z" fill="#442A14"/>
<path d="M166.719 179.174C166.496 178.95 166.719 178.599 167.039 178.343C167.326 178.119 167.869 178.567 167.71 178.918C167.582 179.301 166.943 179.397 166.719 179.174Z" fill="#442A14"/>
<path d="M165.474 175.947C165.41 176.299 166.049 176.267 166.112 176.778C166.176 177.289 166.017 177.928 165.601 177.768C165.186 177.608 164.962 177.033 164.962 176.682C164.962 176.331 164.899 176.043 164.611 175.947C164.292 175.851 164.387 175.468 164.675 175.436C164.994 175.34 165.537 175.564 165.474 175.947Z" fill="#442A14"/>
<path d="M145.668 184.604C146.179 184.221 146.658 184.381 147.872 184.285C147.233 184.572 147.074 185.211 146.339 185.658C147.201 185.658 147.585 185.275 148.639 184.636C149.054 184.381 149.342 184.381 149.533 184.476C148.447 186.553 147.617 188.693 147.233 190.642C146.051 196.999 146.85 193.9 147.553 190.29C147.84 188.853 148.543 186.904 149.725 184.604C149.917 184.828 150.012 185.211 150.076 185.531C150.619 185.083 151.322 185.818 151.322 185.818C151.322 185.818 150.012 186.489 150.396 187.383C150.715 187.064 151.035 186.936 151.354 186.936C150.971 187.767 150.683 188.597 150.46 189.332C149.15 193.932 149.501 193.517 150.843 189.044C151.035 188.374 151.29 187.671 151.61 186.968C152.217 187.064 152.887 187.479 153.686 187.575C152.856 187.735 151.482 188.821 151.801 189.619C152.664 188.469 154.517 188.725 155.571 188.757C155.156 189.044 154.421 189.3 153.622 189.396C154.421 189.747 155.219 189.619 156.082 189.364C156.944 189.076 158.19 189.556 157.679 189.843C157.168 190.131 155.219 190.546 155.219 190.546C155.219 190.546 156.018 190.897 156.817 190.674C157.647 190.45 157.647 189.939 158.893 190.194C158.254 190.322 157.711 190.578 157.871 191.696C158.574 190.993 159.276 191.057 160.299 190.833C161.321 190.61 162.024 189.747 162.024 189.747C162.024 189.747 160.682 189.971 159.947 190.162C159.212 190.354 159.212 189.108 159.212 189.108C159.212 189.108 158.286 189.268 157.456 188.789C157.935 188.661 157.903 188.757 158.318 188.086C157.679 188.374 156.593 188.597 155.699 188.086C156.401 188.054 156.849 187.415 157.392 187.383C157.072 187.192 156.817 187.192 156.337 187.351C155.858 187.511 155.283 187.351 154.229 187.192C154.612 187 155.092 186.681 155.922 186.681C155.539 186.489 154.868 186.393 154.133 186.617C153.399 186.808 152.536 186.776 152.376 186.393C152.217 186.01 152.664 185.914 152.728 185.115C152.632 185.339 152.504 185.467 152.376 185.531C152.728 184.764 153.143 183.997 153.558 183.262C153.622 183.422 153.654 183.71 153.622 184.029C153.59 184.668 153.654 185.626 154.197 185.626C154.74 185.626 154.037 184.987 154.612 184.54C155.187 184.061 155.986 184.317 156.497 183.997C157.008 183.678 157.328 183.294 157.583 183.167C157.871 183.039 158.318 183.678 157.424 184.189C156.529 184.7 155.635 185.211 155.251 185.722C156.05 186.233 157.008 185.85 157.328 185.435C157.647 185.051 158.35 184.381 158.765 184.029C159.149 184.54 159.308 185.531 158.797 185.914C158.286 186.297 157.392 186.233 157.04 186.968C157.743 186.681 159.404 186.169 159.915 186.744C159.915 185.818 159.787 183.869 161.001 183.933C162.215 183.965 162.918 184.86 162.215 185.722C161.512 186.585 161.481 187.064 161.001 187.064C161.225 187.287 161.512 187.256 161.864 187.735C162.439 187.415 162.694 186.712 162.886 186.01C163.174 186.585 163.429 187.703 163.174 188.597C163.908 188.086 164.835 187 165.41 186.936C165.058 187.607 165.058 187.99 165.154 188.342C165.633 187.607 167.518 187.128 166.719 186.457C165.921 185.786 165.154 185.562 165.569 184.732C165.985 183.901 166.4 183.901 166.4 183.901C166.4 183.901 166.56 186.106 168.221 186.553C167.646 185.626 167.135 184.253 167.71 183.774C168.285 183.294 169.019 182.783 169.083 184.349C169.147 185.914 169.658 186.233 169.658 186.233C169.658 186.233 169.562 184.412 170.649 183.71C171.735 183.039 172.597 183.614 171.543 184.381C170.489 185.179 170.169 185.946 170.074 186.617C170.872 185.818 171.287 185.371 171.894 184.987C172.533 184.636 172.501 185.179 172.246 185.882C171.99 186.617 171.16 187.032 171.16 187.032C171.16 187.032 174.035 186.042 174.674 185.051C175.025 185.531 175.153 186.042 174.737 186.521C176.047 185.626 176.718 185.211 176.622 184.221C177.101 184.317 177.197 184.476 177.868 183.901C177.549 184.572 176.878 185.211 176.942 186.137C177.517 185.786 178.187 185.083 178.187 185.083C178.187 185.083 177.517 185.914 177.676 186.553C178.475 186.393 178.731 186.201 178.762 185.754C179.242 186.489 179.817 186.425 179.657 187C180.168 185.85 178.986 184.476 180.647 183.199C181.701 182.464 181.893 182.272 181.478 183.294C181.062 184.349 180.264 185.531 180.967 186.425C181.637 187.319 182.787 187.735 183.267 187.735C182.436 186.808 181.701 186.649 181.606 185.754C181.51 184.86 181.701 184.381 182.276 185.083C182.851 185.754 183.171 186.585 183.682 186.872C184.193 187.128 184.768 187.351 184.768 187.351C184.768 187.351 183.969 186.84 183.842 186.425C183.682 186.01 183.522 183.806 184.832 184.924C184.608 184.125 185.631 183.933 185.886 184.604C185.95 183.806 185.79 182.464 186.685 182.24C187.1 182.879 187.356 183.869 187.004 184.381C187.835 183.582 188.41 183.167 188.09 182.432C188.601 182.656 188.921 182.368 189.081 182.783C189.4 182.049 189.4 181.41 188.985 180.994C189.879 180.771 190.039 179.429 190.486 179.94C190.997 179.11 189.975 178.726 190.167 177.96C190.39 177.161 189.528 177.033 188.921 176.331C188.282 175.66 188.665 174.829 188.09 174.669C187.515 174.51 187.739 175.66 187.26 175.596C186.781 175.532 185.631 175.692 184.96 175.436C184.289 175.181 183.65 176.235 183.139 175.66C182.628 175.085 182.915 174.925 183.458 174.031C183.969 173.136 183.522 172.561 184.449 172.082C185.375 171.603 186.397 172.242 185.758 172.753C185.119 173.264 184.193 173.999 184.289 174.733C184.768 174.414 185.694 173.232 186.237 173.583C186.749 173.935 187.132 174.158 187.324 174.637C187.483 173.999 186.812 173.264 186.525 172.433C186.269 171.603 186.781 172.274 187.164 172.657C187.515 173.008 188.889 174.446 189.528 174.797C190.167 175.149 190.039 175.596 190.358 176.203C190.678 176.842 191.093 176.522 191.189 176.203C191.285 175.883 190.55 174.574 189.719 173.903C188.889 173.232 187.483 172.274 187.196 171.539C186.94 170.804 186.461 170.549 185.886 170.644C185.311 170.74 185.726 170.325 185.95 169.974C186.174 169.622 186.461 169.047 186.781 169.494C187.1 169.974 187.579 171.379 188.569 172.114C189.56 172.849 189.4 173.104 189.975 173.519C190.55 173.935 191.604 175.5 191.764 175.915C192.115 175.66 191.285 173.136 189.208 171.251C190.422 171.986 191.987 172.721 192.562 173.647C192.562 172.433 190.326 171.187 189.847 170.453C189.368 169.718 189.368 169.207 188.953 169.367C188.537 169.526 188.218 170.261 187.962 169.431C187.707 168.6 188.058 167.769 188.697 168.057C189.336 168.376 190.167 168.951 190.837 169.782C191.508 170.612 192.083 171.156 192.211 170.293C192.339 169.431 192.051 170.037 191.221 169.303C190.39 168.568 189.496 167.642 189.975 167.514C190.454 167.418 191.476 169.143 192.051 169.335C192.626 169.558 193.712 169.431 192.626 168.824C191.54 168.185 190.646 166.939 190.231 166.619C189.815 166.3 188.921 166.683 188.282 167.418C187.643 168.153 185.567 169.782 187.292 167.897C189.017 166.012 189.24 165.246 189.751 165.278C190.262 165.342 190.901 165.693 191.412 166.492C191.924 167.29 192.147 167.322 192.658 167.482C193.169 167.642 192.243 167.226 192.083 166.843C191.924 166.492 190.678 165.054 190.262 164.799C189.847 164.543 190.326 164.224 190.614 163.489C190.933 162.754 191.189 162.403 191.189 162.403C191.189 161.54 190.55 161.221 189.847 162.083C189.144 162.946 186.94 162.786 186.078 161.924C185.311 161.157 184.928 159.911 185.471 159.304C185.535 159.208 185.694 159.304 185.662 159.4C185.375 160.901 187.068 162.211 187.931 161.924C188.857 161.604 188.793 159.719 189.592 159.4C190.39 159.081 191.253 157.994 190.837 156.812C190.454 155.631 189.176 150.839 182.276 150.839C175.376 150.839 172.853 152.947 171.383 153.906C169.882 154.832 167.071 156.174 167.614 157.196C168.157 158.218 169.339 161.508 168.86 161.732C168.381 161.956 169.722 163.297 169.083 163.297C168.444 163.297 167.582 164.479 168.54 164.703C169.467 164.926 170.649 165.885 170.425 165.342C170.201 164.799 169.722 163.553 170.361 163.776C171 164 171.926 165.501 171.383 165.661C170.84 165.821 170.137 165.885 170.042 166.46C169.946 167.035 170.585 166.939 171.224 166.619C171.862 166.3 174.993 166.939 175.376 167.961C175.76 168.983 176.399 170.069 175.76 170.006C175.121 169.942 175.121 171.411 176.143 170.868C177.165 170.325 176.526 169.782 177.165 169.686C177.804 169.622 178.187 168.824 178.826 169.047C179.465 169.271 178.028 169.75 178.347 169.91C178.667 170.069 178.411 171.411 179.274 171.315C180.136 171.251 179.497 170.229 180.136 170.069C180.775 169.91 180.999 170.229 180.999 170.708C180.999 171.187 181.861 170.772 182.021 170.549C182.181 170.325 182.724 170.612 182.724 171.411C182.724 172.21 181.861 175.724 181.158 175.787C180.456 175.851 180.456 175.308 180.296 174.861C180.136 174.382 180.615 176.107 179.912 176.267C179.21 176.426 178.507 176.426 178.251 175.883C178.028 175.34 177.772 176.426 177.772 176.969C177.772 177.512 176.207 178.311 176.207 177.129C176.207 175.947 175.887 178.471 174.642 178.471C173.396 178.471 171.831 178.631 169.69 179.972C167.582 181.314 166.943 180.771 167.167 181.474C167.39 182.176 165.761 182.56 165.601 182.017C165.442 181.474 164.739 180.994 164.356 181.793C163.972 182.592 163.174 184.061 162.854 183.901C162.535 183.742 162.599 182.943 162.471 182.751C162.343 182.56 161.225 182.432 160.714 182.592C160.778 182.208 160.458 181.346 158.126 182.304C158.19 181.41 158.094 180.962 156.657 181.474C155.219 181.985 154.9 182.304 155.858 180.962C155.124 181.186 154.9 181.346 154.389 181.474C155.858 179.078 157.424 176.906 158.574 175.66C159.085 175.085 159.468 174.222 158.35 175.436C157.807 176.043 155.954 178.567 154.133 181.506C154.101 181.506 154.037 181.537 154.006 181.537C154.357 181.026 154.133 180.324 154.133 180.324C154.133 180.324 153.494 180.739 153.399 181.154C153.047 180.675 152.664 179.589 152.153 180.451C151.642 181.314 150.587 182.815 150.715 183.39C150.843 183.965 152.632 183.199 153.079 183.007C153.175 182.943 153.271 182.943 153.335 182.975C152.856 183.774 152.408 184.604 152.025 185.435C151.833 185.403 151.642 185.211 151.514 184.892C151.354 185.562 150.715 184.892 150.651 184.349C150.428 184.572 150.14 184.476 149.853 184.253C151.61 180.899 154.389 176.778 158.414 172.178C158.861 171.667 159.117 171.347 159.244 171.187C159.244 171.219 159.276 171.283 159.308 171.315C159.532 171.571 159.819 171.635 160.299 171.667C160.778 171.731 160.49 170.581 159.979 170.517C159.468 170.453 159.244 170.772 159.212 171.028C159.021 171.156 158.574 171.571 158.35 171.794C157.903 172.274 152.856 177.992 149.629 184.093C149.469 183.901 149.278 183.71 149.15 183.486C148.799 183.614 147.297 183.518 146.371 183.678C146.658 183.518 146.531 183.358 147.265 182.879C146.083 183.071 145.668 183.742 145.668 184.604ZM181.478 168.153C181.478 166.843 181.574 164.447 181.893 163.553C182.212 162.658 182.564 162.818 182.532 163.617C182.5 164.256 182.212 165.757 182.308 166.843C182.404 167.929 182.66 170.037 182.308 169.878C181.957 169.718 179.785 169.654 178.06 168.408C177.485 167.993 181.478 169.462 181.478 168.153ZM180.679 160.167C180.487 159.56 179.529 157.707 178.156 157.228C177.485 157.004 177.932 156.94 178.507 157.132C178.858 157.26 180.008 157.899 180.551 158.953C180.935 159.687 181.062 160.358 180.935 160.71C180.839 161.061 180.583 161.54 180.487 161.317C180.36 161.061 180.871 160.742 180.679 160.167ZM174.993 164.032C176.175 163.84 177.037 163.329 177.037 163.329C177.868 162.818 178.411 162.115 178.539 162.243C178.699 162.339 178.507 162.531 178.507 162.722C178.475 162.914 178.699 163.201 179.082 162.658C179.433 162.147 180.264 161.285 179.753 162.371C179.274 163.457 178.06 164.287 177.197 164.511C176.335 164.735 176.654 165.406 175.281 165.374C173.939 165.342 173.811 164.224 174.993 164.032ZM173.204 160.518C173.747 159.272 174.003 158.058 174.674 157.707C175.664 157.164 177.293 156.972 176.399 157.483C175.504 157.994 174.035 158.697 174.194 160.007C174.354 161.317 173.715 161.956 172.31 162.147C170.904 162.371 170.01 161.732 169.786 160.774C169.562 159.847 169.051 157.739 170.457 158.058C171.256 158.25 170.457 159.112 170.617 160.007C170.776 160.901 170.84 161.668 171.511 161.572C172.182 161.476 172.885 161.253 173.204 160.518ZM184.672 156.653C185.151 156.237 185.439 156.014 186.174 155.439C186.908 154.864 188.122 154.704 188.889 155.311C189.656 155.918 189.528 156.717 189.368 156.717C189.208 156.717 189.368 156.397 189.049 156.078C188.729 155.758 186.908 155.151 185.95 156.749C185.662 157.228 186.046 157.803 185.662 158.09C185.311 158.346 185.311 157.739 184.992 157.515C184.672 157.324 184.353 156.94 184.672 156.653ZM183.874 165.501C183.874 164.287 184.097 162.946 184.225 163.904C184.353 164.894 184.321 166.971 184.321 167.769C184.289 168.568 183.874 168.792 183.842 167.674C183.778 166.587 183.874 165.501 183.874 165.501ZM177.133 155.279C175.504 155.758 173.939 156.844 173.364 157.1C172.789 157.356 173.875 155.631 174.674 155.375C175.472 155.119 176.335 154.8 175.919 154.544C175.504 154.289 175.504 153.299 176.335 153.299C177.165 153.299 178.379 152.947 178.539 152.5C178.699 152.085 180.424 151.19 180.487 151.669C180.551 152.149 178.826 153.394 179.593 153.49C180.392 153.586 181.062 151.989 181.478 152.181C181.893 152.404 180.743 153.394 181.797 153.171C182.851 152.947 183.426 151.925 183.618 152.244C183.842 152.564 183.842 152.564 183.842 152.564C183.842 152.564 183.522 153.458 184.896 153.299C186.269 153.139 186.557 152.372 187.132 152.564C187.707 152.787 188.058 152.979 188.537 153.299C188.985 153.618 189.783 154.8 188.889 154.289C187.994 153.778 186.333 153.714 183.81 154.193C181.094 154.704 178.762 154.832 177.133 155.279ZM172.118 181.122C173.46 181.122 177.229 181.058 180.392 180.228C183.554 179.397 185.95 177.96 185.95 177.96C186.589 177.608 189.049 176.171 187.803 177.449C186.557 178.758 184.417 180.164 179.689 181.09C174.929 182.017 172.661 181.793 171.862 181.633C171.032 181.474 170.808 181.122 172.118 181.122Z" fill="#442A14"/>
<path d="M195.054 169.526C194.671 169.271 194.479 168.76 195.214 169.335C195.949 169.91 199.622 172.881 201.603 176.267C203.008 178.662 202.817 178.631 201.475 176.267C200.133 173.903 196.779 170.676 195.054 169.526Z" fill="#442A14"/>
<path d="M189.336 200.033C189.112 197.318 187.387 193.006 186.301 191.249C186.046 190.865 186.078 190.322 186.525 191.121C186.972 191.951 189.049 196.168 189.464 200.097C189.719 202.844 189.592 202.717 189.336 200.033Z" fill="#442A14"/>
<path d="M176.303 197.254C176.622 198.212 178.219 203.164 178.028 207.604C177.9 210.735 177.772 210.575 177.932 207.508C178.092 204.442 176.942 199.426 176.079 197.35C175.887 196.871 175.983 196.296 176.303 197.254Z" fill="#442A14"/>
<path d="M188.41 188.246C188.761 188.821 190.39 191.696 190.774 194.347C191.029 196.2 190.901 196.136 190.678 194.315C190.454 192.494 189.081 189.524 188.25 188.342C188.058 188.054 188.058 187.671 188.41 188.246Z" fill="#442A14"/>
<path d="M200.549 182.528C199.431 179.365 196.204 174.733 194.479 172.976C194.096 172.593 193.936 171.922 194.671 172.753C195.406 173.583 199.015 177.96 200.676 182.528C201.858 185.818 201.667 185.722 200.549 182.528Z" fill="#442A14"/>
<path d="M152.408 166.715C149.246 166.076 142.122 165.981 138.289 167.163C134.456 168.344 134.168 168.185 138.129 167.035C143.719 165.406 151.003 166.14 152.44 166.332C153.846 166.492 153.143 166.843 152.408 166.715Z" fill="#442A14"/>
<path d="M165.921 195.05C164.579 197.222 162.599 202.397 162.471 205.464C162.343 208.531 162.151 208.69 162.311 205.56C162.567 201.119 165.09 195.976 165.601 194.954C166.144 193.964 166.208 194.571 165.921 195.05Z" fill="#442A14"/>
<path d="M158.701 194.986C157.296 196.424 154.836 200.097 154.197 202.461C153.558 204.825 153.367 204.921 154.069 202.493C155.06 199.075 157.903 195.561 158.478 194.858C159.085 194.187 159.021 194.667 158.701 194.986Z" fill="#442A14"/>
<path d="M153.271 170.485C149.661 170.868 141.835 173.104 137.554 175.755C133.274 178.375 132.699 178.503 137.075 175.724C141.739 172.753 151.642 170.357 153.303 170.165C155.028 169.974 154.101 170.421 153.271 170.485Z" fill="#442A14"/>
<path d="M135.829 184.828C141.1 179.589 153.143 173.583 155.156 172.849C157.296 172.082 156.242 172.912 155.219 173.264C150.715 174.829 141.324 180.068 136.436 184.732C131.549 189.396 130.91 189.715 135.829 184.828Z" fill="#442A14"/>
<path d="M129.792 183.326C136.212 176.682 151.546 172.785 152.536 172.529C153.239 172.369 155.443 172.114 152.344 172.912C140.493 175.979 133.306 180.164 130.303 183.199C127.332 186.265 124.585 188.725 129.792 183.326Z" fill="#442A14"/>
<path d="M67.9791 175.532C70.1833 163.936 75.2944 153.171 76.3486 148.858C77.4028 144.578 76.0611 144.769 76.5722 136.847C76.9236 131.576 81.1722 123.526 82.7375 122.632C83.6958 122.089 82.8014 124.037 81.5236 125.283C80.2778 126.529 77.9139 131.48 77.3708 135.569C76.8277 139.658 78.0097 141.671 77.5944 146.239C77.1791 150.807 75.6458 154.161 73.9847 158.537C72.3236 162.914 69.7361 172.274 69.0333 174.765C68.3305 177.289 67.468 182.751 66.2222 186.042C64.9764 189.332 64.2416 191.6 64.018 193.485C63.7944 195.369 67.9791 198.5 70.0555 199.969C69.3208 198.596 69.5444 198.308 70.4708 196.296C70.4708 197.669 70.9819 198.915 72.675 201.119C74.3361 203.324 80.4055 206.869 82.0986 208.435C83.7597 210 84.4944 208.658 86.7944 210.735C85.5486 210.224 85.5486 211.374 83.4403 211.98C87.9444 212.3 89.8291 213.865 92.9597 214.28C92.1291 213.769 91.9055 213.13 91.075 211.885C95.4514 213.865 95.675 215.75 97.0486 216.485C98.4222 217.219 100.403 216.389 103.533 215.974C101.744 215.558 102.894 214.919 100.722 213.674C102.926 213.897 104.076 213.993 106.057 214.824C108.037 215.654 110.337 213.993 110.337 213.993C110.337 213.993 108.772 213.162 108.357 212.204C109.922 213.035 110.018 212.3 112.637 212.428C112.861 214.089 115.576 214.504 116.503 213.578C117.237 215.047 122.668 216.708 122.668 216.708C122.668 216.708 123.499 217.028 122.157 214.728C124.553 216.293 124.681 220.701 124.681 220.701C124.681 220.701 124.265 219.871 123.115 218.497C121.965 217.124 119.665 217.986 117.461 216.517C115.257 215.047 113.5 215.59 110.657 215.782C107.846 216.005 108.453 216.932 110.018 217.858C111.583 218.785 113.979 219.839 116.279 220.478C114.906 220.797 112.094 220.254 110.753 219.328C109.379 218.401 104.587 217.251 103.022 217.667C105.737 217.986 106.887 218.721 108.037 219.647C106.057 219.008 105.642 219.871 101.968 219.136C98.2944 218.401 95.4833 217.475 91.9375 215.271C88.3916 213.067 87.3375 214.121 84.6222 213.482C81.9069 212.843 80.6611 211.501 78.7764 209.808C80.15 210.543 80.15 210.319 81.7153 210.128C80.0541 209.808 78.7764 207.732 77.0194 207.189C75.2305 206.678 73.1541 206.039 72.5153 204.25C73.9847 204.474 73.8889 204.761 75.55 205.496C75.0389 204.569 73.8889 203.515 71.0458 202.461C68.2347 201.407 66.1264 198.596 63.0916 193.772C63.3791 190.354 65.775 187.128 67.9791 175.532Z" fill="#442A14"/>
<path d="M171.415 192.079C170.84 191.504 172.725 190.035 172.981 189.428C173.268 188.789 174.961 187.543 175.792 187.351C175.121 188.182 174.674 188.278 174.482 189.012C175.217 188.917 176.015 188.789 176.175 188.214C176.335 189.012 176.462 190.258 176.782 189.3C177.133 188.374 177.357 188.469 177.069 187.799C177.868 188.278 177.74 189.428 178.092 190.003C178.667 188.917 179.337 188.374 179.05 187.639C179.881 188.374 179.944 189.108 179.625 189.715C180.232 189.619 180.647 189.364 181.031 189.715C181.094 188.98 181.031 188.501 180.519 187.99C181.478 188.342 181.925 188.469 182.276 188.98C182.5 188.246 182.851 187.926 182.851 187.926C182.851 187.926 182.5 189.587 184.544 188.022C184.544 188.022 182.692 190.546 180.072 191.568C180.647 190.897 180.743 190.322 180.743 190.322C180.743 190.322 179.657 190.578 179.114 191.249C178.539 191.919 177.932 192.143 177.293 192.399C177.676 191.6 177.676 190.929 177.165 190.45C177.293 190.961 176.558 191.025 176.367 191.6C175.919 191.376 176.143 190.194 176.143 190.194C176.143 190.194 175.121 190.13 175.185 191.025C174.674 190.29 174.29 190.354 174.29 191.089C173.683 190.769 173.683 190.162 173.683 190.162C173.683 190.162 172.342 191.983 172.278 192.814C171.767 192.079 171.831 191.504 171.926 191.089C171.415 191.632 171.479 191.472 171.415 192.079Z" fill="#442A14"/>
<path d="M82.9291 167.769C84.175 167.258 85.2291 167.258 86.1555 168.185C85.5166 166.524 83.7597 165.565 83.6319 164.224C83.5361 162.85 85.4208 162.435 83.9514 160.997C85.4208 161.732 86.3472 160.997 85.5166 159.624C84.6861 158.25 83.8555 156.493 83.5361 154.8C84.9097 156.046 85.6125 156.046 85.6125 156.046C85.6125 156.046 84.0472 153.426 85.7083 150.519C85.9319 152.404 87.1139 153.043 87.9125 153.331C86.5069 153.969 86.3472 153.746 85.6125 153.107C85.7083 155.311 86.5389 156.781 87.4972 157.196C86.2514 157.515 85.8361 157.419 85.293 157.292C86.2194 159.081 88.0083 163.361 88.9666 164.096C86.5708 164.511 86.0277 164.735 85.0055 164C85.7402 165.981 87.4014 167.226 88.9666 167.546C87.593 168.185 87.593 169.335 86.443 169.111C88.1041 170.357 88.0083 172.337 89.7972 173.2C88.0083 173.711 86.5708 174.031 85.5166 173.615C86.7625 175.596 90.2125 177.065 91.2666 177.289C89.7972 178.343 88.743 178.439 87.7208 178.343C89.5097 179.812 92.7361 182.304 94.9403 182.624C92.4166 183.869 95.2597 184.412 96.7291 185.243C95.3555 185.754 94.525 186.074 93.5986 185.658C94.6528 187.032 95.4833 188.597 96.9528 189.332C95.8986 190.067 94.0139 189.747 94.0139 189.747C94.0139 189.747 97.4639 192.143 99.668 192.558C98.4222 193.197 98.4222 194.028 97.2722 193.932C100.211 195.306 104.907 196.456 106.983 196.136C105.929 197.062 103.629 197.701 103.629 197.701C103.629 197.701 105.418 199.362 107.175 199.682C105.706 200.417 102.351 200.001 101.01 198.947C102.671 199.171 102.671 198.947 103.949 199.171C102.383 198.117 97.8791 195.817 94.7486 195.817C96.4097 194.251 96.1222 193.101 96.1222 193.101C96.1222 193.101 92.768 191.632 90.5958 192.175C91.3305 191.025 94.7805 191.249 94.7805 191.249C94.7805 191.249 92.8 189.46 91.5541 189.46C92.193 189.14 93.2153 188.406 94.3653 188.725C93.2153 187.894 92.3847 185.914 89.7653 186.01C87.4653 186.01 87.9764 184.125 86.2194 183.39C88.8389 183.39 90.7236 184.636 92.4805 184.86C90.8194 183.614 90.1805 181.729 88.8069 181.186C87.4333 180.675 87.018 178.662 84.9416 178.247C86.5069 177.417 86.9222 176.682 87.8805 176.778C86.2194 175.532 84.4305 174.893 83.6958 173.647C84.9416 171.858 86.2194 171.667 86.2194 171.667C86.2194 171.667 85.2291 168.824 82.9291 167.769Z" fill="#442A14"/>
<path d="M183.011 147.229C182.085 146.431 180.2 145.089 179.369 144.418C178.539 143.747 178.028 142.885 180.232 144.546C182.436 146.207 182.819 146.59 183.107 146.846C185.599 149.114 184.928 148.858 183.011 147.229Z" fill="#442A14"/>
<path d="M22.2028 162.019C16.5805 155.279 11.4056 136.496 12.875 122.025C14.3444 107.554 25.0778 69.7 26.3875 60.7236C27.6972 51.7472 34.0222 35.8389 44.8194 25.7125C49.6431 21.1764 53.1569 20.3778 59.4181 15.7139C65.6792 11.05 69.4167 7.8236 75.9333 6.00277C82.45 4.18193 95.6111 1.72221 104.236 1.84999C112.861 1.97777 117.493 0.572211 121.837 3.28749C126.15 5.97082 127.076 8.04721 130.526 9.16527C133.976 10.2833 134.743 10.6667 136.021 11.7528C137.331 12.8389 138.289 15.3625 141.292 16.7361C144.294 18.1097 149.31 23.1569 150.46 25.1694C153.782 24.85 168.189 20.3778 171.128 23.668C174.067 26.9583 177.708 32.6125 177.453 37.1805C177.197 41.7486 181.382 51.0444 180.615 67.7194C180.296 74.4597 188.474 79.8903 190.71 83.2444C192.946 86.5986 201.731 101.069 203.615 105.669C205.5 110.269 209.206 118.99 218.31 121.961C227.446 124.9 236.199 131.481 237.029 132.854C237.86 134.228 239.138 137.422 238.531 138.7C237.924 139.978 236.135 138.7 235.656 141.128C235.176 143.556 228.851 144.897 226.168 144.418C223.485 143.971 220.45 141.99 213.071 142.565C199.814 143.556 191.572 116.499 182.788 115.796C177.293 115.349 151.961 115.86 133.785 123.335C115.608 130.81 99.6042 143.587 93.0875 145.408C86.5708 147.229 76.9555 149.114 67.7555 153.075C58.5875 157.068 54.85 160.518 50.7931 160.678C46.7361 160.837 41.0819 158.985 37.4722 158.857C33.8625 158.761 25.7167 166.236 22.2028 162.019Z" fill="#EBCC6F"/>
<path d="M22.2028 162.019C16.5805 155.279 11.4056 136.496 12.875 122.025C14.3444 107.554 25.0778 69.7 26.3875 60.7236C27.6972 51.7472 34.0222 35.8389 44.8194 25.7125C49.6431 21.1764 53.1569 20.3778 59.4181 15.7139C65.6792 11.05 69.4167 7.8236 75.9333 6.00277C82.45 4.18193 95.6111 1.72221 104.236 1.84999C112.861 1.97777 117.493 0.572211 121.837 3.28749C126.15 5.97082 127.076 8.04721 130.526 9.16527C133.976 10.2833 134.743 10.6667 136.021 11.7528C137.331 12.8389 138.289 15.3625 141.292 16.7361C144.294 18.1097 149.31 23.1569 150.46 25.1694C153.782 24.85 168.189 20.3778 171.128 23.668C174.067 26.9583 177.708 32.6125 177.453 37.1805C177.197 41.7486 181.382 51.0444 180.615 67.7194C180.296 74.4597 188.474 79.8903 190.71 83.2444C192.946 86.5986 201.731 101.069 203.615 105.669C205.5 110.269 209.206 118.99 218.31 121.961C227.446 124.9 236.199 131.481 237.029 132.854C237.86 134.228 239.138 137.422 238.531 138.7C237.924 139.978 236.135 138.7 235.656 141.128C235.176 143.556 228.851 144.897 226.168 144.418C223.485 143.971 220.45 141.99 213.071 142.565C199.814 143.556 191.572 116.499 182.788 115.796C177.293 115.349 151.961 115.86 133.785 123.335C115.608 130.81 99.6042 143.587 93.0875 145.408C86.5708 147.229 76.9555 149.114 67.7555 153.075C58.5875 157.068 54.85 160.518 50.7931 160.678C46.7361 160.837 41.0819 158.985 37.4722 158.857C33.8625 158.761 25.7167 166.236 22.2028 162.019Z" stroke="#442A14" stroke-width="1.4779" stroke-miterlimit="10"/>
<path d="M37.5361 154.736C34.5653 155.343 25.6208 160.007 25.557 161.285C25.525 162.562 27.3458 162.69 30.3806 160.837C33.607 158.857 37.4403 157.292 41.082 158.538C44.7236 159.783 48.9083 160.262 50.7931 159.911C52.6778 159.56 56.2236 159.081 63.0278 154.512C65.5514 152.532 76.3806 149.082 83.6958 147.133C83.6958 147.133 94.0778 146.015 109.06 135.537C114.203 131.928 123.435 126.401 132.219 123.175C141.004 119.949 149.821 117.201 162.375 115.987C174.929 114.774 183.874 114.965 186.781 116.275C190.263 117.872 200.389 138.604 211.09 141.703C212.432 142.086 216.361 141.096 220.131 141.735C223.9 142.406 226.519 141.192 229.746 142.246C232.972 143.3 235.847 141.543 232.333 141.16C228.819 140.776 227.989 137.039 230.129 137.614C232.269 138.189 233.068 138.828 235.879 138.317C238.69 137.806 236.869 135.026 236.039 134.899C227.478 133.621 226.839 129.372 217.096 127.328C207.353 125.283 201.092 121.801 198.76 118.096C196.428 114.39 197.482 117.872 196.875 118.351C196.268 118.831 195.757 118.415 195.885 119.885C196.013 121.354 197.386 124.612 195.182 122.632C194.447 121.993 194.447 123.526 193.425 121.897C192.435 120.268 191.572 121.961 191.221 119.374C190.838 116.786 192.658 117.681 192.115 116.307C191.572 114.933 189.4 113.815 187.388 112.889C185.375 111.962 187.835 110.781 184.097 110.174C180.36 109.567 179.114 106.5 182.181 105.254C185.247 104.008 186.94 105.126 188.889 108.608C190.806 112.09 197.769 114.933 201.028 115.572C204.286 116.211 205.532 116.083 203.232 113.464C200.9 110.812 196.396 110.461 194.351 108.896C192.307 107.331 191.061 104.583 194.671 105.669C198.281 106.756 201.251 111.1 203.583 110.397C205.915 109.694 200.197 103.242 198.728 99.5361C197.258 95.8625 189.208 81.8069 183.938 78.1653C178.635 74.5236 186.046 83.6917 188.25 88.2597C190.454 92.8278 192.69 99.6319 189.943 95.8944C187.196 92.1569 186.781 89.5055 184.864 89.3778C182.947 89.25 182.628 86.0875 182.213 83.4042C181.797 80.7208 182.085 78.1333 181.094 73.3097C180.519 70.4986 178.826 67.943 178.763 70.4986C178.699 73.0542 179.178 74.7792 178.06 74.875C176.942 74.9708 174.833 71.8083 174.514 68.4861C174.194 65.1639 174.546 62.0972 175.919 64.8444C177.293 67.5917 178.89 69.3486 178.571 65.8667C178.251 62.3847 178.922 58.0083 177.101 52.1305C175.249 46.2528 173.971 45.9014 174.386 50.3097C174.801 54.718 176.526 62.7042 174.961 61.4264C173.396 60.1486 171.511 61.9055 171.192 56.8583C170.872 51.8111 173.779 55.4847 172.661 45.3903C171.543 35.2958 169.914 36.5736 170.01 34.3375C170.106 32.1014 170.84 29.8014 172.214 32.2292C173.556 34.6569 175.025 36.7333 174.801 34.3694C174.578 32.0055 172.885 27.693 171.799 26.3514C170.713 25.0097 164.132 26.1278 152.025 28.0764C139.95 30.025 130.271 33.8264 117.844 33.8903C105.418 33.9542 91.7778 33.0278 85.8681 36.1583C79.9583 39.2889 75.2625 43.6972 72.9625 44.7194C70.6625 45.7417 67.7556 46.9555 68.6181 47.6903C69.4806 48.393 73.3778 45.6458 72.7708 47.6264C72.1639 49.6069 68.2986 52.5139 67.0847 53.1208C65.8708 53.7278 66.8292 57.2736 65.5514 58.6792C64.2417 60.0847 63.2833 61.2667 62.1333 62.9917C61.0153 64.6847 62.0056 66.825 63.2514 64.8125C64.4972 62.8 65.775 62.8319 66.2861 63.2472C66.7972 63.6625 66.1583 61.8097 67.7556 60.4042C69.3847 58.9667 71.1736 57.8486 70.3111 57.1458C69.4486 56.443 73.3458 55.4208 73.3139 53.5042C73.282 51.5875 72.1639 49.7986 74.9111 48.425C77.6583 47.0514 79.0639 45.3264 80.2778 42.9625C81.4917 40.6306 83.7917 38.0111 87.2097 38.65C90.6278 39.2889 89.6694 42.5472 96.8569 41.0778C104.044 39.6083 110.306 39.9597 112.478 39.4167C114.65 38.8736 118.132 41.7486 121.167 40.1833C124.201 38.618 129.217 37.8194 129.951 40.3111C130.654 42.8028 129.664 47.1792 127.044 46.4764C124.425 45.7736 125.703 42.2917 124.074 41.9722C122.444 41.6528 119.985 40.918 121.454 43.0264C122.924 45.1347 124.329 49.6069 118.483 50.3097C112.669 51.0125 104.939 53.6639 103.31 51.5875C101.681 49.5111 99.2847 49.575 99.157 53.0889C99.0292 56.6028 102.383 58.3597 95.5472 58.6792C88.7111 58.9986 84.8458 68.4542 84.9097 72.4472C84.9736 76.4403 86.0597 82.8611 81.7153 85.8319C77.3708 88.8028 73.9208 87.525 71.9722 83.8833C70.0236 80.2417 66.5417 73.8847 69.5444 70.243C72.5472 66.6014 67.3722 64.2375 64.8167 65.7389C62.2611 67.2722 61.6222 65.7389 60.6639 68.8375C59.6736 71.968 55.9361 76.1528 58.3639 76.5361C60.7917 76.9514 62.4847 72.7986 65.2 74.7792C67.9153 76.7597 65.4556 79.0597 62.2931 79.5069C59.1625 79.9542 56.7028 77.8139 56.9264 80.0181C57.15 82.2222 57.9806 82.7972 59.6736 83.8833C61.3667 85.0014 63.4111 86.2472 62.1972 86.9819C60.9833 87.7486 59.3861 87.7167 58.7792 89.5375C58.1403 91.3583 58.332 93.0833 55.1694 96.8847C52.0389 100.686 54.0195 106.564 52.7097 107.969C51.4 109.375 51.0806 110.844 52.3583 110.876C53.6361 110.908 54.1792 106.564 56.2556 106.532C58.3319 106.5 58.1083 109.375 60.3125 109.024C62.5167 108.64 63.4431 106.819 63.6986 102.635C63.9542 98.4819 68.7458 97.2042 71.2056 99.3764C73.6333 101.549 72.3236 101.037 70.3111 101.836C68.2986 102.635 66.9889 103.753 66.6694 105.542C66.35 107.331 67.6917 106.244 70.7583 104.839C73.825 103.433 76.2847 102.571 76.7 103.785C77.1472 105.031 74.2722 106.724 77.4986 108.96C80.725 111.196 82.3542 116.307 86.4431 115.924C90.532 115.54 95.2917 108.385 97.5917 102.411C99.8917 96.4375 102.064 94.1694 102.288 96.3736C102.511 98.5778 100.115 107.107 98.3903 108.864C96.6333 110.621 97.1125 113.783 103.246 109.503C109.379 105.222 109.922 105.989 111.488 104.104C113.053 102.219 114.906 98.0347 116.119 99.025C117.333 100.015 116.822 101.357 115.481 102.443C114.139 103.529 113.468 106.308 111.296 106.979C109.124 107.65 105.833 109.886 104.843 111.1C103.853 112.314 106.281 112.729 108.453 112.186C110.625 111.643 111.903 114.901 109.219 115.285C106.536 115.7 99.5403 117.489 97.2722 116.914C94.9722 116.339 86.8264 117.585 85.1014 119.661C83.3764 121.737 83.6958 125.06 84.4306 127.711C85.1653 130.362 80.5972 127.743 83.3764 131.8C86.1556 135.825 74.7514 129.915 71.9083 131.768C69.0653 133.621 69.6083 137.742 66.0306 138.7C62.4528 139.69 56.8625 139.562 55.3931 140.84C53.9236 142.086 55.7764 143.204 54.6903 143.46C53.6042 143.715 51.4319 142.661 51.1445 141.256C50.857 139.85 50.2181 138.317 49.5153 139.179C48.8125 140.042 45.7458 136.496 47.6625 141.575C49.5792 146.654 51.0486 143.811 52.007 146.91C52.9333 150.008 51.9111 150.903 52.9333 151.446C53.9556 151.989 55.7125 150.392 58.6195 149.146C61.5264 147.9 60.2167 147.133 55.2333 147.229C53.157 147.261 54.0195 146.079 56.5431 144.386C59.0986 142.693 60.8556 141.256 65.0722 141.99C69.2889 142.725 69.4486 139.339 71.7486 138.476C74.0486 137.614 80.757 139.211 84.3347 138.54C87.9125 137.869 88.807 133.493 95.9306 133.142C103.054 132.79 103.15 125.124 112.893 120.524C122.668 115.924 123.563 113.751 120.24 113.911C116.918 114.071 113.819 114.997 115.576 111.962C117.365 108.928 119.378 101.708 122.54 101.581C125.703 101.421 126.438 105.829 124.489 106.979C122.54 108.129 121.454 110.142 119.633 111.1C117.813 112.058 117.493 113.687 121.71 112.825C125.926 111.962 131.197 111.931 129.76 113.815C128.354 115.7 122.828 121.322 130.558 115.636C138.321 109.95 154.485 107.618 161.353 107.586C168.221 107.554 168.764 105.126 168.54 102.603C168.285 100.079 165.697 99.6958 161.417 101.357C157.104 103.05 149.693 105.35 147.553 104.583C145.413 103.817 143.592 101.612 144.55 99.9194C145.508 98.2264 146.946 95.0639 152.728 95.3194C158.51 95.575 162.822 97.3958 164.483 98.3542C166.176 99.3125 168.732 99.3764 171.128 96.118C173.524 92.8597 175.983 90.2403 175.217 87.2694C174.45 84.2986 171.479 83.3083 171.224 80.625C170.968 77.9417 169.914 80.4333 169.882 81.5514C169.818 82.6694 172.118 84.8417 169.211 84.65C166.336 84.4583 166.368 84.7778 167.326 81.4875C168.285 78.1972 164.132 77.9736 165.282 76.8875C166.464 75.8333 168.732 76.2486 168.636 75.2903C168.54 74.3319 166.592 72.2875 165.633 72.0639C164.643 71.8403 164.26 71.0736 165.25 69.7C166.24 68.3264 168.828 66.9528 168.86 64.1097C168.892 61.2347 167.39 53.8875 169.499 59.2542C171.607 64.6208 173.971 69.3486 172.501 70.5944C171.032 71.8403 168.636 73.5014 172.246 73.0222C175.856 72.5431 177.069 78.293 174.706 78.8361C172.374 79.3792 174.674 80.1139 176.111 80.1458C177.549 80.1778 179.21 84.1389 178.251 85.8319C177.293 87.525 180.679 87.8444 181.094 88.8986C181.51 89.9528 181.478 93.0194 182.436 94.6805C183.394 96.3417 183.171 99.0889 184.161 99.4722C185.151 99.8555 186.269 101.517 184.065 101.868C181.861 102.219 180.647 101.229 180.264 98.7375C179.849 96.2139 179.625 92.093 179.497 90.8472C179.369 89.5694 177.644 88.1639 177.549 90.5597C177.453 92.9556 176.271 97.2042 174.642 98.6417C173.013 100.079 169.946 102.922 170.649 105.382C171.351 107.874 171.894 108.289 174.163 107.267C176.463 106.244 180.488 108.417 177.197 109.056C173.907 109.694 167.231 111.643 159.244 111.419C156.689 111.356 155.379 114.326 152.632 113.815C149.885 113.272 152.057 111.164 149.086 111.611C146.115 112.058 147.361 113.687 144.71 114.262C142.058 114.837 142.474 115.764 144.199 115.732C145.956 115.732 148.479 117.074 144.39 117.776C140.301 118.479 143.975 115.253 138.832 114.806C133.689 114.358 130.367 118 129.504 119.054C128.642 120.108 129.057 121.162 130.846 119.725C132.635 118.287 136.628 116.786 139.056 117.361C141.515 117.936 140.749 118.479 137.554 118.447C134.36 118.447 134.008 121.322 128.706 122.472C123.403 123.622 117.557 129.117 112.925 130.842C108.293 132.567 106.568 132.567 103.661 134.132C100.786 135.697 95.6431 140.329 93.407 140.361C91.1708 140.425 87.4333 141.096 83.9514 143.012C80.4695 144.929 74.2722 143.619 72.5153 145.217C70.7583 146.814 70.1195 150.072 67.5 149.529C64.9125 148.986 62.1972 149.082 59.2903 150.488C56.3833 151.893 53.2208 155.215 52.2945 154.033C51.3681 152.851 49.9625 149.785 48.3014 148.826C46.6403 147.868 46.8 144.833 45.5542 143.524C44.3083 142.214 41.2736 138.828 42.8708 133.908C44.4681 128.989 41.8486 128.094 42.4875 124.868C43.1264 121.61 43.7333 114.39 46.4167 110.781C49.1 107.171 50.6333 106.404 50.9847 100.143C51.3361 93.8819 53.1889 79.6986 55.425 74.843C57.6611 70.0194 58.875 62.7042 62.7403 56.1236C66.6056 49.543 65.5195 46.7639 69.3847 44.0167C73.25 41.2694 79.5431 35.0722 84.782 33.443C90.0208 31.8139 98.8375 30.3444 105.706 30.6319C112.574 30.9194 123.658 29.8653 132.283 28.4278C140.908 26.9583 146.147 26.6389 148.351 26.575C150.587 26.5111 150.204 25.9042 148.799 24.6264C147.393 23.3486 142.857 19.1319 138.608 16.5125C134.36 13.893 136.947 12.5194 132.635 10.8583C128.322 9.19721 125.671 8.17499 123.467 6.64166C121.263 5.10832 118.994 4.85277 113.021 5.87499C107.079 6.92916 110.593 3.70277 104.715 3.95832C98.8375 4.21388 83.4722 5.20416 82.0667 7.08888C80.6611 8.9736 77.7222 10.0597 75.1986 10.1236C72.6431 10.2194 68.9056 12.6472 67.3083 14.2125C65.7111 15.8097 63.1556 14.1167 58.2681 19.7069C53.3806 25.2972 49.9306 24.3389 47.5986 26.4792C45.2667 28.6194 44.8514 34.5611 39.2611 39.3847C33.6708 44.2083 33.5111 47.5944 32.7125 50.8528C31.9139 54.1111 28.8792 55.6764 26.8028 65.6111C24.7264 75.5458 17.9222 101.037 16.8681 104.967C15.8139 108.896 16.1333 117.457 15.175 118.99C14.2167 120.524 13.1945 126.529 14.8236 126.849C16.4528 127.168 17.4111 130.426 15.4306 131.576C13.482 132.726 14.2167 137.262 14.6 139.626C14.9833 141.99 18.2417 147.581 18.4014 149.465C18.5931 151.35 18.4653 156.94 21.9472 158.058C25.3972 159.176 28.432 154.257 30.0931 151.382C31.7222 148.507 36.0028 148.124 39.1014 148.762C42.2 149.433 44.4042 149.21 45.7139 149.401C47.0236 149.593 45.2347 151.031 47.407 152.276C49.5792 153.522 52.1028 154.864 50.6333 155.95C49.1639 157.036 50.5375 158.346 47.982 158.282C45.4264 158.218 45.4903 155.662 42.5514 154.96C39.7403 154.353 37.5361 154.736 37.5361 154.736Z" fill="#442A14"/>
<path d="M64.8486 251.144C58.0125 241.913 46.4806 242.232 31.9139 244.819C25.7486 245.746 19.0403 243.765 16.2931 239.293C19.9667 238.111 23.1611 235.492 23.5444 231.563C19.3597 224.631 7.44445 218.625 5.55972 200.768C11.8208 209.01 25.1097 210.415 32.0417 207.796C48.1097 201.758 64.7528 207.828 64.8486 213.865V251.144Z" fill="#EBCC6E" stroke="#442A14" stroke-width="1.4779" stroke-miterlimit="10"/>
<path d="M206.331 251.144C213.167 241.913 224.699 242.232 239.265 244.819C245.431 245.746 252.139 243.765 254.886 239.293C251.213 238.111 248.018 235.492 247.635 231.563C251.819 224.631 263.735 218.625 265.619 200.768C259.358 209.01 246.069 210.415 239.138 207.796C223.069 201.758 206.426 207.828 206.331 213.865V251.144Z" fill="#EBCC6E" stroke="#442A14" stroke-width="1.4779" stroke-miterlimit="10"/>
<path d="M64.7208 247.631C49.1 242.999 39.6445 231.179 38.9417 224.375C38.9417 224.343 38.9417 224.343 38.9417 224.311C38.9097 224.119 38.9097 223.96 38.9097 223.768C38.9097 223.736 38.9097 223.704 38.9097 223.672V223.512C39.0695 218.753 46.6083 215.494 54.0194 218.849C64.7208 223.704 64.8486 215.91 64.9445 214.312L64.7208 247.631Z" fill="#442A14"/>
<path d="M206.331 248.237C221.951 243.606 231.599 231.243 232.301 224.439C232.301 224.407 232.301 224.407 232.301 224.375C232.333 224.183 232.333 224.024 232.333 223.832C232.333 223.8 232.333 223.768 232.333 223.736V223.576C232.174 218.817 224.635 215.558 217.224 218.912C206.522 223.768 206.394 215.974 206.299 214.376L206.331 248.237Z" fill="#442A14"/>
<path d="M232.333 223.544V264.05C232.333 278.968 189.017 303.374 135.606 303.374C88.2639 303.374 48.8764 281.556 40.5069 269.033C39.4208 267.436 38.8778 265.775 38.8778 264.082V223.672C38.8778 223.704 38.8778 223.736 38.8778 223.768C38.8778 223.96 38.8778 224.119 38.9097 224.311C38.9097 224.343 38.9097 224.343 38.9097 224.375C39.6125 231.211 75.7417 264.912 135.574 265.36C195.853 265.743 232.333 231.626 232.333 223.544Z" fill="#EBCC6E" stroke="#442A14" stroke-width="1.4779" stroke-miterlimit="10"/>
<path d="M75.6139 272.356C72.8028 277.179 66.925 279.032 61.9736 276.157C57.0542 273.282 55.3292 267.021 58.1083 262.197C60.9194 257.374 67.2125 255.744 72.1319 258.619C75.6778 260.664 77.243 264.178 77.1153 267.915L70.4069 266.126C70.4069 265.2 70.0555 264.369 69.1292 263.826C67.5958 262.932 65.5514 263.731 64.3375 265.839C63.1555 267.883 63.4111 270.087 64.9764 271.014C66.1903 271.717 67.2444 271.493 68.1708 270.758L65.4875 269.193L67.5639 265.615L76.3486 270.726C76.1889 271.301 75.9653 271.781 75.6139 272.356Z" fill="#442A14"/>
<path d="M87.593 272.324L86.9541 274.049L91.1708 275.614L89.5736 279.926L85.3569 278.361L84.718 280.086L90.1805 282.131L88.2319 287.306L76.0291 282.738L82.8014 264.593L95.0041 269.161L93.0555 274.336L87.593 272.324Z" fill="#442A14"/>
<path d="M117.461 274.464L113.404 293.375L105.929 291.778L103.789 282.354L101.968 290.915L94.9402 289.414L98.9652 270.471L106.44 272.068L108.581 281.492L110.401 272.931L117.461 274.464Z" fill="#442A14"/>
<path d="M128.801 280.885L128.674 282.738L133.146 283.025L132.826 287.625L128.354 287.338L128.226 289.19L134.04 289.574L133.657 295.1L120.656 294.238L121.965 274.911L134.967 275.774L134.583 281.3L128.801 280.885Z" fill="#442A14"/>
<path d="M159.5 293.758L151.418 294.365L147.425 289.126L147.84 294.653L140.685 295.196L139.215 275.901L150.428 275.071C154.421 274.783 156.944 277.754 157.232 281.492C157.424 284.175 156.433 286.603 154.389 287.913L159.5 293.758ZM150.044 282.226C149.949 280.821 149.086 280.214 148.096 280.278L146.754 280.374L147.074 284.526L148.415 284.431C149.406 284.367 150.172 283.664 150.044 282.226Z" fill="#442A14"/>
<path d="M182.628 288.903L175.6 290.436L174.354 288.36L168.828 289.574L168.572 292.001L161.544 293.535L164.739 273.026L171.16 271.621L182.628 288.903ZM171.447 283.344L169.69 280.374L169.339 283.824L171.447 283.344Z" fill="#442A14"/>
<path d="M196.268 278.01L198.153 283.217L185.886 287.657L179.274 269.449L186.046 266.989L190.774 279.99L196.268 278.01Z" fill="#442A14"/>
<path d="M200.006 280.118L199.271 274.751C202.018 275.167 205.181 273.889 205.181 273.889C207.321 273.058 207.672 272.547 207.385 272.004C207.097 271.461 206.107 271.972 203.711 272.643C198.568 274.049 196.619 272.931 195.15 270.279C193.297 266.861 194.926 262.964 200.325 260.025C202.05 259.099 204.669 258.268 207.129 258.428L207.864 263.763C207.193 263.667 205.276 263.539 202.785 264.721C201.156 265.519 200.964 265.967 201.219 266.446C201.475 266.925 202.337 266.574 203.839 266.031C206.778 264.976 211.569 263.763 213.901 268.043C215.69 271.301 214.221 275.55 208.79 278.489C204.382 280.885 200.006 280.118 200.006 280.118Z" fill="#442A14"/>
<path d="M102.224 241.625C99.8278 248.206 94.1097 249.26 83.9833 245.586L74.4 242.104C73.825 241.913 73.6014 241.433 73.825 240.826L79.8944 224.024C80.118 223.449 80.5653 223.225 81.1403 223.417L90.7236 226.899C100.882 230.604 104.619 235.045 102.224 241.625ZM98.9972 240.475C100.531 236.195 98.2944 233.128 89.6694 229.997L82.2903 227.314L77.7222 239.868L85.1014 242.551C93.7583 245.65 97.4319 244.724 98.9972 240.475Z" fill="#442A14"/>
<path d="M134.871 246.353C133.944 253.7 128.482 255.904 119.218 254.722L118.356 254.595C109.06 253.413 104.332 249.931 105.29 242.583C106.249 235.172 111.679 233.032 120.975 234.246L121.837 234.374C131.101 235.524 135.829 238.974 134.871 246.353ZM131.517 245.938C132.124 241.178 129.536 238.495 121.422 237.472L120.56 237.345C112.446 236.322 109.251 238.239 108.644 242.999C108.037 247.663 110.625 250.41 118.739 251.432L119.601 251.56C127.747 252.614 130.942 250.601 131.517 245.938Z" fill="#442A14"/>
<path d="M166.368 250.122C166.432 250.442 166.336 250.729 165.985 250.985C164.771 251.975 161.257 253.828 154.229 254.658C144.422 255.84 139.024 253.668 138.097 246.257C137.203 238.846 141.931 235.46 151.738 234.246C158.701 233.415 162.567 234.31 163.972 234.981C164.579 235.268 164.675 235.843 164.292 236.354L163.557 237.376C163.238 237.856 162.854 237.888 162.279 237.76C160.969 237.408 157.935 236.642 152.121 237.376C143.368 238.431 140.908 241.082 141.483 245.81C142.058 250.538 145.093 252.518 153.846 251.464C158.829 250.857 161.576 249.739 163.014 248.972L162.535 244.915L155.794 245.746C155.188 245.81 154.804 245.49 154.708 244.883L154.581 243.893C154.517 243.286 154.804 242.871 155.411 242.775L164.324 241.689C164.931 241.625 165.314 241.945 165.41 242.551L166.368 250.122Z" fill="#442A14"/>
<path d="M170.936 234.278L172.693 239.325L190.742 233.096C191.317 232.904 191.764 233.128 191.988 233.703L192.339 234.725C192.531 235.3 192.339 235.779 191.764 235.971L173.715 242.2L175.376 246.96L194.99 240.188C195.565 239.996 196.013 240.22 196.236 240.795L196.619 241.945C196.811 242.52 196.619 242.999 196.044 243.19L174.226 250.729C173.651 250.921 173.204 250.697 172.981 250.122L167.135 233.224C166.943 232.649 167.135 232.17 167.71 231.978L189.528 224.439C190.103 224.247 190.55 224.471 190.774 225.046L191.157 226.196C191.349 226.771 191.157 227.25 190.582 227.442L170.936 234.278Z" fill="#442A14"/>
</svg>
