<svg width="263" height="305" viewBox="0 0 263 305" fill="none" xmlns="http://www.w3.org/2000/svg">
<path d="M95.0084 197.254C94.6894 198.212 93.0924 203.164 93.2834 207.604C93.4114 210.735 93.5394 210.575 93.3794 207.508C93.2194 204.442 94.3694 199.426 95.2324 197.35C95.4244 196.871 95.3284 196.296 95.0084 197.254Z" fill="#442A14"/>
<path d="M105.39 195.05C106.732 197.222 108.712 202.397 108.84 205.464C108.968 208.531 109.16 208.69 109 205.56C108.744 201.119 106.221 195.976 105.71 194.954C105.167 193.964 105.103 194.571 105.39 195.05Z" fill="#442A14"/>
<path d="M112.61 194.986C114.015 196.424 116.475 200.097 117.114 202.461C117.753 204.825 117.944 204.921 117.242 202.493C116.251 199.075 113.408 195.561 112.833 194.858C112.226 194.187 112.29 194.667 112.61 194.986Z" fill="#442A14"/>
<path d="M208.667 193.964C208.667 193.964 204.45 201.662 200.329 202.876C198.956 203.356 199.179 204.026 199.179 204.665C199.179 205.304 196.975 206.933 195.282 207.349C193.589 207.764 192.599 208.658 191.704 209.457C192.918 209.297 193.717 209.201 193.717 209.201C193.717 209.201 189.82 213.258 186.817 213.833C183.814 214.408 182.76 213.737 180.236 215.207C177.713 216.676 173.272 219.104 168.896 219.519C164.519 219.935 163.465 219.839 162.667 220.158C162.826 219.424 163.401 218.785 163.976 218.529C162.603 219.168 162.028 219.168 160.718 219.743C159.408 220.318 156.501 221.692 153.978 220.542C155.351 219.743 160.207 218.274 161.357 217.219C162.507 216.165 161.101 216.261 160.303 216.261C159.504 216.261 157.14 215.622 155.287 216.261C153.435 216.9 153.179 217.571 151.71 217.731C150.24 217.89 148.867 217.986 147.972 219.424C147.078 220.893 146.343 222.426 146.343 222.426C146.343 222.426 145.864 220.574 146.343 218.849C146.822 217.156 147.844 212.939 144.714 214.057C142.925 214.696 141.455 215.91 140.401 216.006C141.775 216.804 143.308 218.114 143.819 219.072C142.51 219.232 141.392 218.593 140.082 218.976C138.772 219.392 137.494 220.765 135.13 221.404C132.767 222.043 128.326 223.353 127.017 223.193C128.678 223.289 130.594 223.736 131.776 224.024C132.032 224.087 132 224.439 131.744 224.471C129.7 224.758 125.26 225.174 121.267 224.886C114.59 224.407 99.0014 222.682 90.1214 215.143C88.6194 213.865 87.5974 213.354 88.5874 217.156C86.5754 215.303 82.6464 211.853 80.4104 209.904C78.1744 207.956 74.1174 204.537 72.8394 204.474C71.8804 204.442 70.3794 205.56 69.5494 206.39C69.3574 206.582 69.0054 206.39 69.1014 206.103C69.4534 204.825 70.4754 203.196 70.5714 202.685C70.6994 202.014 71.6574 200.257 71.0504 196.775C70.8584 195.593 69.6124 195.178 67.7604 190.45C65.4284 184.444 65.3004 176.874 65.3004 176.426C64.8214 176.937 63.7034 178.311 62.1054 180.675C61.3394 181.793 60.4764 183.518 59.8694 184.508C59.7744 184.668 59.4864 184.54 59.5824 184.349C60.1254 182.911 61.4354 180.196 61.7224 179.685C62.6804 177.96 65.2364 175.308 65.2364 175.308C65.2364 175.308 64.8854 171.571 65.0444 170.932C64.3104 171.315 61.1794 173.168 59.6464 174.382C58.1124 175.596 55.5574 177.544 55.2694 177.449C54.9824 177.353 58.0494 174.51 58.9114 173.871C59.8054 173.232 63.4154 170.836 65.0444 170.069C65.0444 169.654 65.0764 168.824 65.0764 168.824C65.0764 168.824 58.8154 171.603 56.4194 173.232C54.0244 174.861 50.4144 177.481 49.8394 177.481C49.2644 177.481 50.9254 176.394 51.6604 175.724C55.1744 172.657 62.0424 169.175 65.0444 168.089C65.0444 166.715 65.2044 165.885 65.2044 165.885C65.2044 165.885 60.4764 167.29 57.0584 169.015C53.6404 170.74 52.5544 171.603 51.6924 172.274C50.8294 172.976 48.4974 175.308 47.7624 175.468C47.0284 175.628 50.4784 172.561 51.0534 171.858C53.1294 169.75 60.7324 166.268 65.3004 164.958C65.2684 163.617 65.9394 160.103 66.0994 159.496C63.4794 159.464 57.1224 159.847 53.1934 161.476C49.2644 163.106 48.0504 163.936 47.7944 163.681C47.5074 163.393 50.0944 162.051 52.3944 160.997C54.6944 159.943 60.5404 158.537 66.2904 158.633C66.4184 157.611 66.9934 155.95 66.9934 155.95C66.9934 155.95 60.4764 154.736 57.0904 154.992C53.7044 155.247 52.7784 155.119 52.7784 154.896C52.7784 154.512 56.8354 154.129 58.4324 154.161C60.7004 154.193 65.6194 154.864 67.2174 155.311C67.6324 154.033 68.3674 153.011 68.6544 152.564C68.9424 152.149 70.0284 149.433 70.4434 147.996C70.4434 147.996 67.9834 146.431 66.6744 145.951C65.3644 145.472 63.4794 144.801 63.5114 144.482C63.5434 144.162 64.0224 144.386 65.0764 144.737C66.1304 145.089 68.8464 146.143 70.6354 147.261C70.9544 146.431 72.0404 141.607 72.4244 139.85C72.8074 138.093 72.8074 136.975 72.9994 135.985C73.4144 133.844 75.5224 129.5 77.6944 126.178C79.8994 122.856 80.8894 121.546 82.7104 119.597C84.9144 117.297 89.8974 112.857 92.1014 112.154C94.3374 111.451 95.3284 111.036 97.1174 109.439C97.7244 108.832 98.9694 108.225 99.0334 107.906C99.0974 107.586 98.4904 106.276 98.0754 105.222C97.6924 104.168 96.6374 101.581 97.1174 98.0667C97.5644 94.5528 98.9054 88.2917 99.3854 86.5028C99.8644 84.7458 100.758 81.2639 100.854 80.4333C100.982 79.5708 101.493 78.4847 102.547 77.6542C103.569 76.8236 104.56 76.1208 106.093 76.2486C107.626 76.3764 109.447 77.4944 110.725 80.2736C112.003 83.0847 113.472 86.2792 114.143 87.8125C114.558 88.7708 116.986 91.8375 118.232 93.3389C119.446 94.8722 120.915 97.5236 122.736 98.3222C124.557 99.1208 125.483 99.4083 128.39 99.8556C129.955 100.111 131.553 101.133 134.524 101.421C135.674 101.549 138.421 101.165 143.883 101.549C149.346 101.9 151.742 102.06 153.499 102.219C155.287 102.379 156.501 102.699 158.194 100.846C159.887 98.993 169.375 89.6653 170.365 88.6111C171.324 87.5569 173.113 84.5542 174.422 83.5958C175.732 82.6375 180.428 79.8583 184.964 81.743C188.254 83.4361 191.545 99.9194 190.554 109.567C190.075 113.528 188.638 116.722 188.063 117.776C187.488 118.831 186.977 120.587 187.871 121.322C188.766 122.057 191.161 124.357 193.621 130.874C194.931 134.324 195.154 137.486 195.122 139.818C195.091 142.182 194.867 144.482 194.771 145.376C194.675 146.271 194.835 148.411 197.231 154.449C199.627 160.486 202.566 170.389 202.949 172.306C203.332 174.222 205.249 182.687 205.984 184.828C206.718 186.968 208.699 192.91 208.667 193.964Z" fill="#EBCC6F"/>
<path d="M138.517 216.229C142.765 215.143 144.171 211.853 149.793 212.939C147.749 212.012 147.589 210.894 145.544 211.374C148.675 210.447 152.604 208.562 154.968 208.85C152.444 208.211 152.317 207.125 150.719 207.764C152.285 206.678 154.489 204.633 154.489 202.749C152.285 205.112 147.429 207.444 145.704 207.444C147.269 208.243 146.79 208.531 148.068 208.531C145.417 208.69 139.283 212.779 136.472 210.415C136.632 213.067 132.096 213.706 133.661 216.389C130.53 215.303 129.892 216.549 128.965 215.143C127.719 217.667 124.269 216.549 123.471 218.912C122.544 217.347 122.065 215.462 120.021 214.664C121.586 217.028 120.021 219.04 118.935 220.318C118.296 218.753 116.411 218.433 116.283 216.708C114.878 218.433 113.312 217.794 113.472 219.999C112.226 219.36 111.268 217.187 111.268 214.983C109.862 217.954 104.208 217.635 102.803 219.232C102.164 217.986 100.151 217.028 100.599 215.143C98.5544 216.868 97.1494 215.303 96.9894 216.708C94.3374 215.143 91.3354 214.057 91.8144 211.374C89.7694 212.619 88.3644 210.735 87.5654 213.099C86.0004 211.374 83.1894 208.722 83.0294 206.199C82.2304 208.403 81.6244 206.678 82.2304 209.329C80.5054 207.125 74.5324 203.356 74.4044 199.778C73.6054 201.024 73.4784 200.257 73.3184 201.503C72.8394 198.692 72.2324 196.168 71.2744 194.283C70.3474 192.399 66.7374 188.789 66.2584 175.468C66.2584 175.372 66.2584 175.244 66.2584 175.149C68.1114 173.264 70.5074 171.124 73.4784 168.887C75.2994 167.514 73.9254 168.312 73.5104 168.6C73.1264 168.856 69.5804 171.539 66.2584 174.893C66.1944 173.104 66.1624 171.507 66.1624 170.101C68.5904 168.824 70.9224 167.833 72.4244 167.386C73.1264 167.162 73.9254 166.619 72.4244 167.099C71.6894 167.322 69.0694 168.44 66.1304 169.942C66.1304 169.367 66.1304 168.792 66.1304 168.281C68.3994 167.354 70.4754 166.651 71.9124 166.3C72.8074 166.076 73.8614 165.437 71.9444 165.917C71.2104 166.108 68.9424 166.907 66.1304 168.057C66.1304 167.099 66.1624 166.236 66.2264 165.437C67.5684 165.054 69.0054 164.671 70.5394 164.319C73.2544 163.681 71.3374 163.872 70.6994 164C70.4114 164.064 68.6224 164.447 66.2264 165.182C66.3864 162.786 66.6744 161.029 67.1534 159.368C68.9424 159.368 70.8584 159.4 72.9034 159.56C75.6824 159.751 73.7974 159.336 73.1584 159.304C72.8074 159.272 70.4114 159.112 67.2174 159.144C67.5044 158.154 67.8554 157.196 68.2714 156.142C70.3794 156.621 72.2324 157.164 73.4784 157.675C74.2444 157.994 75.2674 158.026 73.6374 157.387C72.9994 157.132 70.9224 156.557 68.3354 155.982C68.5904 155.311 68.9104 154.64 69.2294 153.874C70.0604 151.925 70.7944 150.168 71.4334 148.507C74.1494 150.36 76.8004 152.628 78.1104 154.129C78.5894 154.672 79.3554 154.832 78.3334 153.81C77.6304 153.107 74.9154 150.519 71.4974 148.283C72.8394 144.674 73.7014 141.543 73.8934 138.061C74.2124 132.886 78.2694 125.826 82.0394 121.897C85.6494 118.128 89.1304 114.678 93.0284 113.432C96.9574 112.186 99.8644 109.343 99.8644 108.097C99.8644 106.851 97.8194 104.008 97.8194 100.271C97.8194 96.5013 100.439 81.0402 102.771 78.4847C103.569 77.6222 103.825 77.6541 104.336 77.6541C103.601 77.9736 103.41 79.0597 103.41 79.6986C104.017 78.5805 104.783 78.8041 104.783 78.8041C104.783 78.8041 103.921 79.443 103.985 81.2638C104.56 80.2736 105.039 79.443 105.774 78.9958C105.518 79.5069 105.199 80.3055 105.23 80.9763C105.678 80.1458 106.476 80.1777 106.955 80.3375C106.349 80.4972 105.837 80.9763 105.646 81.6791C106.221 81.2638 106.7 81.3277 107.211 81.4875C106.38 81.6791 105.454 82.9569 105.454 83.5958C106.285 82.8611 106.7 82.7333 107.211 82.893C106.476 83.2763 105.262 85.6402 105.103 88.9944C105.805 88.675 105.965 88.4513 106.476 88.5472C105.933 88.9305 104.975 92.2208 105.262 93.0513C105.774 91.8694 106.796 90.8791 107.818 90.8152C107.115 91.8055 106.828 94.2652 106.061 94.6166C107.083 94.9361 108.968 96.6291 109.862 97.843C110.757 99.0569 108.84 99.9513 108.01 99.7916C107.179 99.6319 105.965 99.9194 105.55 100.303C106.349 100.303 106.7 100.654 106.7 100.654C106.7 100.654 105.262 100.814 104.624 101.517C104.432 100.462 104.4 99.9833 104.687 98.6416C104.017 99.7916 103.889 99.8236 103.953 100.303C103.729 99.4402 103.122 96.8208 103.442 95.543C103.761 94.2972 103.953 93.0194 103.729 92.0291C103.569 92.5722 103.505 92.8916 103.505 93.2111C103.218 92.7638 103.186 92.1569 103.282 91.55C103.346 90.975 103.09 91.1027 102.93 90.4C102.867 92.093 103.154 93.1152 103.282 93.6264C103.41 94.1375 102.483 96.1819 102.451 97.4277C102.419 98.6736 102.579 99.2805 102.771 99.7277C102.324 99.3444 102.1 99.3763 101.876 98.993C101.908 99.6638 102.451 101.421 102.962 101.868C102.292 101.708 102.068 101.9 101.78 101.485C101.812 102.283 102.068 103.274 102.483 103.433C101.844 103.497 101.685 103.433 101.493 103.082C101.557 103.721 101.685 104.392 102.068 104.615C101.333 104.583 100.982 104.775 100.822 105.062C101.301 104.903 101.493 105.222 101.493 105.222C101.493 105.222 100.758 105.542 100.854 106.053C101.237 105.765 101.589 105.925 101.365 106.244C101.142 106.564 101.174 106.66 100.886 106.915C101.525 107.043 101.557 107.267 101.429 107.49C101.94 107.043 102.26 105.701 103.442 105.574C104.624 105.446 106.029 104.903 106.412 104.232C106.796 103.561 108.169 101.708 109.735 101.644C111.3 101.581 111.044 100.75 109.799 100.782C109.926 100.335 110.342 100.239 110.661 100.303C110.214 99.9513 110.469 99.6638 109.958 99.6C110.661 98.9611 111.811 99.7277 111.492 100.494C112.13 100.367 113.664 100.431 114.207 100.622C114.079 100.431 114.207 100.271 113.76 100.207C114.462 100.047 114.91 100.494 116.155 100.558C117.401 100.622 119.989 100.399 121.107 100.718C122.193 101.069 128.805 102.283 131.68 103.306C131.169 102.954 130.594 102.315 131.808 102.858C133.022 103.401 137.878 103.785 139.699 103.146C139.219 103.689 139.379 103.721 138.9 103.944C140.753 103.721 148.068 102.667 150.911 103.465C149.601 103.561 149.857 103.881 148.867 104.04C150.432 104.392 152.38 106.181 153.467 109.215C152.38 108.544 151.901 108.864 151.422 108.321C151.901 109.886 154.201 110.11 155.128 110.972C154.297 111.068 154.074 111.228 154.776 111.707C155.447 112.186 155.926 112.282 156.853 113.496C156.022 113.4 155.543 113.336 155.543 113.336C155.543 113.336 156.789 114.326 157.524 114.422C158.258 114.518 159.408 114.837 160.047 115.987C158.897 115.349 158.578 115.764 158.067 115.508C158.801 116.243 159.312 116.562 160.111 116.722C159.185 117.457 158.546 117.297 158.13 117.201C159.344 117.872 160.367 118.032 161.101 118.607C160.111 118.607 159.792 118.926 159.792 118.926C159.792 118.926 162.155 119.182 162.986 120.14C161.58 119.917 161.485 120.236 161.485 120.236C161.485 120.236 163.146 121.801 163.88 121.29C163.944 121.961 163.817 122.281 163.369 122.6C164.583 122.185 164.935 122.281 165.254 121.929C165.318 122.728 164.903 123.303 164.679 123.59C165.669 123.367 166.34 121.769 167.714 120.971C166.915 122.217 167.554 122.76 167.554 122.76C167.554 122.76 168.449 122.44 168.928 121.546C169.822 122.44 168.608 123.431 169.726 124.485C170.046 123.814 170.397 123.814 170.365 123.335C171.164 123.686 171.1 123.91 171.1 124.325C171.899 123.271 172.186 122.951 172.602 122.025C173.017 121.099 173.528 120.715 174.167 120.715C173.752 121.386 173.911 122.856 174.327 123.431C175.157 122.696 173.816 118.319 178.863 115.892C177.936 117.106 176.563 118.862 176.147 120.747C175.764 122.632 175.572 124.581 175.828 125.762C176.563 123.686 177.17 122.472 177.234 120.556C177.297 118.639 179.342 116.914 181.61 115.349C183.878 113.783 183.782 113.144 183.718 112.633C182.824 113.847 181.61 114.646 180.46 115.061C181.514 113.847 183.047 112.122 183.079 111.292C181.227 112.729 179.949 113.815 179.661 114.806C179.31 113.017 180.204 109.471 181.897 108.449C180.332 108.768 178.192 112.122 177.521 114.103C178 110.876 180.045 107.682 182.025 106.308C184.006 104.935 183.495 103.944 184.836 103.178C183.335 103.433 182.281 103.817 182.536 102.507C182.792 101.197 182.313 100.878 183.175 100.207C181.866 100.207 180.492 100.686 181.227 101.421C181.961 102.187 182.025 102.667 182.057 102.954C181.386 102.315 177.202 100.718 175.093 101.644C176.595 101.517 181.482 102.699 182.664 104.903C180.747 102.89 174.263 102.954 172.953 104.36C174.806 104.008 175.604 106.117 177.777 106.212C176.211 106.947 174.167 106.596 173.177 106.053C172.186 105.51 170.717 105.925 169.918 107.49C169.119 109.056 168.385 109.439 167.65 109.662C168.64 109.822 170.046 109.439 170.557 108.864C171.068 108.321 171.803 108.385 172.602 108.512C173.4 108.64 174.295 108.065 174.614 107.362C174.646 108.353 173.241 110.301 172.314 110.685C174.071 110.11 174.231 110.11 175.061 109.535C174.391 110.525 172.761 112.506 169.854 114.422C173.272 112.761 174.742 111.899 175.253 111.164C174.774 112.665 170.972 114.806 169.375 116.499C167.778 118.192 166.244 119.789 165.733 120.524C165.254 119.981 164.871 119.533 164.999 118.831C164.487 119.342 164.296 119.661 164.455 120.012C163.817 119.086 162.922 118.799 163.242 117.744C162.667 118.192 162.571 118.639 162.571 118.639C162.571 118.639 162.571 117.393 163.561 116.275C164.551 115.189 163.785 114.007 163.497 113.496C163.497 114.582 162.251 115.189 162.187 116.019C162.155 116.85 161.964 117.201 161.964 117.201C161.964 117.201 160.942 116.403 161.069 114.326C161.197 112.25 161.9 111.515 163.529 110.844C161.964 110.972 161.676 111.228 161.293 111.547C162.443 109.822 163.178 108.608 164.104 108.033C162.858 108.417 162.092 109.119 162.092 109.119C162.092 109.119 162.89 107.362 164.136 106.819C165.382 106.276 166.053 105.925 166.372 105.062C165.286 105.957 164.647 105.606 163.976 106.276C165.286 104.519 165.861 103.625 167.075 102.539C168.289 101.485 168.417 100.846 168.512 100.367C167.778 101.261 166.5 102.635 165.701 103.242C166.5 101.453 167.235 100.079 168.289 99.5041C167.554 99.4722 167.235 99.4402 166.947 99.6638C167.171 98.8333 168.704 96.725 168.992 97.3C169.279 97.875 169.343 98.1305 169.151 98.5138C169.822 97.9708 169.119 96.4375 169.662 96.3097C170.205 96.1819 170.237 96.3736 170.365 96.693C170.844 95.9583 171.739 93.3069 172.985 93.0833C172.282 92.8916 172.346 92.4444 171.771 92.7958C173.272 91.7097 173.816 91.2625 174.135 90.7833C174.454 90.3041 174.486 89.9208 174.87 89.6972C174.295 89.8569 174.199 89.7291 173.784 90.2083C174.167 89.3458 174.167 88.4833 174.934 87.5569C173.879 88.3555 172.474 90.0166 172.122 90.6236C172.729 90.2722 172.697 90.4319 172.761 90.3041C172.378 91.0069 171.228 92.2847 170.812 92.7C171.292 92.5402 171.196 92.7319 171.388 92.5083C171.036 93.0194 170.397 93.4027 170.046 93.6902C170.397 93.818 170.461 93.7541 170.685 93.6583C170.046 94.2333 169.439 94.8402 168.928 95.2236C169.119 95.4152 169.439 95.3513 169.63 95.3513C169.119 95.8305 168.097 95.8944 167.746 96.5014C168.225 96.4694 168.385 96.5014 168.576 96.3416C167.426 97.268 166.692 97.7152 166.404 98.2263C167.043 98.1625 166.883 98.1944 166.883 98.1944C166.883 98.1944 165.957 99.5361 165.318 100.111C165.829 100.111 165.797 100.303 166.117 100.047C165.797 100.75 165.542 101.037 164.935 101.421C165.286 101.549 165.446 101.549 165.605 101.389C165.286 102.187 164.264 102.379 163.721 102.411C164.36 102.794 164.647 102.699 164.935 102.539C164.551 103.721 162.571 104.392 162.379 105.701C161.74 105.318 161.389 105.382 161.389 104.392C160.75 105.414 160.814 105.765 161.037 106.085C160.622 106.244 160.175 106.212 159.983 105.925C160.303 106.66 160.718 107.139 161.389 107.458C160.207 107.49 159.983 107.267 159.792 106.915C159.76 107.746 159.504 108.321 160.239 108.512C158.897 108.736 158.194 109.343 157.364 109.151C158.354 109.726 159.472 109.471 160.079 110.046C159.217 110.174 158.386 109.662 157.843 110.078C157.3 110.493 157.204 110.94 157.3 111.515C156.725 110.429 156.214 110.014 156.469 109.471C155.607 109.599 154.744 109.087 154.457 108.576C155.479 108.8 155.894 107.682 156.98 107.522C158.035 107.362 158.546 106.149 158.546 106.149C158.546 106.149 158.035 106.819 157.14 106.947C156.246 107.075 155.287 107.746 154.489 107.49C155.032 107.043 154.457 106.181 154.808 105.637C153.626 105.957 153.786 104.487 152.7 104.551C154.201 103.881 156.342 103.657 157.396 103.369C157.012 103.337 156.885 103.21 156.597 103.21C157.619 103.146 158.833 102.539 159.249 101.9C159.696 101.261 159.951 100.526 160.622 100.047C160.143 101.293 160.43 101.644 160.303 102.475C161.197 101.932 161.005 101.389 161.964 100.718C160.942 100.91 161.037 100.686 160.91 101.069C161.101 100.207 162.219 98.45 163.785 98.0986C163.21 98.0986 163.146 97.7472 162.794 97.7791C164.328 97.1402 165.19 96.3416 165.414 95.8625C164.711 96.2139 164.903 95.7347 164.519 96.0541C165.254 95.4152 168.992 91.4222 170.205 90.3041C171.42 89.1861 172.282 87.9083 173.017 86.8222C173.752 85.7361 175.956 82.9569 179.15 82.2861C182.345 81.6152 182.952 83.3402 184.006 83.4361C182.504 83.9472 181.035 83.1805 180.141 83.7555C181.227 84.1708 182.217 85.0013 182.952 84.8097C182.536 85.6083 182.728 85.9597 181.738 86.1194C182.728 86.5347 183.111 87.0458 183.974 86.6305C183.463 87.7805 181.897 88.9944 181.195 89.3458C183.335 88.8347 183.846 89.0902 184.293 88.4194C183.974 89.5055 182.217 90.0486 181.195 90.368C182.824 90.5916 184.07 90.0166 185.156 90.5277C186.242 91.0388 186.37 91.3583 186.657 91.9013C185.763 91.6458 184.836 91.6458 184.261 92.1569C185.731 92.2208 186.402 93.0833 186.817 93.6583C185.571 93.1472 184.197 93.4347 183.686 94.0736C185.06 94.0097 187.232 95.2875 187.488 96.2138C186.082 95.7027 185.284 95.9902 184.932 96.15C185.827 96.15 187.807 98.6736 187.967 99.8555C186.753 98.7694 185.731 98.4819 184.996 99.3764C185.635 99.2166 187.456 99.8875 187.775 101.357C187.041 101.261 186.402 101.037 186.114 101.421C186.625 101.421 187.999 101.932 187.999 102.922C187.999 103.912 188.254 104.871 187.775 105.382C188.51 105.318 188.861 105.062 189.085 104.743C189.021 105.669 188.254 106.819 187.424 107.299C188.35 107.299 188.67 107.139 188.989 106.819C189.309 106.5 189.916 108.864 188.638 109.343C187.328 109.822 186.753 110.269 185.922 110.078C186.497 110.717 188.159 110.749 188.893 110.429C188.478 111.324 187.967 112.058 187.168 112.154C188.095 112.793 188.222 112.793 188.638 112.569C188.286 113.464 187.264 114.869 186.497 114.454C187.232 115.604 187.136 115.924 186.913 116.978C185.986 116.403 185.443 115.732 184.517 116.307C185.507 116.562 185.731 116.946 185.731 117.553C185.092 117.233 183.782 118.128 183.271 119.533C183.91 119.214 184.102 119.597 184.645 119.054C184.229 120.3 181.546 123.175 180.556 122.856C179.566 122.536 178.192 121.961 179.757 120.779C178.543 121.035 177.936 121.865 177.681 122.983C177.425 124.069 176.946 126.529 176.116 127.168C175.285 127.807 173.496 128.222 172.825 126.689C172.154 125.187 172.41 125.06 172.602 124.229C171.516 125.219 171.803 126.753 170.397 125.858C168.992 124.964 168.672 124.549 167.746 124.357C169.886 125.858 174.167 128.637 175.541 130.426C176.914 132.215 179.054 134.324 179.725 135.282C179.534 134.579 179.054 134.292 179.502 133.429C179.693 134.483 181.578 136.656 182.377 137.326C182.345 137.358 182.313 137.358 182.281 137.358C183.303 137.806 185.188 138.828 185.092 140.617C186.018 139.435 188.861 139.115 189.788 139.69C188.702 138.668 187.36 137.806 186.274 138.189C187.616 137.39 187.935 137.326 188.542 137.806C188.222 136.624 186.018 135.921 187.839 134.994C186.817 134.611 185.763 132.918 187.488 132.375C186.561 132.215 185.284 132.854 184.453 132.79C183.622 132.726 181.514 132.215 180.684 132.535C181.738 132.024 183.495 132.439 184.613 131.864C185.699 131.289 187.424 131.033 188.382 131.449C187.903 130.65 187.647 130.362 187.072 130.362C187.999 129.787 188.159 128.989 188.159 128.222C187.52 129.053 187.264 129.212 186.913 129.468C187.807 127.807 187.967 126.689 187.807 125.507C187.328 126.146 186.721 128.478 185.507 127.967C184.293 127.456 182.377 128.031 183.303 126.337C182.504 127.168 180.428 128.861 181.163 126.657C180.236 127.807 180.172 128.606 179.661 128.733C180.907 129.085 182.313 130.139 181.866 130.969C182.856 130.81 184.389 131.033 185.22 129.819C184.804 131.033 180.3 132.343 180.109 131.449C179.885 130.554 179.054 129.404 178.288 129.149C177.489 128.893 177.649 123.143 178.927 123.399C180.172 123.654 181.482 123.654 182.441 123.047C181.195 124.037 180.811 125.028 181.61 125.028C182.409 125.028 183.239 125.028 184.07 123.814C184.9 122.6 186.146 122.153 186.881 121.578C186.657 122.951 185.731 124.453 184.996 124.708C186.082 124.804 186.466 124.612 186.721 124.229C186.402 125.379 185.891 126.274 185.316 126.433C186.785 126.082 187.679 125.06 187.775 124.197C187.871 123.303 186.977 120.587 187.36 119.406C188.286 116.467 190.65 113.751 190.65 105.765C190.65 97.7791 188.286 82.9569 184.389 81.9027C180.46 80.8486 176.818 82.5736 174.838 84.2027C172.857 85.8319 172.378 87.7166 170.142 89.793C167.905 91.8694 159.312 100.622 158.162 101.804C157.012 102.986 155.543 102.89 154.137 102.699C152.732 102.475 139.092 101.517 136.249 101.836C133.437 102.156 130.147 100.494 128.486 100.271C126.825 100.047 122.449 99.4083 120.724 96.8847C118.999 94.3611 114.846 89.2819 114.207 88.1C113.568 86.918 110.917 79.5388 109.032 77.9097C107.147 76.2486 105.582 76.2486 104.08 77.1111C102.579 77.9736 101.493 78.9958 101.269 80.7847C101.046 82.5736 97.0214 95.9902 97.5964 101.261C98.1394 106.5 100.662 107.778 99.0974 108.64C97.5324 109.503 96.0304 111.611 93.0284 112.346C89.9934 113.081 83.9554 118.926 81.8794 121.131C79.8034 123.335 73.7014 132.854 73.3824 136.815C73.1904 139.275 72.2004 143.939 71.0504 147.74C69.7084 146.91 68.2714 146.111 66.8014 145.568C62.9684 144.067 63.0964 144.354 66.8654 145.792C68.1114 146.271 69.5494 147.037 70.9864 147.996C70.2834 150.232 69.5494 152.181 68.8464 153.139C68.3994 153.778 67.9834 154.64 67.6004 155.726C64.0864 154.992 59.9014 154.385 56.9304 154.608C51.7874 155.024 52.3304 155.183 57.3464 154.864C60.2534 154.672 64.1184 155.183 67.5364 155.886C67.2174 156.844 66.9294 157.931 66.6744 159.112C61.9464 159.208 55.7494 159.783 51.6924 161.828C45.9424 164.735 48.8804 163.489 52.1714 161.892C54.7264 160.614 59.6144 159.496 66.6424 159.368C66.2584 161.221 65.9714 163.265 65.7794 165.406C61.1474 166.811 54.5354 169.303 50.9254 172.753C46.2614 177.225 48.7214 175.181 51.4044 172.657C53.6084 170.581 58.3684 167.897 65.7794 165.693C65.7154 166.587 65.6514 167.514 65.6194 168.44C61.6584 170.101 56.8674 172.401 53.8644 174.669C48.8494 178.471 49.4554 178.247 54.4074 174.637C57.3784 172.465 61.7224 170.261 65.6194 168.664C65.5874 169.239 65.5874 169.846 65.5874 170.421C63.0644 171.762 60.4124 173.328 58.6554 174.861C54.8864 178.087 55.3654 177.896 59.0714 174.797C60.7964 173.36 63.1924 171.858 65.5874 170.581C65.5874 171.794 65.6514 172.976 65.7474 174.094C65.7794 174.606 65.8434 175.085 65.8754 175.596C64.0544 177.512 62.3934 179.589 61.4354 181.569C59.1994 186.233 60.4444 183.997 61.7544 181.346C62.4254 179.972 63.7674 178.087 65.9074 175.851C66.5144 182.975 67.3444 190.482 71.3054 195.657C72.6794 197.446 71.4014 203.196 70.8904 204.026C70.3794 204.857 69.8364 206.103 69.8364 206.103C69.8364 206.103 72.2324 202.876 74.8514 204.729C78.3014 207.189 86.7674 214.728 88.4924 216.453C88.0124 213.929 88.1724 212.683 91.7824 215.814C95.3924 218.944 110.917 226.164 131.457 224.279C125.196 223.64 126.282 223.481 125.483 222.874C128.454 223.033 135.833 221.149 137.399 220.222C138.964 219.296 140.05 217.699 143.5 218.817C141.807 217.347 140.082 216.101 138.517 216.229Z" fill="#442A14"/>
<path d="M182.121 137.39C181.738 137.231 181.482 137.167 181.482 137.167C181.482 137.167 181.642 137.582 182.121 137.39Z" fill="#442A14"/>
<path d="M144.618 143.236C144.426 144.035 142.765 145.408 142.414 145.856C142.062 146.303 141.903 146.59 141.008 146.782C140.114 146.974 140.625 147.836 139.826 147.804C139.028 147.772 138.772 148.028 138.133 147.996C137.494 147.964 137.047 148.283 136.824 148.539C136.632 148.826 135.737 148.667 135.162 148.539C134.619 148.411 134.683 148.028 136.249 147.485C137.814 146.942 138.612 147.421 140.146 146.494C142.701 144.993 143.276 143.524 143.372 142.885C143.436 142.246 142.861 142.15 142.382 143.044C141.903 143.939 141.232 144.194 140.178 145.632C139.124 147.069 134.875 146.974 133.437 146.974C132 146.974 133.118 146.143 133.214 145.568C133.31 144.993 132.16 144.642 132.192 142.821C132.224 141.032 133.182 139.435 133.342 138.7C133.501 137.965 134.715 138.349 134.779 138.924C134.843 139.499 134.939 139.786 135.322 139.307C135.705 138.828 136.504 138.572 136.824 138.221C137.143 137.869 136.792 137.358 136.025 137.326C135.29 137.294 133.789 137.199 134.172 136.624C134.555 136.049 134.204 136.112 133.31 136.272C132.415 136.432 130.85 137.646 129.38 139.531C127.943 141.415 128.007 143.332 128.901 144.929C129.796 146.526 133.15 147.644 133.917 147.868C134.715 148.092 134.843 148.507 134.3 148.539C133.757 148.571 133.661 148.922 132.639 148.379C131.617 147.836 129.029 147.644 127.847 146.942C126.665 146.239 125.387 146.079 124.812 146.015C125.004 144.642 124.397 144.162 123.726 144.29C123.567 144.322 123.886 143.236 124.397 142.789C124.717 142.693 124.844 142.406 124.301 142.501C123.758 142.597 122.736 142.086 124.397 141.799C126.058 141.511 124.749 140.936 124.11 140.521C123.471 140.106 123.599 139.818 124.333 139.818C125.068 139.818 125.899 140.01 125.867 138.892C125.835 137.774 127.08 138.317 128.071 137.806C129.061 137.294 130.658 135.569 131.585 134.867C132.511 134.196 133.533 133.94 135.418 134.004C137.303 134.068 138.517 134.994 139.219 135.537C139.922 136.081 140.944 136.017 141.455 136.112C141.967 136.24 143.692 138.86 144.49 139.626C145.289 140.425 145.736 141.16 145.736 141.703C145.864 142.31 144.81 142.469 144.618 143.236ZM127.719 144.482C127.528 144.162 126.793 144.003 126.633 144.258C126.474 144.514 126.41 144.705 127.112 145.185C127.879 145.696 129.157 146.079 128.614 145.44C128.103 144.897 127.975 144.865 127.719 144.482ZM138.676 138.892C138.676 138.668 138.485 138.317 138.101 138.349C137.622 138.381 137.526 138.636 137.526 138.892C137.526 139.179 137.846 139.371 138.101 139.307C138.357 139.275 138.676 139.115 138.676 138.892Z" fill="#442A14"/>
<path d="M88.2044 135.825C88.1724 135.442 88.8754 135.282 89.0354 134.803C89.1944 134.324 89.3224 133.653 89.7374 133.461C90.1854 133.269 90.4404 133.429 90.3124 134.036C90.1854 134.675 90.1214 136.112 91.1754 137.135C92.2294 138.157 92.9004 138.189 92.3894 137.358C91.8784 136.528 91.3994 135.154 91.5264 133.908C91.6544 132.662 92.3574 131.608 92.7404 131.001C93.1244 130.426 93.8904 129.34 94.4974 129.117C95.1364 128.893 94.7854 128.733 94.0184 128.797C93.2834 128.861 92.1014 129.692 91.5904 130.682C91.0794 131.672 91.0794 131.672 90.9514 132.024C90.8244 132.375 89.0034 133.461 89.8654 131.896C90.3444 131.033 91.5584 128.606 92.6764 127.456C93.8264 126.306 95.1044 126.369 95.9354 126.369C96.7654 126.369 98.4904 126.912 98.6504 127.296C98.8104 127.679 99.3534 128.222 99.8644 128.19C100.375 128.158 100.503 128.382 100.407 128.669C100.343 128.957 100.055 129.372 100.599 129.532C101.142 129.692 100.024 130.906 100.726 130.874C101.429 130.842 102.228 129.979 102.164 130.65C102.132 131.321 101.11 134.1 100.599 134.962C100.087 135.825 98.8424 138.349 96.9574 139.658C95.0724 141 92.2614 141.543 91.7824 141.16C91.3034 140.776 91.9744 140.297 92.0694 140.01C92.1334 139.722 92.2614 139.499 93.2834 139.531C94.3054 139.562 95.0084 139.403 96.0624 139.339C97.1174 139.275 97.4684 138.796 97.7554 138.444C98.0434 138.093 97.2124 138.604 96.5424 138.732C95.8714 138.86 95.3284 139.115 94.5934 139.019C93.8584 138.892 92.7084 138.157 92.2934 138.444C91.8784 138.732 91.3034 139.275 91.2394 139.818C91.1754 140.361 90.7604 140.617 90.5684 139.946C90.3764 139.275 90.4084 138.86 89.9934 138.764C89.5464 138.7 89.1304 138.253 89.2584 137.774C89.3864 137.294 89.0674 137.199 88.5874 137.135C88.1084 137.103 88.1084 136.943 88.5244 136.751C88.8754 136.592 88.2364 136.24 88.2044 135.825ZM97.9794 132.024C98.0434 132.503 98.7144 132.726 98.9054 132.407C99.1294 132.056 99.0974 132.375 99.5444 131.832C99.9924 131.289 99.7684 130.842 99.3534 130.778C98.9054 130.714 98.4264 130.554 98.1394 130.937C97.8514 131.289 97.8834 131.544 97.9794 132.024ZM95.6474 131.864C95.6474 132.183 95.9354 132.407 96.0944 132.343C96.2544 132.279 96.5424 132.056 96.5744 131.768C96.6054 131.481 96.5104 131.225 96.1904 131.257C95.9034 131.257 95.6474 131.512 95.6474 131.864ZM94.0824 132.024C94.3374 132.183 94.5294 131.449 94.9764 131.353C95.4244 131.225 95.6474 130.778 95.4874 130.362C95.2964 129.947 94.7214 129.564 94.0824 130.394C93.6034 131.001 93.7304 131.8 94.0824 132.024Z" fill="#442A14"/>
<path d="M125.515 180.835C124.876 180.388 124.717 180.26 124.685 179.908C124.685 180.26 124.493 180.388 124.685 180.643C124.205 180.451 123.279 179.653 123.119 179.206C122.928 180.1 122.544 180.547 122.896 181.09C122.385 180.931 121.746 180.451 121.586 179.94C121.299 179.813 120.915 179.397 120.915 179.397C120.915 179.397 120.692 180.324 120.947 180.707C120.436 180.419 120.117 180.643 120.117 180.324C120.149 180.899 119.989 180.899 119.989 180.899C119.989 181.346 120.372 182.304 120.851 182.592C121.33 182.879 121.33 182.879 121.554 183.263C121.905 182.943 121.874 182.783 121.842 182.432C122.544 182.4 124.237 182.656 124.557 182.272C124.876 181.889 124.749 181.474 125.451 181.442C126.186 181.378 126.154 181.282 125.515 180.835Z" fill="#442A14"/>
<path d="M94.9124 172.849C95.0724 173.168 95.2963 173.424 95.3923 173.743C95.4553 174.062 96.1904 173.583 96.1904 173.104C96.1904 172.625 95.9673 172.433 95.7113 172.465C95.4873 172.497 95.2004 172.178 95.0724 171.922C94.8174 171.315 93.8904 170.9 93.9864 171.603C94.0504 172.305 93.1244 171.89 92.9004 172.433C92.6764 172.976 92.3254 172.785 92.2294 173.136C92.1654 173.487 91.3994 173.2 91.3674 173.008C91.3354 172.817 90.8874 173.168 90.8874 172.657C90.8874 172.146 90.6644 172.337 90.5364 172.529C90.4084 172.721 89.7374 172.369 89.7374 172.88C89.7374 173.392 90.2804 173.2 90.4404 173.328C90.6004 173.455 91.0154 173.36 91.1754 173.615C91.3354 173.839 91.3674 174.446 91.7184 174.446C92.0694 174.446 91.7504 173.807 92.1974 173.743C92.6124 173.679 92.9004 173.328 93.1244 173.424C93.3474 173.519 93.4754 173.999 93.1874 174.094C92.9004 174.19 93.0603 174.829 93.0603 175.085C93.0603 175.308 93.7624 175.979 93.6034 175.276C93.4434 174.574 93.5714 173.775 93.8264 173.711C94.0824 173.647 94.2744 173.999 94.3374 174.222C94.4014 174.446 94.9764 174.382 95.0404 174.222C95.1044 174.062 94.8804 173.711 94.7534 173.647C94.6254 173.583 94.7534 173.232 94.6254 173.104C94.5934 172.976 94.7534 172.529 94.9124 172.849Z" fill="#442A14"/>
<path d="M96.1264 175.18C96.4144 175.564 96.9254 175.819 96.9254 175.244C96.9254 174.701 97.4044 174.765 97.5644 174.605C97.7244 174.446 97.5644 173.711 97.0854 173.775C96.6054 173.839 96.1904 173.967 96.0944 174.254C95.9994 174.605 95.2324 174.605 95.4244 174.957C95.6154 175.34 95.8394 174.797 96.1264 175.18Z" fill="#442A14"/>
<path d="M98.1394 171.347C98.5224 171.635 98.8424 171.124 98.6184 170.9C98.3944 170.708 97.8194 170.549 97.8194 170.549C97.5004 170.421 96.7654 170.612 96.7334 171.028C96.7014 171.411 96.9254 171.571 96.7334 171.73C96.5424 171.89 96.3184 172.305 96.7334 172.369C97.1804 172.401 96.9254 171.89 97.2124 171.73C97.4684 171.603 97.7244 171.092 98.1394 171.347Z" fill="#442A14"/>
<path d="M98.8744 173.679C99.0334 173.519 99.1934 172.625 99.1934 172.625C99.1614 172.082 98.7464 172.178 98.7144 172.433C98.6824 172.689 98.9054 173.328 98.5224 173.36C98.1394 173.392 97.6284 173.296 97.8514 173.583C98.0754 173.903 98.7144 173.839 98.8744 173.679Z" fill="#442A14"/>
<path d="M99.7364 176.139C99.9284 176.362 100.279 176.842 100.567 176.682C100.854 176.522 100.918 175.308 100.279 175.276C99.8964 175.244 99.5444 175.915 99.7364 176.139Z" fill="#442A14"/>
<path d="M100.439 169.079C100.95 169.015 100.918 168.025 100.439 168.057C99.9604 168.089 99.6084 168.025 99.4494 167.833C99.2894 167.642 98.9694 167.961 99.0334 168.153C99.0654 168.344 98.6504 168.664 98.6504 168.664C98.3304 168.664 98.0754 168.696 98.0754 169.047C98.0754 169.399 98.2674 169.75 98.8104 169.718C99.3534 169.686 98.8104 168.824 99.2574 168.855C99.6404 168.887 99.9284 169.143 100.439 169.079Z" fill="#442A14"/>
<path d="M100.279 170.101C99.7364 170.133 99.7044 170.421 99.7044 170.676C99.7044 170.964 100.024 171.219 100.215 170.9C100.407 170.58 100.503 170.676 100.79 170.612C101.11 170.612 100.982 170.069 100.279 170.101Z" fill="#442A14"/>
<path d="M101.844 173.551C102.324 173.424 102.675 173.104 102.579 172.817C102.483 172.529 101.876 172.465 101.493 172.497C101.205 172.529 100.758 172.881 100.822 173.328C100.918 173.743 101.365 173.679 101.844 173.551Z" fill="#442A14"/>
<path d="M103.41 169.111C102.93 169.143 102.707 169.494 102.707 169.814C102.707 170.133 103.186 170.389 103.633 170.325C104.112 170.261 104.272 169.974 104.176 169.622C104.08 169.271 103.41 169.111 103.41 169.111Z" fill="#442A14"/>
<path d="M105.294 172.018C104.847 172.401 104.655 172.242 104.655 172.242C104.176 172.305 103.985 172.817 103.953 173.136C103.921 173.455 104.496 173.264 104.528 173.647C104.56 174.03 105.039 173.711 105.039 173.455C105.039 173.168 105.742 173.392 105.678 173.072C105.614 172.753 105.55 172.593 105.837 172.497C106.125 172.369 105.742 171.635 105.294 172.018Z" fill="#442A14"/>
<path d="M106.987 167.865C107.179 167.482 107.371 166.428 106.444 167.067C106.157 167.29 105.869 167.769 106.093 167.929C106.317 168.089 106.796 168.249 106.987 167.865Z" fill="#442A14"/>
<path d="M107.914 171.187C107.435 171.379 107.051 172.369 107.403 172.497C107.754 172.625 108.105 172.785 108.425 172.561C108.744 172.369 108.425 171.922 108.617 171.667C108.808 171.411 108.233 171.092 107.914 171.187Z" fill="#442A14"/>
<path d="M109.894 166.683C110.374 166.524 110.437 166.108 110.118 165.885C109.799 165.661 109.415 165.853 109.415 165.853C109 165.917 108.68 166.172 108.712 166.779C108.744 167.418 109.383 167.418 109.607 167.29C109.862 167.194 109.415 166.843 109.894 166.683Z" fill="#442A14"/>
<path d="M112.865 166.012C112.833 165.789 112.354 165.533 112.354 165.533C112.13 165.661 111.875 166.364 112.226 166.46C112.578 166.556 112.897 166.268 112.865 166.012Z" fill="#442A14"/>
<path d="M115.421 166.14C115.485 165.917 115.293 165.501 114.91 165.597C114.526 165.661 114.399 166.076 114.59 166.172C114.782 166.3 115.325 166.364 115.421 166.14Z" fill="#442A14"/>
<path d="M114.079 170.453C113.76 170.453 113.568 170.517 113.824 170.804C114.079 171.124 114.399 171.028 114.494 170.868C114.622 170.708 114.367 170.453 114.079 170.453Z" fill="#442A14"/>
<path d="M103.314 176.778C103.537 176.299 104.368 176.554 104.304 176.107C104.24 175.628 103.729 175.181 103.633 174.861C103.537 174.542 102.962 174.35 102.994 174.925C103.058 175.5 103.41 175.755 103.058 175.851C102.419 176.043 101.653 175.756 102.068 176.426C102.483 177.097 103.122 177.257 103.314 176.778Z" fill="#442A14"/>
<path d="M104.592 179.174C104.815 178.95 104.592 178.599 104.272 178.343C103.985 178.119 103.442 178.567 103.601 178.918C103.729 179.301 104.368 179.397 104.592 179.174Z" fill="#442A14"/>
<path d="M105.837 175.947C105.901 176.299 105.262 176.267 105.199 176.778C105.135 177.289 105.294 177.928 105.71 177.768C106.125 177.608 106.349 177.033 106.349 176.682C106.349 176.331 106.412 176.043 106.7 175.947C107.019 175.851 106.924 175.468 106.636 175.436C106.317 175.34 105.774 175.564 105.837 175.947Z" fill="#442A14"/>
<path d="M125.643 184.604C125.132 184.221 124.653 184.381 123.439 184.285C124.078 184.572 124.237 185.211 124.972 185.658C124.11 185.658 123.726 185.275 122.672 184.636C122.257 184.381 121.969 184.381 121.778 184.476C122.864 186.553 123.694 188.693 124.078 190.642C125.26 196.999 124.461 193.9 123.758 190.29C123.471 188.853 122.768 186.904 121.586 184.604C121.394 184.828 121.299 185.211 121.235 185.531C120.692 185.083 119.989 185.818 119.989 185.818C119.989 185.818 121.299 186.489 120.915 187.383C120.596 187.064 120.276 186.936 119.957 186.936C120.34 187.767 120.628 188.597 120.851 189.332C122.161 193.932 121.81 193.517 120.468 189.044C120.276 188.374 120.021 187.671 119.701 186.968C119.094 187.064 118.424 187.479 117.625 187.575C118.455 187.735 119.829 188.821 119.51 189.619C118.647 188.469 116.794 188.725 115.74 188.757C116.155 189.044 116.89 189.3 117.689 189.396C116.89 189.747 116.092 189.619 115.229 189.364C114.367 189.076 113.121 189.556 113.632 189.843C114.143 190.131 116.092 190.546 116.092 190.546C116.092 190.546 115.293 190.897 114.494 190.674C113.664 190.45 113.664 189.939 112.418 190.194C113.057 190.322 113.6 190.578 113.44 191.696C112.737 190.993 112.035 191.057 111.012 190.833C109.99 190.61 109.287 189.747 109.287 189.747C109.287 189.747 110.629 189.971 111.364 190.162C112.099 190.354 112.099 189.108 112.099 189.108C112.099 189.108 113.025 189.268 113.855 188.789C113.376 188.661 113.408 188.757 112.993 188.086C113.632 188.374 114.718 188.597 115.612 188.086C114.91 188.054 114.462 187.415 113.919 187.383C114.239 187.192 114.494 187.192 114.974 187.351C115.453 187.511 116.028 187.351 117.082 187.192C116.699 187 116.219 186.681 115.389 186.681C115.772 186.489 116.443 186.393 117.178 186.617C117.912 186.808 118.775 186.776 118.935 186.393C119.094 186.01 118.647 185.914 118.583 185.115C118.679 185.339 118.807 185.467 118.935 185.531C118.583 184.764 118.168 183.997 117.753 183.262C117.689 183.422 117.657 183.71 117.689 184.029C117.721 184.668 117.657 185.626 117.114 185.626C116.571 185.626 117.274 184.987 116.699 184.54C116.124 184.061 115.325 184.317 114.814 183.997C114.303 183.678 113.983 183.294 113.728 183.167C113.44 183.039 112.993 183.678 113.887 184.189C114.782 184.7 115.676 185.211 116.06 185.722C115.261 186.233 114.303 185.85 113.983 185.435C113.664 185.051 112.961 184.381 112.546 184.029C112.162 184.54 112.003 185.531 112.514 185.914C113.025 186.297 113.919 186.233 114.271 186.968C113.568 186.681 111.907 186.169 111.396 186.744C111.396 185.818 111.524 183.869 110.31 183.933C109.096 183.965 108.393 184.86 109.096 185.722C109.799 186.585 109.83 187.064 110.31 187.064C110.086 187.287 109.799 187.256 109.447 187.735C108.872 187.415 108.617 186.712 108.425 186.01C108.137 186.585 107.882 187.703 108.137 188.597C107.403 188.086 106.476 187 105.901 186.936C106.253 187.607 106.253 187.99 106.157 188.342C105.678 187.607 103.793 187.128 104.592 186.457C105.39 185.786 106.157 185.562 105.742 184.732C105.326 183.901 104.911 183.901 104.911 183.901C104.911 183.901 104.751 186.106 103.09 186.553C103.665 185.626 104.176 184.253 103.601 183.774C103.026 183.294 102.292 182.783 102.228 184.349C102.164 185.914 101.653 186.233 101.653 186.233C101.653 186.233 101.749 184.412 100.662 183.71C99.5764 183.039 98.7144 183.614 99.7684 184.381C100.822 185.179 101.142 185.946 101.237 186.617C100.439 185.818 100.024 185.371 99.4174 184.987C98.7784 184.636 98.8104 185.179 99.0654 185.882C99.3214 186.617 100.151 187.032 100.151 187.032C100.151 187.032 97.2764 186.042 96.6374 185.051C96.2864 185.531 96.1584 186.042 96.5744 186.521C95.2644 185.626 94.5934 185.211 94.6894 184.221C94.2104 184.317 94.1144 184.476 93.4434 183.901C93.7624 184.572 94.4334 185.211 94.3694 186.137C93.7944 185.786 93.1244 185.083 93.1244 185.083C93.1244 185.083 93.7944 185.914 93.6354 186.553C92.8364 186.393 92.5804 186.201 92.5494 185.754C92.0694 186.489 91.4944 186.425 91.6544 187C91.1434 185.85 92.3254 184.476 90.6644 183.199C89.6104 182.464 89.4184 182.272 89.8334 183.294C90.2494 184.349 91.0474 185.531 90.3444 186.425C89.6744 187.319 88.5244 187.735 88.0444 187.735C88.8754 186.808 89.6104 186.649 89.7054 185.754C89.8014 184.86 89.6104 184.381 89.0354 185.083C88.4604 185.754 88.1403 186.585 87.6293 186.872C87.1183 187.128 86.5434 187.351 86.5434 187.351C86.5434 187.351 87.3424 186.84 87.4694 186.425C87.6294 186.01 87.7894 183.806 86.4794 184.924C86.7034 184.125 85.6804 183.933 85.4254 184.604C85.3614 183.806 85.5214 182.464 84.6264 182.24C84.2114 182.879 83.9554 183.869 84.3074 184.381C83.4764 183.582 82.9014 183.167 83.2214 182.432C82.7104 182.656 82.3904 182.368 82.2304 182.783C81.9114 182.049 81.9114 181.41 82.3264 180.994C81.4324 180.771 81.2724 179.429 80.8254 179.94C80.3144 179.11 81.3363 178.726 81.1443 177.96C80.9213 177.161 81.7834 177.033 82.3904 176.331C83.0294 175.66 82.6464 174.829 83.2214 174.669C83.7964 174.51 83.5724 175.66 84.0514 175.596C84.5304 175.532 85.6803 175.692 86.3513 175.436C87.0223 175.181 87.6613 176.235 88.1723 175.66C88.6833 175.085 88.3964 174.925 87.8534 174.031C87.3424 173.136 87.7894 172.561 86.8624 172.082C85.9364 171.603 84.9144 172.242 85.5534 172.753C86.1924 173.264 87.1184 173.999 87.0224 174.733C86.5434 174.414 85.6174 173.232 85.0744 173.583C84.5624 173.935 84.1794 174.158 83.9874 174.637C83.8284 173.999 84.4994 173.264 84.7864 172.433C85.0424 171.603 84.5304 172.274 84.1474 172.657C83.7964 173.008 82.4224 174.446 81.7834 174.797C81.1444 175.149 81.2724 175.596 80.9534 176.203C80.6334 176.842 80.2184 176.522 80.1224 176.203C80.0264 175.883 80.7614 174.574 81.5924 173.903C82.4224 173.232 83.8284 172.274 84.1154 171.539C84.3714 170.804 84.8504 170.549 85.4254 170.644C86.0004 170.74 85.5854 170.325 85.3614 169.974C85.1374 169.622 84.8503 169.047 84.5303 169.494C84.2113 169.974 83.7324 171.379 82.7424 172.114C81.7514 172.849 81.9113 173.104 81.3363 173.519C80.7613 173.935 79.7073 175.5 79.5473 175.915C79.1963 175.66 80.0264 173.136 82.1034 171.251C80.8894 171.986 79.3244 172.721 78.7494 173.647C78.7494 172.433 80.9854 171.187 81.4644 170.453C81.9434 169.718 81.9434 169.207 82.3584 169.367C82.7744 169.526 83.0933 170.261 83.3493 169.431C83.6043 168.6 83.2533 167.769 82.6143 168.057C81.9753 168.376 81.1443 168.951 80.4743 169.782C79.8033 170.612 79.2284 171.156 79.1004 170.293C78.9724 169.431 79.2604 170.037 80.0904 169.303C80.9214 168.568 81.8153 167.642 81.3363 167.514C80.8573 167.418 79.8354 169.143 79.2604 169.335C78.6854 169.558 77.5993 169.431 78.6853 168.824C79.7713 168.185 80.6654 166.939 81.0804 166.619C81.4964 166.3 82.3904 166.683 83.0294 167.418C83.6684 168.153 85.7443 169.782 84.0193 167.897C82.2943 166.012 82.0713 165.246 81.5603 165.278C81.0493 165.342 80.4104 165.693 79.8994 166.492C79.3874 167.29 79.1644 167.322 78.6534 167.482C78.1424 167.642 79.0684 167.226 79.2284 166.843C79.3874 166.492 80.6334 165.054 81.0494 164.799C81.4644 164.543 80.9854 164.224 80.6974 163.489C80.3784 162.754 80.1224 162.403 80.1224 162.403C80.1224 161.54 80.7614 161.221 81.4644 162.083C82.1674 162.946 84.3714 162.786 85.2334 161.924C86.0004 161.157 86.3834 159.911 85.8404 159.304C85.7764 159.208 85.6174 159.304 85.6494 159.4C85.9364 160.901 84.2434 162.211 83.3804 161.924C82.4544 161.604 82.5184 159.719 81.7194 159.4C80.9214 159.081 80.0583 157.994 80.4743 156.812C80.8573 155.631 82.1354 150.839 89.0354 150.839C95.9354 150.839 98.4584 152.947 99.9284 153.906C101.429 154.832 104.24 156.174 103.697 157.196C103.154 158.218 101.972 161.508 102.451 161.732C102.93 161.956 101.589 163.297 102.228 163.297C102.867 163.297 103.729 164.479 102.771 164.703C101.844 164.926 100.662 165.885 100.886 165.342C101.11 164.799 101.589 163.553 100.95 163.776C100.311 164 99.3854 165.501 99.9284 165.661C100.471 165.821 101.174 165.885 101.269 166.46C101.365 167.035 100.726 166.939 100.087 166.619C99.4494 166.3 96.3183 166.939 95.9353 167.961C95.5513 168.983 94.9124 170.069 95.5514 170.006C96.1904 169.942 96.1904 171.411 95.1684 170.868C94.1464 170.325 94.7854 169.782 94.1464 169.686C93.5074 169.622 93.1244 168.824 92.4854 169.047C91.8464 169.271 93.2834 169.75 92.9644 169.91C92.6444 170.069 92.9004 171.411 92.0374 171.315C91.1754 171.251 91.8144 170.229 91.1754 170.069C90.5364 169.91 90.3124 170.229 90.3124 170.708C90.3124 171.187 89.4504 170.772 89.2904 170.549C89.1304 170.325 88.5874 170.612 88.5874 171.411C88.5874 172.21 89.4504 175.724 90.1534 175.787C90.8554 175.851 90.8554 175.308 91.0154 174.861C91.1754 174.382 90.6964 176.107 91.3994 176.267C92.1014 176.426 92.8043 176.426 93.0603 175.883C93.2833 175.34 93.5394 176.426 93.5394 176.969C93.5394 177.512 95.1044 178.311 95.1044 177.129C95.1044 175.947 95.4244 178.471 96.6694 178.471C97.9154 178.471 99.4804 178.631 101.621 179.972C103.729 181.314 104.368 180.771 104.144 181.474C103.921 182.176 105.55 182.56 105.71 182.017C105.869 181.474 106.572 180.994 106.955 181.793C107.339 182.592 108.137 184.061 108.457 183.901C108.776 183.742 108.712 182.943 108.84 182.751C108.968 182.56 110.086 182.432 110.597 182.592C110.533 182.208 110.853 181.346 113.185 182.304C113.121 181.41 113.217 180.962 114.654 181.474C116.092 181.985 116.411 182.304 115.453 180.962C116.187 181.186 116.411 181.346 116.922 181.474C115.453 179.078 113.887 176.906 112.737 175.66C112.226 175.085 111.843 174.222 112.961 175.436C113.504 176.043 115.357 178.567 117.178 181.506C117.21 181.506 117.274 181.537 117.305 181.537C116.954 181.026 117.178 180.324 117.178 180.324C117.178 180.324 117.817 180.739 117.912 181.154C118.264 180.675 118.647 179.589 119.158 180.451C119.669 181.314 120.724 182.815 120.596 183.39C120.468 183.965 118.679 183.199 118.232 183.007C118.136 182.943 118.04 182.943 117.976 182.975C118.455 183.774 118.903 184.604 119.286 185.435C119.478 185.403 119.669 185.211 119.797 184.892C119.957 185.562 120.596 184.892 120.66 184.349C120.883 184.572 121.171 184.476 121.458 184.253C119.701 180.899 116.922 176.778 112.897 172.178C112.45 171.667 112.194 171.347 112.067 171.187C112.067 171.219 112.035 171.283 112.003 171.315C111.779 171.571 111.492 171.635 111.012 171.667C110.533 171.731 110.821 170.581 111.332 170.517C111.843 170.453 112.067 170.772 112.099 171.028C112.29 171.156 112.737 171.571 112.961 171.794C113.408 172.274 118.455 177.992 121.682 184.093C121.842 183.901 122.033 183.71 122.161 183.486C122.512 183.614 124.014 183.518 124.94 183.678C124.653 183.518 124.78 183.358 124.046 182.879C125.228 183.071 125.643 183.742 125.643 184.604ZM89.8334 168.153C89.8334 166.843 89.7374 164.447 89.4184 163.553C89.0994 162.658 88.7474 162.818 88.7794 163.617C88.8114 164.256 89.0994 165.757 89.0034 166.843C88.9074 167.929 88.6514 170.037 89.0034 169.878C89.3544 169.718 91.5264 169.654 93.2514 168.408C93.8264 167.993 89.8334 169.462 89.8334 168.153ZM90.6324 160.167C90.8244 159.56 91.7823 157.707 93.1553 157.228C93.8263 157.004 93.3794 156.94 92.8044 157.132C92.4534 157.26 91.3034 157.899 90.7604 158.953C90.3764 159.687 90.2494 160.358 90.3764 160.71C90.4724 161.061 90.7284 161.54 90.8244 161.317C90.9514 161.061 90.4404 160.742 90.6324 160.167ZM96.3184 164.032C95.1364 163.84 94.2744 163.329 94.2744 163.329C93.4434 162.818 92.9004 162.115 92.7724 162.243C92.6124 162.339 92.8044 162.531 92.8044 162.722C92.8364 162.914 92.6124 163.201 92.2294 162.658C91.8784 162.147 91.0473 161.285 91.5583 162.371C92.0373 163.457 93.2513 164.287 94.1143 164.511C94.9763 164.735 94.6573 165.406 96.0303 165.374C97.3723 165.342 97.5004 164.224 96.3184 164.032ZM98.1074 160.518C97.5644 159.272 97.3084 158.058 96.6374 157.707C95.6474 157.164 94.0184 156.972 94.9124 157.483C95.8074 157.994 97.2764 158.697 97.1174 160.007C96.9574 161.317 97.5964 161.956 99.0014 162.147C100.407 162.371 101.301 161.732 101.525 160.774C101.749 159.847 102.26 157.739 100.854 158.058C100.055 158.25 100.854 159.112 100.694 160.007C100.535 160.901 100.471 161.668 99.8004 161.572C99.1294 161.476 98.4264 161.253 98.1074 160.518ZM86.6394 156.653C86.1604 156.237 85.8724 156.014 85.1374 155.439C84.4034 154.864 83.1893 154.704 82.4223 155.311C81.6553 155.918 81.7834 156.717 81.9434 156.717C82.1034 156.717 81.9434 156.397 82.2624 156.078C82.5824 155.758 84.4034 155.151 85.3614 156.749C85.6494 157.228 85.2654 157.803 85.6494 158.09C86.0004 158.346 86.0004 157.739 86.3194 157.515C86.6394 157.324 86.9584 156.94 86.6394 156.653ZM87.4374 165.501C87.4374 164.287 87.2143 162.946 87.0863 163.904C86.9583 164.894 86.9904 166.971 86.9904 167.769C87.0224 168.568 87.4374 168.792 87.4694 167.674C87.5334 166.587 87.4374 165.501 87.4374 165.501ZM94.1784 155.279C95.8074 155.758 97.3724 156.844 97.9474 157.1C98.5224 157.356 97.4364 155.631 96.6374 155.375C95.8394 155.119 94.9763 154.8 95.3923 154.544C95.8073 154.289 95.8073 153.299 94.9763 153.299C94.1463 153.299 92.9324 152.947 92.7724 152.5C92.6124 152.085 90.8874 151.19 90.8244 151.669C90.7604 152.149 92.4854 153.394 91.7184 153.49C90.9194 153.586 90.2494 151.989 89.8334 152.181C89.4184 152.404 90.5684 153.394 89.5144 153.171C88.4604 152.947 87.8854 151.925 87.6934 152.244C87.4694 152.564 87.4694 152.564 87.4694 152.564C87.4694 152.564 87.7894 153.458 86.4154 153.299C85.0424 153.139 84.7544 152.372 84.1794 152.564C83.6044 152.787 83.2534 152.979 82.7744 153.299C82.3264 153.618 81.5283 154.8 82.4223 154.289C83.3173 153.778 84.9784 153.714 87.5014 154.193C90.2174 154.704 92.5494 154.832 94.1784 155.279ZM99.1934 181.122C97.8514 181.122 94.0824 181.058 90.9194 180.228C87.7574 179.397 85.3614 177.96 85.3614 177.96C84.7224 177.608 82.2624 176.171 83.5084 177.449C84.7544 178.758 86.8944 180.164 91.6224 181.09C96.3824 182.017 98.6504 181.793 99.4494 181.633C100.279 181.474 100.503 181.122 99.1934 181.122Z" fill="#442A14"/>
<path d="M76.2574 169.526C76.6404 169.271 76.8324 168.76 76.0974 169.335C75.3624 169.91 71.6894 172.881 69.7084 176.267C68.3034 178.662 68.4944 178.631 69.8364 176.267C71.1784 173.903 74.5324 170.676 76.2574 169.526Z" fill="#442A14"/>
<path d="M81.9754 200.033C82.1994 197.318 83.9244 193.006 85.0104 191.249C85.2654 190.865 85.2334 190.322 84.7864 191.121C84.3394 191.951 82.2623 196.168 81.8473 200.097C81.5923 202.844 81.7194 202.717 81.9754 200.033Z" fill="#442A14"/>
<path d="M82.9014 188.246C82.5504 188.821 80.9214 191.696 80.5374 194.347C80.2824 196.2 80.4104 196.136 80.6334 194.315C80.8574 192.494 82.2304 189.524 83.0614 188.342C83.2534 188.054 83.2534 187.671 82.9014 188.246Z" fill="#442A14"/>
<path d="M70.7624 182.528C71.8804 179.365 75.1073 174.733 76.8323 172.976C77.2153 172.593 77.3753 171.922 76.6403 172.753C75.9053 173.583 72.2964 177.96 70.6354 182.528C69.4534 185.818 69.6444 185.722 70.7624 182.528Z" fill="#442A14"/>
<path d="M118.903 166.715C122.065 166.076 129.189 165.981 133.022 167.163C136.855 168.344 137.143 168.185 133.182 167.035C127.592 165.406 120.308 166.14 118.871 166.332C117.465 166.492 118.168 166.843 118.903 166.715Z" fill="#442A14"/>
<path d="M118.04 170.485C121.65 170.868 129.476 173.104 133.757 175.755C138.037 178.375 138.612 178.503 134.236 175.724C129.572 172.753 119.669 170.357 118.008 170.165C116.283 169.974 117.21 170.421 118.04 170.485Z" fill="#442A14"/>
<path d="M135.482 184.828C130.211 179.589 118.168 173.583 116.155 172.849C114.015 172.082 115.069 172.912 116.092 173.264C120.596 174.829 129.987 180.068 134.875 184.732C139.762 189.396 140.401 189.715 135.482 184.828Z" fill="#442A14"/>
<path d="M141.519 183.326C135.099 176.682 119.765 172.785 118.775 172.529C118.072 172.369 115.868 172.114 118.967 172.912C130.818 175.979 138.005 180.164 141.008 183.199C143.979 186.265 146.726 188.725 141.519 183.326Z" fill="#442A14"/>
<path d="M203.332 175.532C201.128 163.936 196.017 153.171 194.963 148.858C193.909 144.578 195.25 144.769 194.739 136.847C194.388 131.576 190.139 123.526 188.574 122.632C187.616 122.089 188.51 124.037 189.788 125.283C191.034 126.529 193.397 131.48 193.941 135.569C194.484 139.658 193.302 141.671 193.717 146.239C194.132 150.807 195.666 154.161 197.327 158.537C198.988 162.914 201.575 172.274 202.278 174.765C202.981 177.289 203.843 182.751 205.089 186.042C206.335 189.332 207.07 191.6 207.293 193.485C207.517 195.369 203.332 198.5 201.256 199.969C201.991 198.596 201.767 198.308 200.841 196.296C200.841 197.669 200.329 198.915 198.636 201.119C196.975 203.324 190.906 206.869 189.213 208.435C187.552 210 186.817 208.658 184.517 210.735C185.763 210.224 185.763 211.374 187.871 211.98C183.367 212.3 181.482 213.865 178.352 214.28C179.182 213.769 179.406 213.13 180.236 211.885C175.86 213.865 175.636 215.75 174.263 216.485C172.889 217.219 170.908 216.389 167.778 215.974C169.567 215.558 168.417 214.919 170.589 213.674C168.385 213.897 167.235 213.993 165.254 214.824C163.274 215.654 160.974 213.993 160.974 213.993C160.974 213.993 162.539 213.162 162.954 212.204C161.389 213.035 161.293 212.3 158.674 212.428C158.45 214.089 155.735 214.504 154.808 213.578C154.074 215.047 148.643 216.708 148.643 216.708C148.643 216.708 147.812 217.028 149.154 214.728C146.758 216.293 146.63 220.701 146.63 220.701C146.63 220.701 147.046 219.871 148.196 218.497C149.346 217.124 151.646 217.986 153.85 216.517C156.054 215.047 157.811 215.59 160.654 215.782C163.465 216.005 162.858 216.932 161.293 217.858C159.728 218.785 157.332 219.839 155.032 220.478C156.405 220.797 159.217 220.254 160.558 219.328C161.932 218.401 166.724 217.251 168.289 217.667C165.574 217.986 164.424 218.721 163.274 219.647C165.254 219.008 165.669 219.871 169.343 219.136C173.017 218.401 175.828 217.475 179.374 215.271C182.92 213.067 183.974 214.121 186.689 213.482C189.404 212.843 190.65 211.501 192.535 209.808C191.161 210.543 191.161 210.319 189.596 210.128C191.257 209.808 192.535 207.732 194.292 207.189C196.081 206.678 198.157 206.039 198.796 204.25C197.327 204.474 197.422 204.761 195.761 205.496C196.272 204.569 197.422 203.515 200.266 202.461C203.077 201.407 205.185 198.596 208.22 193.772C207.932 190.354 205.536 187.128 203.332 175.532Z" fill="#442A14"/>
<path d="M99.8964 192.079C100.471 191.504 98.5864 190.035 98.3304 189.428C98.0434 188.789 96.3504 187.543 95.5194 187.351C96.1904 188.182 96.6374 188.278 96.8294 189.012C96.0944 188.917 95.2964 188.789 95.1364 188.214C94.9764 189.012 94.8494 190.258 94.5294 189.3C94.1784 188.374 93.9544 188.469 94.2424 187.799C93.4434 188.278 93.5714 189.428 93.2194 190.003C92.6444 188.917 91.9744 188.374 92.2614 187.639C91.4304 188.374 91.3674 189.108 91.6864 189.715C91.0794 189.619 90.6644 189.364 90.2804 189.715C90.2174 188.98 90.2804 188.501 90.7924 187.99C89.8334 188.342 89.3864 188.469 89.0354 188.98C88.8114 188.246 88.4604 187.926 88.4604 187.926C88.4604 187.926 88.8114 189.587 86.7674 188.022C86.7674 188.022 88.6194 190.546 91.2394 191.568C90.6644 190.897 90.5684 190.322 90.5684 190.322C90.5684 190.322 91.6544 190.578 92.1974 191.249C92.7724 191.919 93.3794 192.143 94.0184 192.399C93.6354 191.6 93.6354 190.929 94.1464 190.45C94.0184 190.961 94.7534 191.025 94.9444 191.6C95.3924 191.376 95.1684 190.194 95.1684 190.194C95.1684 190.194 96.1904 190.13 96.1264 191.025C96.6374 190.29 97.0214 190.354 97.0214 191.089C97.6284 190.769 97.6284 190.162 97.6284 190.162C97.6284 190.162 98.9694 191.983 99.0334 192.814C99.5444 192.079 99.4804 191.504 99.3854 191.089C99.8964 191.632 99.8324 191.472 99.8964 192.079Z" fill="#442A14"/>
<path d="M188.382 167.769C187.136 167.258 186.082 167.258 185.156 168.185C185.795 166.524 187.552 165.565 187.679 164.224C187.775 162.85 185.891 162.435 187.36 160.997C185.891 161.732 184.964 160.997 185.795 159.624C186.625 158.25 187.456 156.493 187.775 154.8C186.402 156.046 185.699 156.046 185.699 156.046C185.699 156.046 187.264 153.426 185.603 150.519C185.379 152.404 184.197 153.043 183.399 153.331C184.804 153.969 184.964 153.746 185.699 153.107C185.603 155.311 184.772 156.781 183.814 157.196C185.06 157.515 185.475 157.419 186.018 157.292C185.092 159.081 183.303 163.361 182.345 164.096C184.741 164.511 185.284 164.735 186.306 164C185.571 165.981 183.91 167.226 182.345 167.546C183.718 168.185 183.718 169.335 184.868 169.111C183.207 170.357 183.303 172.337 181.514 173.2C183.303 173.711 184.741 174.031 185.795 173.615C184.549 175.596 181.099 177.065 180.045 177.289C181.514 178.343 182.568 178.439 183.591 178.343C181.802 179.812 178.575 182.304 176.371 182.624C178.895 183.869 176.052 184.412 174.582 185.243C175.956 185.754 176.786 186.074 177.713 185.658C176.659 187.032 175.828 188.597 174.359 189.332C175.413 190.067 177.297 189.747 177.297 189.747C177.297 189.747 173.847 192.143 171.643 192.558C172.889 193.197 172.889 194.028 174.039 193.932C171.1 195.306 166.404 196.456 164.328 196.136C165.382 197.062 167.682 197.701 167.682 197.701C167.682 197.701 165.893 199.362 164.136 199.682C165.605 200.417 168.96 200.001 170.301 198.947C168.64 199.171 168.64 198.947 167.362 199.171C168.928 198.117 173.432 195.817 176.563 195.817C174.902 194.251 175.189 193.101 175.189 193.101C175.189 193.101 178.543 191.632 180.716 192.175C179.981 191.025 176.531 191.249 176.531 191.249C176.531 191.249 178.511 189.46 179.757 189.46C179.118 189.14 178.096 188.406 176.946 188.725C178.096 187.894 178.927 185.914 181.546 186.01C183.846 186.01 183.335 184.125 185.092 183.39C182.472 183.39 180.588 184.636 178.831 184.86C180.492 183.614 181.131 181.729 182.504 181.186C183.878 180.675 184.293 178.662 186.37 178.247C184.804 177.417 184.389 176.682 183.431 176.778C185.092 175.532 186.881 174.893 187.616 173.647C186.37 171.858 185.092 171.667 185.092 171.667C185.092 171.667 186.082 168.824 188.382 167.769Z" fill="#442A14"/>
<path d="M88.3003 147.229C89.2263 146.431 91.1113 145.089 91.9423 144.418C92.7723 143.747 93.2833 142.885 91.0793 144.546C88.8753 146.207 88.4923 146.59 88.2043 146.846C85.7123 149.114 86.3833 148.858 88.3003 147.229Z" fill="#442A14"/>
<path d="M249.109 162.019C254.731 155.279 259.906 136.496 258.436 122.025C256.967 107.554 246.234 69.7 244.924 60.7236C243.614 51.7472 237.289 35.8389 226.492 25.7125C221.668 21.1764 218.154 20.3778 211.893 15.7139C205.632 11.05 201.895 7.8236 195.378 6.00277C188.861 4.18193 175.7 1.72221 167.075 1.84999C158.45 1.97777 153.818 0.572209 149.474 3.28749C145.161 5.97082 144.235 8.04721 140.785 9.16527C137.335 10.2833 136.568 10.6667 135.29 11.7528C133.98 12.8389 133.022 15.3625 130.019 16.7361C127.017 18.1097 122.001 23.1569 120.851 25.1694C117.529 24.85 103.122 20.3778 100.183 23.668C97.2443 26.9583 93.6034 32.6125 93.8584 37.1805C94.1144 41.7486 89.9294 51.0444 90.6964 67.7194C91.0154 74.4597 82.8373 79.8903 80.6013 83.2444C78.3653 86.5986 69.5804 101.069 67.6964 105.669C65.8114 110.269 62.1054 118.99 53.0014 121.961C43.8654 124.9 35.1123 131.481 34.2823 132.854C33.4513 134.228 32.1733 137.422 32.7803 138.7C33.3873 139.978 35.1763 138.7 35.6553 141.128C36.1353 143.556 42.4604 144.897 45.1434 144.418C47.8264 143.971 50.8614 141.99 58.2404 142.565C71.4974 143.556 79.7394 116.499 88.5234 115.796C94.0184 115.349 119.35 115.86 137.526 123.335C155.703 130.81 171.707 143.587 178.224 145.408C184.741 147.229 194.356 149.114 203.556 153.075C212.724 157.068 216.461 160.518 220.518 160.678C224.575 160.837 230.229 158.985 233.839 158.857C237.449 158.761 245.595 166.236 249.109 162.019Z" fill="#EBCC6F"/>
<path d="M249.109 162.019C254.731 155.279 259.906 136.496 258.436 122.025C256.967 107.554 246.234 69.7 244.924 60.7236C243.614 51.7472 237.289 35.8389 226.492 25.7125C221.668 21.1764 218.154 20.3778 211.893 15.7139C205.632 11.05 201.895 7.8236 195.378 6.00277C188.861 4.18193 175.7 1.72221 167.075 1.84999C158.45 1.97777 153.818 0.572209 149.474 3.28749C145.161 5.97082 144.235 8.04721 140.785 9.16527C137.335 10.2833 136.568 10.6667 135.29 11.7528C133.98 12.8389 133.022 15.3625 130.019 16.7361C127.017 18.1097 122.001 23.1569 120.851 25.1694C117.529 24.85 103.122 20.3778 100.183 23.668C97.2443 26.9583 93.6034 32.6125 93.8584 37.1805C94.1144 41.7486 89.9294 51.0444 90.6964 67.7194C91.0154 74.4597 82.8373 79.8903 80.6013 83.2444C78.3653 86.5986 69.5804 101.069 67.6964 105.669C65.8114 110.269 62.1054 118.99 53.0014 121.961C43.8654 124.9 35.1123 131.481 34.2823 132.854C33.4513 134.228 32.1733 137.422 32.7803 138.7C33.3873 139.978 35.1763 138.7 35.6553 141.128C36.1353 143.556 42.4604 144.897 45.1434 144.418C47.8264 143.971 50.8614 141.99 58.2404 142.565C71.4974 143.556 79.7394 116.499 88.5234 115.796C94.0184 115.349 119.35 115.86 137.526 123.335C155.703 130.81 171.707 143.587 178.224 145.408C184.741 147.229 194.356 149.114 203.556 153.075C212.724 157.068 216.461 160.518 220.518 160.678C224.575 160.837 230.229 158.985 233.839 158.857C237.449 158.761 245.595 166.236 249.109 162.019Z" stroke="#442A14" stroke-width="1.4779" stroke-miterlimit="10"/>
<path d="M233.775 154.736C236.746 155.343 245.691 160.007 245.754 161.285C245.786 162.562 243.966 162.69 240.931 160.837C237.704 158.857 233.871 157.292 230.229 158.538C226.588 159.783 222.403 160.262 220.518 159.911C218.634 159.56 215.088 159.081 208.284 154.512C205.76 152.532 194.931 149.082 187.616 147.133C187.616 147.133 177.234 146.015 162.251 135.537C157.108 131.928 147.876 126.401 139.092 123.175C130.307 119.949 121.49 117.201 108.936 115.987C96.3824 114.774 87.4373 114.965 84.5303 116.275C81.0483 117.872 70.9224 138.604 60.2214 141.703C58.8794 142.086 54.9504 141.096 51.1804 141.735C47.4114 142.406 44.7924 141.192 41.5654 142.246C38.3394 143.3 35.4644 141.543 38.9784 141.16C42.4924 140.776 43.3224 137.039 41.1824 137.614C39.0424 138.189 38.2434 138.828 35.4324 138.317C32.6214 137.806 34.4424 135.026 35.2724 134.899C43.8334 133.621 44.4724 129.372 54.2154 127.328C63.9584 125.283 70.2194 121.801 72.5514 118.096C74.8834 114.39 73.8294 117.872 74.4364 118.351C75.0434 118.831 75.5544 118.415 75.4264 119.885C75.2984 121.354 73.9253 124.612 76.1293 122.632C76.8643 121.993 76.8644 123.526 77.8864 121.897C78.8764 120.268 79.7394 121.961 80.0904 119.374C80.4734 116.786 78.6534 117.681 79.1964 116.307C79.7394 114.933 81.9114 113.815 83.9234 112.889C85.9364 111.962 83.4764 110.781 87.2144 110.174C90.9514 109.567 92.1974 106.5 89.1304 105.254C86.0644 104.008 84.3713 105.126 82.4223 108.608C80.5053 112.09 73.5424 114.933 70.2834 115.572C67.0254 116.211 65.7794 116.083 68.0794 113.464C70.4114 110.812 74.9154 110.461 76.9604 108.896C79.0044 107.331 80.2504 104.583 76.6404 105.669C73.0304 106.756 70.0604 111.1 67.7284 110.397C65.3964 109.694 71.1144 103.242 72.5834 99.5361C74.0534 95.8625 82.1034 81.8069 87.3734 78.1653C92.6764 74.5236 85.2654 83.6917 83.0614 88.2597C80.8574 92.8278 78.6214 99.6319 81.3684 95.8944C84.1154 92.1569 84.5304 89.5055 86.4474 89.3778C88.3644 89.25 88.6834 86.0875 89.0984 83.4042C89.5144 80.7208 89.2264 78.1333 90.2174 73.3097C90.7924 70.4986 92.4854 67.943 92.5484 70.4986C92.6124 73.0542 92.1334 74.7792 93.2514 74.875C94.3694 74.9708 96.4783 71.8083 96.7973 68.4861C97.1173 65.1639 96.7653 62.0972 95.3923 64.8444C94.0183 67.5917 92.4214 69.3486 92.7404 65.8667C93.0604 62.3847 92.3894 58.0083 94.2104 52.1305C96.0624 46.2528 97.3404 45.9014 96.9254 50.3097C96.5104 54.718 94.7854 62.7042 96.3504 61.4264C97.9154 60.1486 99.8004 61.9055 100.119 56.8583C100.439 51.8111 97.5324 55.4847 98.6504 45.3903C99.7684 35.2958 101.397 36.5736 101.301 34.3375C101.205 32.1014 100.471 29.8014 99.0974 32.2292C97.7554 34.6569 96.2864 36.7333 96.5104 34.3694C96.7334 32.0055 98.4264 27.693 99.5124 26.3514C100.598 25.0097 107.179 26.1278 119.286 28.0764C131.361 30.025 141.04 33.8264 153.467 33.8903C165.893 33.9542 179.534 33.0278 185.443 36.1583C191.353 39.2889 196.049 43.6972 198.349 44.7194C200.649 45.7417 203.556 46.9555 202.693 47.6903C201.831 48.393 197.934 45.6458 198.541 47.6264C199.147 49.6069 203.013 52.5139 204.227 53.1208C205.441 53.7278 204.482 57.2736 205.76 58.6792C207.07 60.0847 208.028 61.2667 209.178 62.9917C210.296 64.6847 209.306 66.825 208.06 64.8125C206.814 62.8 205.536 62.8319 205.025 63.2472C204.514 63.6625 205.153 61.8097 203.556 60.4042C201.927 58.9667 200.138 57.8486 201 57.1458C201.863 56.443 197.966 55.4208 197.997 53.5042C198.029 51.5875 199.147 49.7986 196.4 48.425C193.653 47.0514 192.247 45.3264 191.034 42.9625C189.82 40.6306 187.52 38.0111 184.102 38.65C180.684 39.2889 181.642 42.5472 174.454 41.0778C167.267 39.6083 161.005 39.9597 158.833 39.4167C156.661 38.8736 153.179 41.7486 150.144 40.1833C147.11 38.618 142.094 37.8194 141.36 40.3111C140.657 42.8028 141.647 47.1792 144.267 46.4764C146.886 45.7736 145.608 42.2917 147.237 41.9722C148.867 41.6528 151.326 40.918 149.857 43.0264C148.387 45.1347 146.982 49.6069 152.828 50.3097C158.642 51.0125 166.372 53.6639 168.001 51.5875C169.63 49.5111 172.027 49.575 172.154 53.0889C172.282 56.6028 168.928 58.3597 175.764 58.6792C182.6 58.9986 186.466 68.4542 186.402 72.4472C186.338 76.4403 185.252 82.8611 189.596 85.8319C193.941 88.8028 197.391 87.525 199.339 83.8833C201.288 80.2417 204.77 73.8847 201.767 70.243C198.764 66.6014 203.939 64.2375 206.495 65.7389C209.05 67.2722 209.689 65.7389 210.647 68.8375C211.638 71.968 215.375 76.1528 212.947 76.5361C210.52 76.9514 208.827 72.7986 206.111 74.7792C203.396 76.7597 205.856 79.0597 209.018 79.5069C212.149 79.9542 214.609 77.8139 214.385 80.0181C214.161 82.2222 213.331 82.7972 211.638 83.8833C209.945 85.0014 207.9 86.2472 209.114 86.9819C210.328 87.7486 211.925 87.7167 212.532 89.5375C213.171 91.3583 212.979 93.0833 216.142 96.8847C219.272 100.686 217.292 106.564 218.602 107.969C219.911 109.375 220.231 110.844 218.953 110.876C217.675 110.908 217.132 106.564 215.056 106.532C212.979 106.5 213.203 109.375 210.999 109.024C208.795 108.64 207.868 106.819 207.613 102.635C207.357 98.4819 202.566 97.2042 200.106 99.3764C197.678 101.549 198.988 101.037 201 101.836C203.013 102.635 204.322 103.753 204.642 105.542C204.961 107.331 203.62 106.244 200.553 104.839C197.486 103.433 195.027 102.571 194.611 103.785C194.164 105.031 197.039 106.724 193.813 108.96C190.586 111.196 188.957 116.307 184.868 115.924C180.779 115.54 176.02 108.385 173.72 102.411C171.42 96.4375 169.247 94.1694 169.023 96.3736C168.8 98.5778 171.196 107.107 172.921 108.864C174.678 110.621 174.199 113.783 168.065 109.503C161.932 105.222 161.389 105.989 159.823 104.104C158.258 102.219 156.405 98.0347 155.192 99.025C153.978 100.015 154.489 101.357 155.83 102.443C157.172 103.529 157.843 106.308 160.015 106.979C162.187 107.65 165.478 109.886 166.468 111.1C167.458 112.314 165.03 112.729 162.858 112.186C160.686 111.643 159.408 114.901 162.092 115.285C164.775 115.7 171.771 117.489 174.039 116.914C176.339 116.339 184.485 117.585 186.21 119.661C187.935 121.737 187.616 125.06 186.881 127.711C186.146 130.362 190.714 127.743 187.935 131.8C185.156 135.825 196.56 129.915 199.403 131.768C202.246 133.621 201.703 137.742 205.281 138.7C208.859 139.69 214.449 139.562 215.918 140.84C217.388 142.086 215.535 143.204 216.621 143.46C217.707 143.715 219.879 142.661 220.167 141.256C220.454 139.85 221.093 138.317 221.796 139.179C222.499 140.042 225.566 136.496 223.649 141.575C221.732 146.654 220.263 143.811 219.304 146.91C218.378 150.008 219.4 150.903 218.378 151.446C217.356 151.989 215.599 150.392 212.692 149.146C209.785 147.9 211.095 147.133 216.078 147.229C218.154 147.261 217.292 146.079 214.768 144.386C212.213 142.693 210.456 141.256 206.239 141.99C202.022 142.725 201.863 139.339 199.563 138.476C197.263 137.614 190.554 139.211 186.977 138.54C183.399 137.869 182.504 133.493 175.381 133.142C168.257 132.79 168.161 125.124 158.418 120.524C148.643 115.924 147.748 113.751 151.071 113.911C154.393 114.071 157.492 114.997 155.735 111.962C153.946 108.928 151.933 101.708 148.771 101.581C145.608 101.421 144.873 105.829 146.822 106.979C148.771 108.129 149.857 110.142 151.678 111.1C153.498 112.058 153.818 113.687 149.601 112.825C145.385 111.962 140.114 111.931 141.551 113.815C142.957 115.7 148.483 121.322 140.753 115.636C132.99 109.95 116.826 107.618 109.958 107.586C103.09 107.554 102.547 105.126 102.771 102.603C103.026 100.079 105.614 99.6958 109.894 101.357C114.207 103.05 121.618 105.35 123.758 104.583C125.898 103.817 127.719 101.612 126.761 99.9194C125.803 98.2264 124.365 95.0639 118.583 95.3194C112.801 95.575 108.489 97.3958 106.828 98.3542C105.135 99.3125 102.579 99.3764 100.183 96.118C97.7873 92.8597 95.3284 90.2403 96.0944 87.2694C96.8614 84.2986 99.8324 83.3083 100.087 80.625C100.343 77.9417 101.397 80.4333 101.429 81.5514C101.493 82.6694 99.1934 84.8417 102.1 84.65C104.975 84.4583 104.943 84.7778 103.985 81.4875C103.026 78.1972 107.179 77.9736 106.029 76.8875C104.847 75.8333 102.579 76.2486 102.675 75.2903C102.771 74.3319 104.719 72.2875 105.678 72.0639C106.668 71.8403 107.051 71.0736 106.061 69.7C105.071 68.3264 102.483 66.9528 102.451 64.1097C102.419 61.2347 103.921 53.8875 101.812 59.2542C99.7044 64.6208 97.3403 69.3486 98.8103 70.5944C100.279 71.8403 102.675 73.5014 99.0654 73.0222C95.4554 72.5431 94.2424 78.293 96.6054 78.8361C98.9374 79.3792 96.6374 80.1139 95.2004 80.1458C93.7624 80.1778 92.1013 84.1389 93.0603 85.8319C94.0183 87.525 90.6324 87.8444 90.2174 88.8986C89.8014 89.9528 89.8334 93.0194 88.8754 94.6805C87.9174 96.3417 88.1404 99.0889 87.1504 99.4722C86.1604 99.8555 85.0424 101.517 87.2464 101.868C89.4504 102.219 90.6643 101.229 91.0473 98.7375C91.4623 96.2139 91.6864 92.093 91.8144 90.8472C91.9424 89.5694 93.6674 88.1639 93.7624 90.5597C93.8584 92.9556 95.0404 97.2042 96.6694 98.6417C98.2984 100.079 101.365 102.922 100.662 105.382C99.9604 107.874 99.4174 108.289 97.1484 107.267C94.8484 106.244 90.8233 108.417 94.1143 109.056C97.4043 109.694 104.08 111.643 112.067 111.419C114.622 111.356 115.932 114.326 118.679 113.815C121.426 113.272 119.254 111.164 122.225 111.611C125.196 112.058 123.95 113.687 126.601 114.262C129.253 114.837 128.837 115.764 127.112 115.732C125.355 115.732 122.832 117.074 126.921 117.776C131.01 118.479 127.336 115.253 132.479 114.806C137.622 114.358 140.944 118 141.807 119.054C142.669 120.108 142.254 121.162 140.465 119.725C138.676 118.287 134.683 116.786 132.255 117.361C129.796 117.936 130.562 118.479 133.757 118.447C136.951 118.447 137.303 121.322 142.605 122.472C147.908 123.622 153.754 129.117 158.386 130.842C163.018 132.567 164.743 132.567 167.65 134.132C170.525 135.697 175.668 140.329 177.904 140.361C180.141 140.425 183.878 141.096 187.36 143.012C190.842 144.929 197.039 143.619 198.796 145.217C200.553 146.814 201.192 150.072 203.811 149.529C206.399 148.986 209.114 149.082 212.021 150.488C214.928 151.893 218.091 155.215 219.017 154.033C219.943 152.851 221.349 149.785 223.01 148.826C224.671 147.868 224.511 144.833 225.757 143.524C227.003 142.214 230.038 138.828 228.441 133.908C226.843 128.989 229.463 128.094 228.824 124.868C228.185 121.61 227.578 114.39 224.895 110.781C222.211 107.171 220.678 106.404 220.327 100.143C219.975 93.8819 218.122 79.6986 215.886 74.843C213.65 70.0194 212.436 62.7042 208.571 56.1236C204.706 49.543 205.792 46.7639 201.927 44.0167C198.061 41.2694 191.768 35.0722 186.529 33.443C181.291 31.8139 172.474 30.3444 165.605 30.6319C158.737 30.9194 147.653 29.8653 139.028 28.4278C130.403 26.9583 125.164 26.6389 122.96 26.575C120.724 26.5111 121.107 25.9042 122.512 24.6264C123.918 23.3486 128.454 19.1319 132.703 16.5125C136.951 13.893 134.364 12.5194 138.676 10.8583C142.989 9.19721 145.64 8.17499 147.844 6.64166C150.048 5.10832 152.317 4.85277 158.29 5.87499C164.232 6.92916 160.718 3.70277 166.596 3.95832C172.474 4.21388 187.839 5.20416 189.245 7.08888C190.65 8.9736 193.589 10.0597 196.113 10.1236C198.668 10.2194 202.406 12.6472 204.003 14.2125C205.6 15.8097 208.156 14.1167 213.043 19.7069C217.931 25.2972 221.381 24.3389 223.713 26.4792C226.045 28.6194 226.46 34.5611 232.05 39.3847C237.641 44.2083 237.8 47.5944 238.599 50.8528C239.397 54.1111 242.432 55.6764 244.509 65.6111C246.585 75.5458 253.389 101.037 254.443 104.967C255.497 108.896 255.178 117.457 256.136 118.99C257.095 120.524 258.117 126.529 256.488 126.849C254.859 127.168 253.9 130.426 255.881 131.576C257.829 132.726 257.095 137.262 256.711 139.626C256.328 141.99 253.07 147.581 252.91 149.465C252.718 151.35 252.846 156.94 249.364 158.058C245.914 159.176 242.879 154.257 241.218 151.382C239.589 148.507 235.309 148.124 232.21 148.762C229.111 149.433 226.907 149.21 225.597 149.401C224.288 149.593 226.077 151.031 223.904 152.276C221.732 153.522 219.209 154.864 220.678 155.95C222.147 157.036 220.774 158.346 223.329 158.282C225.885 158.218 225.821 155.662 228.76 154.96C231.571 154.353 233.775 154.736 233.775 154.736Z" fill="#442A14"/>
<path d="M60.8486 251.144C54.0125 241.913 42.4806 242.232 27.9139 244.819C21.7486 245.746 15.0403 243.765 12.2931 239.293C15.9667 238.111 19.1611 235.492 19.5444 231.563C15.3597 224.631 3.44445 218.625 1.55972 200.768C7.8208 209.01 21.1097 210.415 28.0417 207.796C44.1097 201.758 60.7528 207.828 60.8486 213.865V251.144Z" fill="#EBCC6E" stroke="#442A14" stroke-width="1.4779" stroke-miterlimit="10"/>
<path d="M202.331 251.144C209.167 241.913 220.699 242.232 235.265 244.819C241.431 245.746 248.139 243.765 250.886 239.293C247.213 238.111 244.018 235.492 243.635 231.563C247.819 224.631 259.735 218.625 261.619 200.768C255.358 209.01 242.069 210.415 235.138 207.796C219.069 201.758 202.426 207.828 202.331 213.865V251.144Z" fill="#EBCC6E" stroke="#442A14" stroke-width="1.4779" stroke-miterlimit="10"/>
<path d="M60.7208 247.631C45.1 242.999 35.6445 231.179 34.9417 224.375C34.9417 224.343 34.9417 224.343 34.9417 224.311C34.9097 224.119 34.9097 223.96 34.9097 223.768C34.9097 223.736 34.9097 223.704 34.9097 223.672V223.512C35.0695 218.753 42.6083 215.494 50.0194 218.849C60.7208 223.704 60.8486 215.91 60.9445 214.312L60.7208 247.631Z" fill="#442A14"/>
<path d="M202.331 248.237C217.951 243.606 227.599 231.243 228.301 224.439C228.301 224.407 228.301 224.407 228.301 224.375C228.333 224.183 228.333 224.024 228.333 223.832C228.333 223.8 228.333 223.768 228.333 223.736V223.576C228.174 218.817 220.635 215.558 213.224 218.912C202.522 223.768 202.394 215.974 202.299 214.376L202.331 248.237Z" fill="#442A14"/>
<path d="M228.333 223.544V264.05C228.333 278.968 185.017 303.374 131.606 303.374C84.2639 303.374 44.8764 281.556 36.5069 269.033C35.4208 267.436 34.8778 265.775 34.8778 264.082V223.672C34.8778 223.704 34.8778 223.736 34.8778 223.768C34.8778 223.96 34.8778 224.119 34.9097 224.311C34.9097 224.343 34.9097 224.343 34.9097 224.375C35.6125 231.211 71.7417 264.912 131.574 265.36C191.853 265.743 228.333 231.626 228.333 223.544Z" fill="#EBCC6E" stroke="#442A14" stroke-width="1.4779" stroke-miterlimit="10"/>
<path d="M71.6139 272.356C68.8028 277.179 62.925 279.032 57.9736 276.157C53.0542 273.282 51.3292 267.021 54.1083 262.197C56.9194 257.374 63.2125 255.744 68.1319 258.619C71.6778 260.664 73.243 264.178 73.1153 267.915L66.4069 266.126C66.4069 265.2 66.0555 264.369 65.1292 263.826C63.5958 262.932 61.5514 263.731 60.3375 265.839C59.1555 267.883 59.4111 270.087 60.9764 271.014C62.1903 271.717 63.2444 271.493 64.1708 270.758L61.4875 269.193L63.5639 265.615L72.3486 270.726C72.1889 271.301 71.9653 271.781 71.6139 272.356Z" fill="#442A14"/>
<path d="M83.593 272.324L82.9541 274.049L87.1708 275.614L85.5736 279.926L81.3569 278.361L80.718 280.086L86.1805 282.131L84.2319 287.306L72.0291 282.738L78.8014 264.593L91.0041 269.161L89.0555 274.336L83.593 272.324Z" fill="#442A14"/>
<path d="M113.461 274.464L109.404 293.375L101.929 291.778L99.789 282.354L97.968 290.915L90.9402 289.414L94.9652 270.471L102.44 272.068L104.581 281.492L106.401 272.931L113.461 274.464Z" fill="#442A14"/>
<path d="M124.801 280.885L124.674 282.738L129.146 283.025L128.826 287.625L124.354 287.338L124.226 289.19L130.04 289.574L129.657 295.1L116.656 294.238L117.965 274.911L130.967 275.774L130.583 281.3L124.801 280.885Z" fill="#442A14"/>
<path d="M155.5 293.758L147.418 294.365L143.425 289.126L143.84 294.653L136.685 295.196L135.215 275.901L146.428 275.071C150.421 274.783 152.944 277.754 153.232 281.492C153.424 284.175 152.433 286.603 150.389 287.913L155.5 293.758ZM146.044 282.226C145.949 280.821 145.086 280.214 144.096 280.278L142.754 280.374L143.074 284.526L144.415 284.431C145.406 284.367 146.172 283.664 146.044 282.226Z" fill="#442A14"/>
<path d="M178.628 288.903L171.6 290.436L170.354 288.36L164.828 289.574L164.572 292.001L157.544 293.535L160.739 273.026L167.16 271.621L178.628 288.903ZM167.447 283.344L165.69 280.374L165.339 283.824L167.447 283.344Z" fill="#442A14"/>
<path d="M192.268 278.01L194.153 283.217L181.886 287.657L175.274 269.449L182.046 266.989L186.774 279.99L192.268 278.01Z" fill="#442A14"/>
<path d="M196.006 280.118L195.271 274.751C198.018 275.167 201.181 273.889 201.181 273.889C203.321 273.058 203.672 272.547 203.385 272.004C203.097 271.461 202.107 271.972 199.711 272.643C194.568 274.049 192.619 272.931 191.15 270.279C189.297 266.861 190.926 262.964 196.325 260.025C198.05 259.099 200.669 258.268 203.129 258.428L203.864 263.763C203.193 263.667 201.276 263.539 198.785 264.721C197.156 265.519 196.964 265.967 197.219 266.446C197.475 266.925 198.337 266.574 199.839 266.031C202.778 264.976 207.569 263.763 209.901 268.043C211.69 271.301 210.221 275.55 204.79 278.489C200.382 280.885 196.006 280.118 196.006 280.118Z" fill="#442A14"/>
<path d="M98.224 241.625C95.8278 248.206 90.1097 249.26 79.9833 245.586L70.4 242.104C69.825 241.913 69.6014 241.433 69.825 240.826L75.8944 224.024C76.118 223.449 76.5653 223.225 77.1403 223.417L86.7236 226.899C96.882 230.604 100.619 235.045 98.224 241.625ZM94.9972 240.475C96.531 236.195 94.2944 233.128 85.6694 229.997L78.2903 227.314L73.7222 239.868L81.1014 242.551C89.7583 245.65 93.4319 244.724 94.9972 240.475Z" fill="#442A14"/>
<path d="M130.871 246.353C129.944 253.7 124.482 255.904 115.218 254.722L114.356 254.595C105.06 253.413 100.332 249.931 101.29 242.583C102.249 235.172 107.679 233.032 116.975 234.246L117.837 234.374C127.101 235.524 131.829 238.974 130.871 246.353ZM127.517 245.938C128.124 241.178 125.536 238.495 117.422 237.472L116.56 237.345C108.446 236.322 105.251 238.239 104.644 242.999C104.037 247.663 106.625 250.41 114.739 251.432L115.601 251.56C123.747 252.614 126.942 250.601 127.517 245.938Z" fill="#442A14"/>
<path d="M162.368 250.122C162.432 250.442 162.336 250.729 161.985 250.985C160.771 251.975 157.257 253.828 150.229 254.658C140.422 255.84 135.024 253.668 134.097 246.257C133.203 238.846 137.931 235.46 147.738 234.246C154.701 233.415 158.567 234.31 159.972 234.981C160.579 235.268 160.675 235.843 160.292 236.354L159.557 237.376C159.238 237.856 158.854 237.888 158.279 237.76C156.969 237.408 153.935 236.642 148.121 237.376C139.368 238.431 136.908 241.082 137.483 245.81C138.058 250.538 141.093 252.518 149.846 251.464C154.829 250.857 157.576 249.739 159.014 248.972L158.535 244.915L151.794 245.746C151.188 245.81 150.804 245.49 150.708 244.883L150.581 243.893C150.517 243.286 150.804 242.871 151.411 242.775L160.324 241.689C160.931 241.625 161.314 241.945 161.41 242.551L162.368 250.122Z" fill="#442A14"/>
<path d="M166.936 234.278L168.693 239.325L186.742 233.096C187.317 232.904 187.764 233.128 187.988 233.703L188.339 234.725C188.531 235.3 188.339 235.779 187.764 235.971L169.715 242.2L171.376 246.96L190.99 240.188C191.565 239.996 192.013 240.22 192.236 240.795L192.619 241.945C192.811 242.52 192.619 242.999 192.044 243.19L170.226 250.729C169.651 250.921 169.204 250.697 168.981 250.122L163.135 233.224C162.943 232.649 163.135 232.17 163.71 231.978L185.528 224.439C186.103 224.247 186.55 224.471 186.774 225.046L187.157 226.196C187.349 226.771 187.157 227.25 186.582 227.442L166.936 234.278Z" fill="#442A14"/>
</svg>
