<svg width="175" height="175" viewBox="0 0 175 175" fill="none" xmlns="http://www.w3.org/2000/svg">
<rect x="2.12132" y="87.5" width="120.744" height="120.744" transform="rotate(-45 2.12132 87.5)" stroke="#442A14" stroke-width="3"/>
<g filter="url(#filter0_di_255_5)">
<rect x="21.0994" y="87.5" width="93.9048" height="93.9048" transform="rotate(-45 21.0994 87.5)" fill="#EBCC6E"/>
</g>
<path d="M102.287 118.75H96.35L94.1 116.93H79.475L77.225 118.75H71.2875C69.9062 118.75 68.7875 117.631 68.7875 116.25V61.625C68.7875 60.2437 69.9062 59.125 71.2875 59.125H102.287C103.669 59.125 104.787 60.2437 104.787 61.625V116.25C104.787 117.631 103.669 118.75 102.287 118.75ZM89.545 62.475H84.03C83.86 62.475 83.705 62.545 83.5937 62.6562C83.4825 62.7675 83.4125 62.9225 83.4125 63.0925C83.4125 63.4325 83.69 63.71 84.03 63.71H89.545C89.715 63.71 89.87 63.64 89.9812 63.5288C90.0925 63.4175 90.1625 63.2625 90.1625 63.0925C90.1625 62.7525 89.885 62.475 89.545 62.475Z" stroke="#442A14" stroke-width="2.05078" stroke-miterlimit="10" stroke-linecap="round" stroke-linejoin="round"/>
<path d="M79.4753 116.93L77.2253 118.75H96.3503L94.1003 116.93H79.4753Z" stroke="#442A14" stroke-width="2.05078" stroke-miterlimit="10" stroke-linecap="round" stroke-linejoin="round"/>
<path d="M90.1625 63.0925C90.1625 62.7525 89.885 62.475 89.545 62.475H84.03C83.86 62.475 83.705 62.545 83.5937 62.6562C83.4825 62.7675 83.4125 62.9225 83.4125 63.0925C83.4125 63.4325 83.69 63.71 84.03 63.71H89.545C89.715 63.71 89.87 63.64 89.9812 63.5287C90.0925 63.4175 90.1625 63.2625 90.1625 63.0925Z" stroke="#442A14" stroke-width="2.05078" stroke-miterlimit="10" stroke-linecap="round" stroke-linejoin="round"/>
<path d="M96.3503 118.75L94.1003 116.93H79.4753L77.2253 118.75H96.3503Z" stroke="#442A14" stroke-width="2.05078" stroke-miterlimit="10" stroke-linecap="round" stroke-linejoin="round"/>
<path d="M105.212 110.624V104.742" stroke="#442A14" stroke-width="2.05078" stroke-miterlimit="10" stroke-linecap="round" stroke-linejoin="round"/>
<path d="M105.212 100.135V96.5211" stroke="#442A14" stroke-width="2.05078" stroke-miterlimit="10" stroke-linecap="round" stroke-linejoin="round"/>
<path d="M105.212 94.8854V91.2711" stroke="#442A14" stroke-width="2.05078" stroke-miterlimit="10" stroke-linecap="round" stroke-linejoin="round"/>
<path d="M85.875 70.375H88.125" stroke="#442A14" stroke-width="2.05078" stroke-miterlimit="10" stroke-linecap="round" stroke-linejoin="round"/>
<path d="M91.5 70.375H93.75" stroke="#442A14" stroke-width="2.05078" stroke-miterlimit="10" stroke-linecap="round" stroke-linejoin="round"/>
<path d="M82.5 70.375H80.25" stroke="#442A14" stroke-width="2.05078" stroke-miterlimit="10" stroke-linecap="round" stroke-linejoin="round"/>
<path d="M96.375 101.875H100.125C100.95 101.875 101.625 102.55 101.625 103.375V107.125C101.625 107.95 100.95 108.625 100.125 108.625H96.375C95.55 108.625 94.875 107.95 94.875 107.125V103.375C94.875 102.55 95.55 101.875 96.375 101.875ZM85.125 101.875H88.875C89.7 101.875 90.375 102.55 90.375 103.375V107.125C90.375 107.95 89.7 108.625 88.875 108.625H85.125C84.3 108.625 83.625 107.95 83.625 107.125V103.375C83.625 102.55 84.3 101.875 85.125 101.875ZM73.875 101.875H77.625C78.45 101.875 79.125 102.55 79.125 103.375V107.125C79.125 107.95 78.45 108.625 77.625 108.625H73.875C73.05 108.625 72.375 107.95 72.375 107.125V103.375C72.375 102.55 73.05 101.875 73.875 101.875ZM96.375 90.625H100.125C100.95 90.625 101.625 91.3 101.625 92.125V95.875C101.625 96.7 100.95 97.375 100.125 97.375H96.375C95.55 97.375 94.875 96.7 94.875 95.875V92.125C94.875 91.3 95.55 90.625 96.375 90.625ZM85.125 90.625H88.875C89.7 90.625 90.375 91.3 90.375 92.125V95.875C90.375 96.7 89.7 97.375 88.875 97.375H85.125C84.3 97.375 83.625 96.7 83.625 95.875V92.125C83.625 91.3 84.3 90.625 85.125 90.625ZM73.875 90.625H77.625C78.45 90.625 79.125 91.3 79.125 92.125V95.875C79.125 96.7 78.45 97.375 77.625 97.375H73.875C73.05 97.375 72.375 96.7 72.375 95.875V92.125C72.375 91.3 73.05 90.625 73.875 90.625ZM96.375 79.375H100.125C100.95 79.375 101.625 80.05 101.625 80.875V84.625C101.625 85.45 100.95 86.125 100.125 86.125H96.375C95.55 86.125 94.875 85.45 94.875 84.625V80.875C94.875 80.05 95.55 79.375 96.375 79.375ZM85.125 79.375H88.875C89.7 79.375 90.375 80.05 90.375 80.875V84.625C90.375 85.45 89.7 86.125 88.875 86.125H85.125C84.3 86.125 83.625 85.45 83.625 84.625V80.875C83.625 80.05 84.3 79.375 85.125 79.375ZM73.875 79.375H77.625C78.45 79.375 79.125 80.05 79.125 80.875V84.625C79.125 85.45 78.45 86.125 77.625 86.125H73.875C73.05 86.125 72.375 85.45 72.375 84.625V80.875C72.375 80.05 73.05 79.375 73.875 79.375Z" stroke="#442A14" stroke-width="2.05078" stroke-miterlimit="10" stroke-linecap="round" stroke-linejoin="round"/>
<defs>
<filter id="filter0_di_255_5" x="8.09937" y="15.0992" width="152.801" height="152.802" filterUnits="userSpaceOnUse" color-interpolation-filters="sRGB">
<feFlood flood-opacity="0" result="BackgroundImageFix"/>
<feColorMatrix in="SourceAlpha" type="matrix" values="0 0 0 0 0 0 0 0 0 0 0 0 0 0 0 0 0 0 127 0" result="hardAlpha"/>
<feOffset dx="-3" dy="4"/>
<feGaussianBlur stdDeviation="5"/>
<feComposite in2="hardAlpha" operator="out"/>
<feColorMatrix type="matrix" values="0 0 0 0 0.266667 0 0 0 0 0.164706 0 0 0 0 0.0784314 0 0 0 0.25 0"/>
<feBlend mode="normal" in2="BackgroundImageFix" result="effect1_dropShadow_255_5"/>
<feBlend mode="normal" in="SourceGraphic" in2="effect1_dropShadow_255_5" result="shape"/>
<feColorMatrix in="SourceAlpha" type="matrix" values="0 0 0 0 0 0 0 0 0 0 0 0 0 0 0 0 0 0 127 0" result="hardAlpha"/>
<feOffset dx="-1" dy="3"/>
<feGaussianBlur stdDeviation="2.5"/>
<feComposite in2="hardAlpha" operator="arithmetic" k2="-1" k3="1"/>
<feColorMatrix type="matrix" values="0 0 0 0 0.266667 0 0 0 0 0.164706 0 0 0 0 0.0784314 0 0 0 0.2 0"/>
<feBlend mode="normal" in2="shape" result="effect2_innerShadow_255_5"/>
</filter>
</defs>
</svg>
