<svg width="175" height="175" viewBox="0 0 175 175" fill="none" xmlns="http://www.w3.org/2000/svg">
<g clip-path="url(#clip0_503_78)">
<path d="M87.3789 2.00001L2 87.3789L87.3789 172.758L172.758 87.3789L87.3789 2.00001Z" stroke="#442A14" stroke-width="3"/>
<g filter="url(#filter0_ii_503_78)">
<path d="M87.5 21.4782L21.0992 87.8789L87.5 154.28L153.901 87.8789L87.5 21.4782Z" fill="#EBCC6E"/>
</g>
<path d="M113.572 106.285H60.4285C60.1914 106.285 60 106.093 60 105.857V68.9991C60 68.762 60.1918 68.5706 60.4285 68.5706H113.572C113.809 68.5706 114 68.7624 114 68.9991V105.857C114 106.094 113.809 106.285 113.572 106.285ZM60.8571 105.428H113.143V69.4277H60.8571V105.428Z" fill="#442A14"/>
<path d="M113.572 67.7145H111C110.763 67.7145 110.572 67.5226 110.572 67.286V62.1431C110.572 61.906 110.763 61.7146 111 61.7146H113.572C113.809 61.7146 114 61.9064 114 62.1431C114 62.3802 113.808 62.5716 113.572 62.5716H111.429V66.8575H113.572C113.809 66.8575 114 67.0494 114 67.286C114 67.5227 113.809 67.7145 113.572 67.7145V67.7145Z" fill="#442A14"/>
<path d="M105.857 67.7145H102.428C102.191 67.7145 102 67.5226 102 67.286V62.1431C102 61.906 102.192 61.7146 102.428 61.7146H105.857C106.094 61.7146 106.285 61.9064 106.285 62.1431V67.286C106.286 67.5226 106.094 67.7145 105.857 67.7145ZM102.857 66.8575H105.428V62.5716H102.857V66.8575Z" fill="#442A14"/>
<path d="M97.2862 67.7145H93.8577C93.6206 67.7145 93.4292 67.5226 93.4292 67.286V62.1431C93.4292 61.906 93.621 61.7146 93.8577 61.7146H97.2862C97.5233 61.7146 97.7147 61.9064 97.7147 62.1431V67.286C97.7147 67.5226 97.5233 67.7145 97.2862 67.7145ZM94.2863 66.8575H96.8577V62.5716H94.2863V66.8575Z" fill="#442A14"/>
<path d="M88.7144 67.7145H85.2859C85.0488 67.7145 84.8574 67.5226 84.8574 67.286V62.1431C84.8574 61.906 85.0492 61.7146 85.2859 61.7146H88.7144C88.9515 61.7146 89.1429 61.9064 89.1429 62.1431V67.286C89.1429 67.5226 88.9515 67.7145 88.7144 67.7145ZM85.7145 66.8575H88.2859V62.5716H85.7145V66.8575Z" fill="#442A14"/>
<path d="M80.1425 67.7145H76.714C76.4769 67.7145 76.2855 67.5226 76.2855 67.286L76.2851 62.1431C76.2851 61.906 76.4769 61.7146 76.7136 61.7146H80.1421C80.3792 61.7146 80.5706 61.9064 80.5706 62.1431V67.286C80.571 67.5226 80.3792 67.7145 80.1425 67.7145V67.7145ZM77.1426 66.8575H79.7141V62.5716H77.1426V66.8575Z" fill="#442A14"/>
<path d="M71.5719 67.7145H68.1429C67.9058 67.7145 67.7144 67.5226 67.7144 67.286V62.1431C67.7144 61.906 67.9063 61.7146 68.1429 61.7146H71.5714C71.8085 61.7146 71.9999 61.9064 71.9999 62.1431V67.286C72.0004 67.5226 71.8085 67.7145 71.5719 67.7145H71.5719ZM68.5715 66.8575H71.1429V62.5716H68.5715V66.8575Z" fill="#442A14"/>
<path d="M63.0001 67.7145H60.4286C60.1915 67.7145 60.0001 67.5227 60.0001 67.286C60.0001 67.0489 60.192 66.8575 60.4286 66.8575H62.5716V62.5716H60.4286C60.1915 62.5716 60.0001 62.3798 60.0001 62.1431C60.0001 61.906 60.192 61.7146 60.4286 61.7146H63.0001C63.2372 61.7146 63.4286 61.9064 63.4286 62.1431V67.286C63.4286 67.5226 63.2372 67.7145 63.0001 67.7145V67.7145Z" fill="#442A14"/>
<path d="M113.572 60.857H60.4285C60.1918 60.857 60 60.6656 60 60.4285C60 60.1914 60.1918 60 60.4285 60H113.572C113.809 60 114 60.1918 114 60.4285C114 60.6656 113.809 60.857 113.572 60.857Z" fill="#442A14"/>
<path d="M63.0001 113.143H60.4286C60.1915 113.143 60.0001 112.951 60.0001 112.714C60.0001 112.477 60.192 112.286 60.4286 112.286H62.5716V108H60.4286C60.1915 108 60.0001 107.808 60.0001 107.571C60.0001 107.334 60.192 107.143 60.4286 107.143H63.0001C63.2372 107.143 63.4286 107.335 63.4286 107.571V112.714C63.4286 112.951 63.2372 113.143 63.0001 113.143V113.143Z" fill="#442A14"/>
<path d="M71.5719 113.143H68.1429C67.9058 113.143 67.7144 112.951 67.7144 112.714V107.572C67.7144 107.334 67.9063 107.143 68.1429 107.143H71.5714C71.8085 107.143 71.9999 107.335 71.9999 107.572V112.714C72.0004 112.951 71.8085 113.143 71.5719 113.143H71.5719ZM68.5715 112.286H71.1429V108H68.5715V112.286Z" fill="#442A14"/>
<path d="M80.1425 113.143H76.714C76.4769 113.143 76.2855 112.951 76.2855 112.714V107.572C76.2855 107.334 76.4774 107.143 76.714 107.143H80.1425C80.3796 107.143 80.571 107.335 80.571 107.572V112.714C80.571 112.951 80.3792 113.143 80.1425 113.143ZM77.1426 112.286H79.714V108H77.1426V112.286Z" fill="#442A14"/>
<path d="M88.7144 113.143H85.2859C85.0488 113.143 84.8574 112.951 84.8574 112.714V107.572C84.8574 107.334 85.0492 107.143 85.2859 107.143H88.7144C88.9515 107.143 89.1429 107.335 89.1429 107.572V112.714C89.1429 112.951 88.9515 113.143 88.7144 113.143ZM85.7145 112.286H88.2859V108H85.7145V112.286Z" fill="#442A14"/>
<path d="M97.2862 113.143H93.8577C93.6206 113.143 93.4292 112.951 93.4292 112.714V107.572C93.4292 107.334 93.621 107.143 93.8577 107.143H97.2862C97.5233 107.143 97.7147 107.335 97.7147 107.572V112.714C97.7147 112.951 97.5233 113.143 97.2862 113.143ZM94.2863 112.286H96.8577V108H94.2863V112.286Z" fill="#442A14"/>
<path d="M105.857 113.143H102.428C102.191 113.143 102 112.951 102 112.714V107.572C102 107.334 102.192 107.143 102.428 107.143H105.857C106.094 107.143 106.285 107.335 106.285 107.572V112.714C106.286 112.951 106.094 113.143 105.857 113.143ZM102.857 112.286H105.428V108H102.857V112.286Z" fill="#442A14"/>
<path d="M113.572 113.143H111C110.763 113.143 110.572 112.951 110.572 112.714V107.572C110.572 107.334 110.763 107.143 111 107.143H113.572C113.809 107.143 114 107.335 114 107.572C114 107.809 113.808 108 113.572 108H111.429V112.286H113.572C113.809 112.286 114 112.478 114 112.714C114 112.951 113.809 113.143 113.572 113.143V113.143Z" fill="#442A14"/>
<path d="M113.572 114.857H60.4285C60.1914 114.857 60 114.665 60 114.429C60 114.192 60.1918 114 60.4285 114H113.572C113.809 114 114 114.192 114 114.429C114 114.665 113.809 114.857 113.572 114.857Z" fill="#442A14"/>
<path d="M92.0921 98.8243C92.0193 98.8243 91.9464 98.8057 91.8795 98.7682C90.0822 97.7411 89.4972 96.4007 89.323 95.4578C89.0569 94.0171 89.5741 92.7611 90.0972 92.1221C90.2478 91.9389 90.5166 91.9131 90.7008 92.0629C90.8831 92.2126 90.9098 92.4832 90.76 92.6665C90.3207 93.2013 89.9664 94.2253 90.1659 95.3031C90.3687 96.3995 91.1076 97.3407 92.3048 98.0234C92.5107 98.1415 92.5818 98.4026 92.4646 98.6085C92.3854 98.746 92.2406 98.8243 92.0922 98.8243L92.0921 98.8243Z" fill="#442A14"/>
<path d="M80.1426 102.001H78.4281C78.191 102.001 77.9996 101.809 77.9996 101.572V92.1419C77.9996 91.9048 78.1914 91.7134 78.4281 91.7134C78.6652 91.7134 78.8566 91.9052 78.8566 92.1419V101.144H80.0244C80.8022 100.673 86.1266 97.2789 87.4406 92.0387C87.4985 91.8102 87.7283 91.6703 87.9614 91.7274C88.1908 91.7853 88.3297 92.0179 88.2727 92.2482C86.7699 98.2363 80.6154 101.796 80.3543 101.945C80.2896 101.981 80.2167 102.001 80.1425 102.001L80.1426 102.001Z" fill="#442A14"/>
<path d="M75.8567 95.1432C75.7444 95.1432 75.6349 95.0989 75.5535 95.0174L74.6965 94.1604C74.5933 94.0573 74.5499 93.9102 74.5802 93.7677L77.1516 81.7671C77.2019 81.5346 77.4344 81.3956 77.6607 81.4373C77.8924 81.4875 78.0399 81.7151 77.9905 81.9463L75.4675 93.7187L75.6684 93.9196L77.1534 89.4364C77.2114 89.2604 77.3752 89.1427 77.5602 89.1427L80.1426 89.1432C80.3797 89.1432 80.571 89.335 80.571 89.5717V91.2862C80.571 91.5233 80.3792 91.7147 80.1426 91.7147C79.9054 91.7147 79.7141 91.5228 79.7141 91.2862V90.0006H77.8702L76.2639 94.8498C76.2168 94.9915 76.1005 95.0973 75.9557 95.1317C75.9227 95.139 75.8892 95.143 75.8567 95.143L75.8567 95.1432Z" fill="#442A14"/>
<path d="M99.0005 102.001C98.9327 102.001 98.8643 101.985 98.8005 101.951C91.7137 98.2138 92.0989 92.6425 92.1191 92.4071C92.1386 92.1718 92.3327 92.0035 92.5811 92.0162C92.8164 92.0356 92.9911 92.2419 92.973 92.4781C92.9571 92.6872 92.6463 97.5894 98.9226 101.044L99.2656 100.701C98.267 99.5427 95.1304 95.394 97.1539 90.9591C100.059 84.5917 99.4331 78.5751 95.5201 75.2553C91.2735 71.6558 84.3546 72.2526 77.3744 76.7928L80.8065 80.4574C80.9681 80.6298 80.959 80.9013 80.7862 81.0633C80.6138 81.2249 80.3423 81.2176 80.1803 81.043L76.4016 77.0077C76.3161 76.9159 76.2745 76.791 76.2885 76.6661C76.3025 76.5412 76.3713 76.429 76.4749 76.3589C83.9292 71.344 91.4386 70.6711 96.0743 74.6019C100.293 78.1797 101.005 84.5837 97.934 91.3146C95.8056 95.9811 100.117 100.368 100.161 100.412C100.241 100.492 100.287 100.601 100.287 100.715C100.287 100.828 100.241 100.938 100.161 101.018L99.3037 101.875C99.2223 101.957 99.1128 102 99.0015 102L99.0005 102.001Z" fill="#442A14"/>
<path d="M80.1426 91.7144H79.2856C79.0485 91.7144 78.8571 91.5226 78.8571 91.2859C78.8571 91.0488 79.0489 90.8574 79.2856 90.8574H80.1426C80.3797 90.8574 80.5711 91.0493 80.5711 91.2859C80.5711 91.5226 80.3792 91.7144 80.1426 91.7144Z" fill="#442A14"/>
<path d="M78.4282 92.5703C78.1911 92.5703 77.9997 92.3785 77.9997 92.1418C77.9997 91.4337 78.5766 90.8577 79.2852 90.8577C79.5223 90.8577 79.7137 91.0495 79.7137 91.2862C79.7137 91.5233 79.5219 91.7147 79.2852 91.7147C79.049 91.7147 78.8567 91.9065 78.8567 92.1414C78.8567 92.3785 78.6653 92.5703 78.4282 92.5703L78.4282 92.5703Z" fill="#442A14"/>
<path d="M87.8572 92.5715C87.788 92.5715 87.7174 92.5548 87.6522 92.5186C82.1392 89.5109 76.9605 82.4879 77.1465 81.759C77.1949 81.569 77.3759 81.4282 77.5719 81.4282C77.7986 81.4282 77.9836 81.6042 77.9995 81.8269C78.4248 82.7065 82.8551 88.9249 88.0627 91.7669C88.2704 91.8801 88.3473 92.1402 88.2333 92.3479C88.155 92.4914 88.0088 92.5714 87.8572 92.5714L87.8572 92.5715Z" fill="#442A14"/>
<path d="M91.3786 98.8649C90.5709 98.8649 89.3045 98.7242 88.418 97.9559C87.7619 97.3867 87.4288 96.5839 87.4288 95.5708C87.4288 95.3337 87.6207 95.1423 87.8573 95.1423C88.0944 95.1423 88.2858 95.3342 88.2858 95.5708C88.2858 96.3351 88.5125 96.9034 88.9799 97.3079C90.0532 98.2396 92.0111 97.9717 92.032 97.9699C92.2614 97.9414 92.4831 98.0988 92.5166 98.3341C92.5501 98.5676 92.3867 98.7852 92.1523 98.8187C92.1189 98.8237 91.8157 98.8649 91.3786 98.8649L91.3786 98.8649Z" fill="#442A14"/>
<path d="M90.4287 92.8218C90.3274 92.8218 90.2269 92.7865 90.145 92.7146C89.9677 92.558 89.9509 92.287 90.1075 92.1096C91.1437 90.9354 91.7147 89.425 91.7147 87.8572C91.7147 84.3124 88.831 81.4288 85.2863 81.4288C83.4424 81.4288 81.6854 82.2224 80.4646 83.6052C80.3072 83.7817 80.038 83.7993 79.8597 83.6428C79.6823 83.4862 79.6656 83.2152 79.8221 83.0378C81.204 81.4709 83.1963 80.5718 85.2858 80.5718C89.303 80.5718 92.5717 83.8405 92.5717 87.8576C92.5717 89.6341 91.9246 91.3458 90.7504 92.6774C90.6653 92.7724 90.5472 92.8217 90.4287 92.8217L90.4287 92.8218Z" fill="#442A14"/>
<path d="M92.5335 92.8658C92.4547 92.8658 92.3751 92.8441 92.3041 92.7997C92.104 92.6726 92.0443 92.4079 92.171 92.2079C92.9941 90.9083 93.4293 89.4039 93.4293 87.8572C93.4293 83.3672 89.7765 79.7143 85.2865 79.7143C83.6543 79.7143 82.0797 80.1949 80.7335 81.1048C80.5385 81.2388 80.2716 81.1858 80.1385 80.9904C80.0055 80.7935 80.0575 80.5275 80.253 80.3953C81.7413 79.3886 83.4815 78.8569 85.2864 78.8569C90.2493 78.8569 94.2862 82.894 94.2862 87.8568C94.2862 89.5663 93.8057 91.2291 92.8958 92.6666C92.8139 92.7956 92.675 92.8657 92.5333 92.8657L92.5335 92.8658Z" fill="#442A14"/>
</g>
<defs>
<filter id="filter0_ii_503_78" x="18.0992" y="21.4783" width="135.801" height="136.801" filterUnits="userSpaceOnUse" color-interpolation-filters="sRGB">
<feFlood flood-opacity="0" result="BackgroundImageFix"/>
<feBlend mode="normal" in="SourceGraphic" in2="BackgroundImageFix" result="shape"/>
<feColorMatrix in="SourceAlpha" type="matrix" values="0 0 0 0 0 0 0 0 0 0 0 0 0 0 0 0 0 0 127 0" result="hardAlpha"/>
<feOffset dx="-3" dy="4"/>
<feGaussianBlur stdDeviation="5"/>
<feComposite in2="hardAlpha" operator="arithmetic" k2="-1" k3="1"/>
<feColorMatrix type="matrix" values="0 0 0 0 0.266667 0 0 0 0 0.164706 0 0 0 0 0.0784314 0 0 0 0.25 0"/>
<feBlend mode="normal" in2="shape" result="effect1_innerShadow_503_78"/>
<feColorMatrix in="SourceAlpha" type="matrix" values="0 0 0 0 0 0 0 0 0 0 0 0 0 0 0 0 0 0 127 0" result="hardAlpha"/>
<feOffset dx="-1" dy="3"/>
<feGaussianBlur stdDeviation="2.5"/>
<feComposite in2="hardAlpha" operator="arithmetic" k2="-1" k3="1"/>
<feColorMatrix type="matrix" values="0 0 0 0 0.266667 0 0 0 0 0.164706 0 0 0 0 0.0784314 0 0 0 0.2 0"/>
<feBlend mode="normal" in2="effect1_innerShadow_503_78" result="effect2_innerShadow_503_78"/>
</filter>
<clipPath id="clip0_503_78">
<rect width="175" height="175" fill="white"/>
</clipPath>
</defs>
</svg>
