<svg width="175" height="175" viewBox="0 0 175 175" fill="none" xmlns="http://www.w3.org/2000/svg">
<rect x="2.12132" y="87.5" width="120.744" height="120.744" transform="rotate(-45 2.12132 87.5)" stroke="#442A14" stroke-width="3"/>
<g filter="url(#filter0_di_254_3)">
<rect x="21.0992" y="87.5" width="93.9048" height="93.9048" transform="rotate(-45 21.0992 87.5)" fill="#EBCC6E"/>
</g>
<path d="M69.2469 102.473C69.1044 102.473 68.95 102.449 68.8075 102.39C68.4156 102.224 68.1425 101.856 68.095 101.44C67.05 90.4675 71.8594 83.1881 74.8163 79.8275C75.2319 79.3525 75.9681 79.305 76.4431 79.7206C76.9181 80.1362 76.9656 80.8725 76.55 81.3475C74.0325 84.2094 70.0425 90.1825 70.2681 99.1362C71.61 98.1981 73.6763 96.9037 76.2888 95.6569C76.8706 95.3837 77.5475 95.6331 77.8206 96.2031C78.0938 96.7731 77.8444 97.4619 77.2744 97.735C72.7975 99.8606 70.0069 102.188 69.9831 102.212C69.7694 102.39 69.5081 102.473 69.2469 102.473ZM104.753 102.473C104.492 102.473 104.219 102.378 104.005 102.2C103.981 102.176 101.179 99.8487 96.7138 97.7231C96.1438 97.45 95.8944 96.7612 96.1675 96.1912C96.4407 95.6212 97.1294 95.3719 97.6994 95.645C100.324 96.8919 102.378 98.1862 103.72 99.1244C103.934 90.1706 99.9557 84.1975 97.4382 81.3237C97.0225 80.8487 97.07 80.1125 97.545 79.6969C98.02 79.2812 98.7563 79.3287 99.1719 79.8037C102.129 83.1644 106.938 90.4556 105.893 101.428C105.858 101.856 105.584 102.224 105.181 102.378C105.05 102.449 104.908 102.473 104.753 102.473ZM87 125C86.6438 125 86.2994 124.834 86.0856 124.549C85.8838 124.276 81.015 117.78 80.7063 109.503C80.6944 109.194 80.8131 108.886 81.0269 108.66C81.2406 108.434 81.5375 108.304 81.8581 108.304H92.1538C92.4625 108.304 92.7713 108.434 92.985 108.66C93.1988 108.886 93.3175 109.194 93.3057 109.503C92.9969 117.78 88.1282 124.276 87.9144 124.549C87.6888 124.834 87.3563 125 87 125ZM83.0813 110.607C83.5563 115.512 85.7294 119.692 87 121.758C88.2706 119.692 90.4438 115.512 90.9188 110.607H83.0813Z" fill="#442A14"/>
<path d="M96.5118 100.882H77.4881C76.9656 100.882 76.5025 100.526 76.3719 100.027C75.0775 95.0987 74.4125 89.9925 74.4125 84.8506C74.4125 59.925 85.7531 49.7125 86.2281 49.2968C86.6675 48.9168 87.3087 48.9168 87.7481 49.2968C88.235 49.7243 99.5637 59.9368 99.5637 84.8506C99.5637 89.9925 98.9106 95.0987 97.6044 100.027C97.4975 100.526 97.0343 100.882 96.5118 100.882ZM78.3906 98.5781H95.6212C96.7256 94.1012 97.2837 89.4937 97.2837 84.8506C97.2837 64.6987 89.5056 54.5456 87.0118 51.8025C84.5181 54.5575 76.7281 64.77 76.7281 84.8506C76.7281 89.4937 77.2862 94.1012 78.3906 98.5781Z" fill="#442A14"/>
<path d="M94.9087 106.036H79.0912C78.735 106.036 78.3906 105.869 78.1768 105.584C77.9631 105.299 77.8918 104.919 77.9868 104.575L79.4237 99.4212C79.59 98.8037 80.2312 98.4475 80.8368 98.6256C81.4543 98.7919 81.8106 99.4331 81.6325 100.039L80.5993 103.732H93.3887L92.3556 100.039C92.1893 99.4212 92.5456 98.7919 93.1512 98.6256C93.7568 98.4594 94.3981 98.8156 94.5643 99.4212L96.0012 104.575C96.0962 104.919 96.025 105.287 95.8112 105.584C95.6093 105.857 95.265 106.036 94.9087 106.036ZM87 78.5806C83.5443 78.5806 80.73 75.7662 80.73 72.3106C80.73 68.855 83.5443 66.0406 87 66.0406C90.4556 66.0406 93.27 68.855 93.27 72.3106C93.27 75.7662 90.4556 78.5806 87 78.5806ZM87 68.3562C84.815 68.3562 83.0337 70.1375 83.0337 72.3225C83.0337 74.5075 84.815 76.2887 87 76.2887C89.185 76.2887 90.9662 74.5075 90.9662 72.3225C90.9662 70.1256 89.185 68.3562 87 68.3562ZM93.3412 60.685H80.6587C80.0175 60.685 79.5068 60.1744 79.5068 59.5331C79.5068 58.8919 80.0175 58.3812 80.6587 58.3812H93.3412C93.9825 58.3812 94.4931 58.8919 94.4931 59.5331C94.4931 60.1744 93.9825 60.685 93.3412 60.685Z" fill="#442A14"/>
<defs>
<filter id="filter0_di_254_3" x="8.09924" y="15.0992" width="152.801" height="152.802" filterUnits="userSpaceOnUse" color-interpolation-filters="sRGB">
<feFlood flood-opacity="0" result="BackgroundImageFix"/>
<feColorMatrix in="SourceAlpha" type="matrix" values="0 0 0 0 0 0 0 0 0 0 0 0 0 0 0 0 0 0 127 0" result="hardAlpha"/>
<feOffset dx="-3" dy="4"/>
<feGaussianBlur stdDeviation="5"/>
<feComposite in2="hardAlpha" operator="out"/>
<feColorMatrix type="matrix" values="0 0 0 0 0.266667 0 0 0 0 0.164706 0 0 0 0 0.0784314 0 0 0 0.25 0"/>
<feBlend mode="normal" in2="BackgroundImageFix" result="effect1_dropShadow_254_3"/>
<feBlend mode="normal" in="SourceGraphic" in2="effect1_dropShadow_254_3" result="shape"/>
<feColorMatrix in="SourceAlpha" type="matrix" values="0 0 0 0 0 0 0 0 0 0 0 0 0 0 0 0 0 0 127 0" result="hardAlpha"/>
<feOffset dx="-1" dy="3"/>
<feGaussianBlur stdDeviation="2.5"/>
<feComposite in2="hardAlpha" operator="arithmetic" k2="-1" k3="1"/>
<feColorMatrix type="matrix" values="0 0 0 0 0.266667 0 0 0 0 0.164706 0 0 0 0 0.0784314 0 0 0 0.2 0"/>
<feBlend mode="normal" in2="shape" result="effect2_innerShadow_254_3"/>
</filter>
</defs>
</svg>
