<svg width="175" height="175" viewBox="0 0 175 175" fill="none" xmlns="http://www.w3.org/2000/svg">
<g clip-path="url(#clip0_503_49)">
<path d="M87.3789 2.00001L2 87.3789L87.3789 172.758L172.758 87.3789L87.3789 2.00001Z" stroke="#442A14" stroke-width="3"/>
<g filter="url(#filter0_ii_503_49)">
<path d="M87.4999 21.4782L21.0992 87.8789L87.4999 154.28L153.901 87.8789L87.4999 21.4782Z" fill="#EBCC6E"/>
</g>
<path d="M113.81 69.1906C114.501 67.4139 112.655 65.8046 111.978 65.2897C111.795 63.1263 109.563 62.4395 108.152 62.358C106.273 60.0102 101.962 61.0685 100.82 61.4004C99.8018 60.7091 98.7502 60.4641 97.6905 60.6712C95.9579 61.0102 94.7223 62.4814 94.2315 63.1629C93.4974 63.0333 92.9723 63.2591 92.6454 63.4938C91.5546 64.28 91.3105 66.0955 91.257 66.9422C90.0994 67.3034 89.287 67.899 88.8379 68.7167C88.3578 69.5919 88.4486 70.4703 88.5319 70.8778C86.9449 74.3689 89.7902 77.6997 90.4031 78.3581C90.7407 79.5959 91.3354 80.387 92.1719 80.7099C92.4574 80.8208 92.7447 80.864 93.0186 80.864C93.387 80.864 93.7286 80.7852 94.0132 80.6881C94.0765 81.1705 94.158 81.6417 94.2631 82.0969L87.0933 82.0964V81.5063C87.0933 81.2773 86.9075 81.092 86.679 81.092H83.5786V78.4935C83.5786 75.9845 82.1007 73.6871 79.8153 72.6408C79.3075 72.4034 78.5565 71.8649 78.5565 71.4627C78.5565 71.4123 78.5685 71.3602 78.5899 71.3059C78.6331 71.1985 78.7151 71.0863 78.8211 70.9754C78.8229 70.9736 78.8247 70.9718 78.8269 70.97C79.0915 70.6952 79.5003 70.4315 79.8153 70.2841C79.8153 70.2841 79.8157 70.2841 79.8157 70.2837C81.8602 69.3461 83.2489 67.408 83.5211 65.2153C83.5545 65.1552 83.5785 65.0906 83.5785 65.0171C83.5785 64.9619 83.5665 64.9098 83.5474 64.8617C83.5572 64.7182 83.5785 64.5766 83.5785 64.4318V61.8333H86.679C86.908 61.8333 87.0932 61.6476 87.0932 61.4191V60.4147C87.0932 60.1857 86.908 60 86.679 60H67.5957C67.3667 60 67.1814 60.1857 67.1814 60.4142V61.4186C67.1814 61.6476 67.3672 61.8329 67.5957 61.8329H70.6961V64.4314C70.6961 64.5766 70.7175 64.7182 70.7273 64.8612C70.7077 64.9093 70.6961 64.9619 70.6961 65.0167C70.6961 65.0897 70.7206 65.1547 70.7536 65.2149C71.0258 67.409 72.415 69.3479 74.459 70.2837C74.9668 70.5211 75.7182 71.0596 75.7182 71.4618C75.7182 71.864 74.9663 72.4025 74.4613 72.639C72.1745 73.6862 70.6961 75.9836 70.6961 78.4926V81.0911H67.5957C67.3667 81.0911 67.1814 81.2769 67.1814 81.5054V82.0955L64.7392 82.096C64.5103 82.096 64.325 82.2817 64.325 82.5102V83.8469C64.325 84.0759 64.5107 84.2612 64.7392 84.2612L65.357 84.2607L65.484 84.5565C65.8831 85.4879 65.8243 86.5457 65.3646 87.4401L64.7392 87.4405C64.5103 87.4405 64.325 87.6263 64.325 87.8548V89.1398C64.325 89.3688 64.5107 89.5541 64.7392 89.5541H68.192V90.4752C68.192 90.7041 68.3778 90.8894 68.6063 90.8894H69.2593C70.2049 92.3642 70.2049 95.5226 69.2588 96.9987H68.6063C68.3773 96.9987 68.192 97.1844 68.192 97.4129V98.334H60.4142C60.1857 98.3358 60 98.5207 60 98.7496V100.085C60 100.314 60.1857 100.5 60.4142 100.5H60.8904V103.679L60.4142 103.679C60.1857 103.679 60 103.865 60 104.094V105.431C60 105.66 60.1857 105.845 60.4142 105.845H65.9823V106.766C65.9823 106.995 66.1681 107.18 66.3966 107.18H67.0598C67.9773 108.54 67.9773 110.338 67.0602 111.696H66.3966C66.1676 111.696 65.9823 111.882 65.9823 112.11V113.448C65.9823 113.676 66.1681 113.862 66.3966 113.862H110.9C111.205 113.862 111.452 113.615 111.452 113.309V103.504C111.452 103.199 111.205 102.952 110.9 102.952H107.603L112.297 97.6433C112.491 97.4242 112.48 97.0933 112.274 96.8866L109.102 93.7153V90.8909H109.579C109.808 90.8909 109.993 90.7052 109.993 90.4767V89.1408C109.993 88.9119 109.808 88.7266 109.579 88.7266H107.525V86.4737C107.525 86.4372 107.511 86.4051 107.504 86.3699C109.079 84.1174 110.115 80.9715 110.19 77.5797C110.882 77.3124 111.626 76.8924 111.677 76.181C111.693 75.9503 111.631 75.7494 111.532 75.5788C112.395 75.0938 112.465 74.5036 112.272 73.7954C112.177 73.4493 112.17 73.4212 112.576 73.2177C114.456 72.2783 114.002 69.9194 113.81 69.1907L113.81 69.1906ZM68.036 107.181H90.6906V111.696H68.036C68.7696 110.289 68.7696 108.589 68.036 107.181ZM94.4193 102.951H91.2431C90.938 102.951 90.6908 103.198 90.6908 103.503V103.679H61.7191V100.5H93.0351L94.4193 102.951ZM100.128 109.442V104.057H103.995V109.442H100.128ZM99.5758 109.442H95.7087V104.057H99.5758V109.442ZM91.7953 104.056H95.1565V109.441H91.7953V104.056ZM95.6883 102.951L92.6848 97.6292L103.92 102.951H95.6883ZM90.9567 95.994C90.9495 96.0012 90.9482 96.0119 90.9411 96.0194C90.897 96.0684 90.8649 96.1237 90.8404 96.1842C90.8346 96.1989 90.8244 96.2105 90.8195 96.2257C90.7963 96.3027 90.7914 96.3842 90.8039 96.4662C90.8043 96.4706 90.8021 96.4742 90.8034 96.4782C90.8061 96.4942 90.8186 96.5063 90.8222 96.5219C90.8342 96.5673 90.8418 96.6132 90.8658 96.6564L91.0596 96.9993L70.2168 96.9989C71.0003 95.3081 71.0007 92.5804 70.2172 90.8896H95.7054V91.2433L90.9567 95.994ZM95.7065 86.1161V87.4412H66.2936C66.6918 86.4261 66.6856 85.2814 66.258 84.2618H94.9582C95.1965 84.8319 95.4696 85.3673 95.7751 85.8635C95.7346 85.9401 95.7065 86.0234 95.7065 86.1161L95.7065 86.1161ZM79.467 73.392C81.4606 74.3046 82.7492 76.3067 82.7492 78.4928V78.5725C82.2967 77.8323 81.6784 77.19 80.9083 76.7133L79.2505 75.6876C78.8157 75.4136 78.5556 74.9442 78.5556 74.4293L78.5552 72.8245C78.9605 73.1478 79.3792 73.3514 79.4669 73.3919L79.467 73.392ZM71.5253 64.4312V61.8326H82.7493V64.4312C82.7493 64.4891 82.7386 64.5452 82.7369 64.6031H71.5374C71.536 64.5452 71.5253 64.4891 71.5253 64.4312H71.5253ZM68.0097 61.0037V60.8277H86.2641V61.0037H68.0097ZM76.4796 71.069C76.1781 70.192 74.9643 69.6045 74.8085 69.5323H74.8076C74.8076 69.5323 74.8071 69.5323 74.8071 69.5319C73.1239 68.7613 71.9539 67.2104 71.6268 65.4314H82.6477C82.3212 67.2108 81.1506 68.7608 79.4656 69.5323C79.2875 69.6147 77.7272 70.3706 77.7272 71.4619V74.4296C77.7272 75.2309 78.1321 75.9632 78.8127 76.3903L80.4728 77.4179C81.7792 78.2267 82.5942 79.5799 82.723 81.0912L71.5515 81.0908C71.6802 79.5795 72.4954 78.2268 73.8026 77.4174L75.4658 76.3885C76.1428 75.9622 76.5468 75.2296 76.5468 74.43V71.4609C76.5473 71.3255 76.5228 71.1945 76.4796 71.0689L76.4796 71.069ZM71.5253 78.4927C71.5253 76.3066 72.8139 74.3049 74.8085 73.3914C74.8953 73.3509 75.314 73.1473 75.7184 72.8239V74.4306C75.7184 74.9441 75.4588 75.4145 75.0272 75.6867L73.3667 76.7138C72.5966 77.1908 71.9774 77.8327 71.525 78.573L71.5245 78.4928L71.5253 78.4927ZM68.0097 81.9202H86.2641V82.0961H68.0097V81.9202ZM65.6299 83.4324H65.1537V82.9246H94.4766C94.5278 83.0979 94.5888 83.2636 94.6454 83.4324H65.6299ZM65.1537 88.7252V88.2691H95.7069V88.7252H65.1537ZM69.4969 90.0615H69.0208V89.5546H95.7074V90.0615H69.4969ZM69.0199 97.8277H91.5274L91.8138 98.3346H69.0201L69.0199 97.8277ZM60.8283 99.6703V99.1635H68.6061L92.2813 99.163L92.5677 99.6699L61.3052 99.6703H60.8283ZM60.8283 105.016V104.508H90.6893V105.016H60.8283ZM67.2873 106.351H66.8111V105.844H90.6904V106.351H67.2873ZM66.8111 112.524H90.6904V113.032H66.8111V112.524ZM91.7953 112.756V110.684H110.347V112.756H91.7953ZM110.347 109.442H104.547V104.056H110.348L110.347 109.442ZM106.237 102.827L92.2921 96.2202L96.6487 91.8636C96.7525 91.7598 96.8108 91.6195 96.8108 91.473V87.2629C98.2268 88.8525 100.049 89.7929 102.062 89.7929C103.638 89.7929 105.141 89.0076 106.42 87.6946V92.3661C106.42 92.5131 106.478 92.653 106.582 92.7568L111.126 97.3005L106.237 102.827ZM107.525 92.1371V90.8896H108.274V92.8859L107.525 92.1371ZM109.165 89.5542V90.0611H107.525V89.5542H109.165ZM110.204 76.3637V75.8364C110.232 75.8577 110.261 75.8773 110.293 75.8943C110.412 75.9557 110.556 76.0773 110.579 76.08C110.578 76.0813 110.525 76.1931 110.204 76.3637H110.204ZM112.083 72.2289C110.865 72.8374 111.088 73.6494 111.207 74.0858C111.298 74.4181 111.336 74.5558 110.37 74.8782C110.259 74.9148 110.166 74.9856 110.1 75.0764C110.084 75.0355 110.065 74.9954 110.046 74.9566L109.465 73.7905C109.409 73.6809 109.409 73.5508 109.465 73.4417C109.698 72.9745 109.673 72.4315 109.399 71.9874C109.125 71.5434 108.649 71.2783 108.127 71.2783H107.653C107.485 71.2783 107.336 71.171 107.283 71.0111L106.949 70.0085C106.812 69.5973 106.504 69.266 106.103 69.1003C105.702 68.935 105.251 68.9502 104.863 69.1439L104.538 69.3065C104.414 69.3697 104.265 69.3617 104.147 69.282L101.923 67.7997C101.876 67.7676 101.823 67.7529 101.77 67.7369L100.991 64.6203C100.954 64.4724 100.807 64.382 100.656 64.419C100.509 64.4564 100.418 64.6065 100.456 64.7539L101.236 67.8736C101.21 67.8994 101.179 67.9199 101.157 67.952C100.987 68.2063 101.056 68.5488 101.31 68.7181L103.533 70.2C103.978 70.4984 104.556 70.5331 105.031 70.2939L105.356 70.1314C105.493 70.0632 105.618 70.0939 105.679 70.1202C105.741 70.1456 105.851 70.2102 105.9 70.3576L106.234 71.3602C106.438 71.9722 107.009 72.3825 107.653 72.3825H108.126C108.322 72.3825 108.424 72.5121 108.458 72.5678C108.493 72.6234 108.563 72.7718 108.476 72.9468C108.266 73.3655 108.266 73.8652 108.476 74.284L109.057 75.4505C109.085 75.5048 109.1 75.5649 109.1 75.6242V77.1876C109.1 83.2069 105.745 88.6882 102.063 88.6882C98.4023 88.6882 95.4425 84.9588 95.0243 79.8209C95.0225 79.804 95.014 79.7906 95.0114 79.7741C95.0065 79.7461 95.0078 79.7184 94.9985 79.6908L94.2765 77.5279C94.2119 77.3355 94.2266 77.1297 94.3174 76.948L94.8279 75.9266C94.9584 75.6692 95.0265 75.3801 95.0265 75.0919V74.4265C95.0265 74.137 95.1873 73.8764 95.4461 73.7468L95.7802 73.5793C96.4167 73.2613 96.8117 72.6217 96.8117 71.8649C96.8117 71.6173 96.9271 71.3928 97.1267 71.248C97.3275 71.1028 97.5765 71.0641 97.8117 71.1433C98.6059 71.4101 99.4873 71.1077 99.9532 70.4084L100.962 68.895C101.084 68.7119 101.079 68.4847 100.973 68.3075C100.98 68.2687 101 68.2322 100.99 68.1912L100.098 64.6204C100.061 64.4725 99.9145 64.3821 99.7639 64.4191C99.616 64.4565 99.5252 64.6066 99.563 64.754L100.387 68.0509C100.252 68.0799 100.127 68.1583 100.043 68.2826L99.0343 69.7957C98.8441 70.0803 98.486 70.2046 98.1618 70.0954C97.5845 69.9039 96.9725 69.997 96.4817 70.3524C95.99 70.7066 95.7067 71.258 95.7067 71.9114C95.7067 72.2009 95.5459 72.4615 95.2862 72.5911L94.9522 72.759C94.3166 73.0771 93.9219 73.7158 93.9219 74.4266V75.0921C93.9219 75.2092 93.8939 75.3264 93.8409 75.4319L93.3295 76.4546C93.1073 76.9 93.0703 77.4056 93.228 77.8777L93.7999 79.5911C93.4796 79.7225 92.9959 79.8477 92.5657 79.678C92.0543 79.4775 91.6757 78.8949 91.4383 77.9462C91.4134 77.8491 91.3639 77.76 91.2927 77.6892C91.2602 77.6562 88.0212 74.3628 89.6103 71.1843C89.674 71.0556 89.6847 70.9037 89.6415 70.767C89.6393 70.759 89.3997 69.9781 89.8143 69.2361C90.1618 68.6147 90.874 68.1657 91.9292 67.9012C92.1755 67.8397 92.3479 67.6192 92.3479 67.3653C92.3479 66.7703 92.5216 64.9463 93.293 64.39C93.4592 64.2688 93.7451 64.1334 94.2997 64.3178C94.5438 64.4011 94.8155 64.3004 94.9482 64.0782C94.9602 64.0581 96.1544 62.0979 97.9049 61.7549C98.7231 61.5954 99.5632 61.827 100.392 62.4497C100.538 62.5584 100.726 62.5896 100.898 62.5321C100.947 62.5152 105.878 60.9103 107.408 63.2069C107.51 63.3602 107.683 63.4528 107.866 63.4533C107.989 63.4537 110.886 63.4889 110.886 65.5793C110.886 65.7641 110.979 65.936 111.132 66.0389C111.155 66.0541 113.386 67.5907 112.73 68.9038C112.664 69.0352 112.653 69.1862 112.7 69.3256C112.706 69.3475 113.424 71.5576 112.083 72.2284L112.083 72.2289Z" fill="#442A14"/>
<path d="M98.0453 76.0186C96.9478 76.0186 96.0903 76.9628 96.0539 77.0029C95.9599 77.108 95.9599 77.267 96.0539 77.3717C96.0904 77.4118 96.9482 78.3561 98.0453 78.3561C99.1428 78.3561 100 77.4118 100.037 77.3717C100.131 77.2666 100.131 77.1076 100.037 77.0029C100.001 76.9628 99.1424 76.0186 98.0453 76.0186ZM98.0453 77.8037C97.4583 77.8037 96.9309 77.4243 96.6592 77.1868C96.9314 76.9499 97.4592 76.5699 98.0453 76.5699C98.6324 76.5699 99.1597 76.9494 99.4314 77.1868C99.1597 77.4242 98.6323 77.8037 98.0453 77.8037Z" fill="#442A14"/>
<path d="M103.402 81.0356C103.42 81.0356 103.438 81.0338 103.456 81.0303C103.606 81.0004 103.703 80.8548 103.673 80.7056L102.81 76.3913C103.21 76.0269 104.677 74.7935 105.999 75.0096C106.661 75.1174 107.207 75.5918 107.62 76.4189C107.689 76.5561 107.859 76.6122 107.99 76.5427C108.127 76.4741 108.182 76.3084 108.114 76.1721C107.617 75.1762 106.934 74.6016 106.086 74.464C104.276 74.1674 102.393 76.0211 102.314 76.1C102.248 76.1655 102.22 76.2595 102.238 76.3495L103.131 80.8138C103.157 80.9452 103.273 81.0356 103.402 81.0356L103.402 81.0356Z" fill="#442A14"/>
<path d="M105.634 76.0186C104.757 76.0186 104.092 76.9922 104.065 77.0332C104.001 77.1267 104.001 77.2488 104.065 77.3414C104.092 77.3824 104.757 78.3561 105.634 78.3561C106.509 78.3561 107.174 77.3824 107.202 77.3414C107.264 77.2479 107.264 77.1258 107.202 77.0332C107.175 76.9922 106.51 76.0186 105.634 76.0186ZM105.634 77.8037C105.243 77.8037 104.852 77.4398 104.641 77.1868C104.853 76.9343 105.244 76.5699 105.634 76.5699C106.023 76.5699 106.414 76.9338 106.625 77.1868C106.414 77.4398 106.024 77.8037 105.634 77.8037Z" fill="#442A14"/>
<path d="M98.1445 74.4756C96.4461 74.4756 95.2043 75.9642 95.1522 76.0274C95.0551 76.1459 95.0725 76.3191 95.1901 76.4158C95.309 76.5124 95.4823 76.495 95.5794 76.3779C95.5901 76.3645 96.7103 75.0274 98.1441 75.0274H98.1472C98.9796 75.0283 99.7751 75.4826 100.509 76.3779C100.564 76.4443 100.643 76.479 100.723 76.479C100.784 76.479 100.847 76.4585 100.898 76.4162C101.017 76.3196 101.034 76.145 100.937 76.0274C100.092 74.9976 99.1521 74.4756 98.1446 74.4756L98.1445 74.4756Z" fill="#442A14"/>
</g>
<defs>
<filter id="filter0_ii_503_49" x="18.0992" y="21.4783" width="135.801" height="136.801" filterUnits="userSpaceOnUse" color-interpolation-filters="sRGB">
<feFlood flood-opacity="0" result="BackgroundImageFix"/>
<feBlend mode="normal" in="SourceGraphic" in2="BackgroundImageFix" result="shape"/>
<feColorMatrix in="SourceAlpha" type="matrix" values="0 0 0 0 0 0 0 0 0 0 0 0 0 0 0 0 0 0 127 0" result="hardAlpha"/>
<feOffset dx="-3" dy="4"/>
<feGaussianBlur stdDeviation="5"/>
<feComposite in2="hardAlpha" operator="arithmetic" k2="-1" k3="1"/>
<feColorMatrix type="matrix" values="0 0 0 0 0.266667 0 0 0 0 0.164706 0 0 0 0 0.0784314 0 0 0 0.25 0"/>
<feBlend mode="normal" in2="shape" result="effect1_innerShadow_503_49"/>
<feColorMatrix in="SourceAlpha" type="matrix" values="0 0 0 0 0 0 0 0 0 0 0 0 0 0 0 0 0 0 127 0" result="hardAlpha"/>
<feOffset dx="-1" dy="3"/>
<feGaussianBlur stdDeviation="2.5"/>
<feComposite in2="hardAlpha" operator="arithmetic" k2="-1" k3="1"/>
<feColorMatrix type="matrix" values="0 0 0 0 0.266667 0 0 0 0 0.164706 0 0 0 0 0.0784314 0 0 0 0.2 0"/>
<feBlend mode="normal" in2="effect1_innerShadow_503_49" result="effect2_innerShadow_503_49"/>
</filter>
<clipPath id="clip0_503_49">
<rect width="175" height="175" fill="white"/>
</clipPath>
</defs>
</svg>
