<svg width="175" height="175" viewBox="0 0 175 175" fill="none" xmlns="http://www.w3.org/2000/svg">
<g clip-path="url(#clip0_503_88)">
<path d="M87.3789 2.00001L2 87.3789L87.3789 172.758L172.758 87.3789L87.3789 2.00001Z" stroke="#442A14" stroke-width="3"/>
<g filter="url(#filter0_ii_503_88)">
<path d="M87.5 21.4782L21.0992 87.8789L87.5 154.28L153.901 87.8789L87.5 21.4782Z" fill="#EBCC6E"/>
</g>
<path d="M113.601 104.368C113.286 103.97 112.807 103.737 112.299 103.736H109.427V103.583C109.276 102.796 108.59 102.227 107.79 102.223H104.669V71.8903H107.541C108.291 71.8828 108.933 71.352 109.082 70.6172H111.323C111.799 70.6131 112.248 70.3953 112.547 70.0243C112.845 69.6538 112.962 69.1686 112.864 68.7021L112.366 66.5383C112.205 65.8165 111.564 65.3035 110.825 65.3035H109.944C109.771 64.5929 109.134 64.094 108.402 64.097H106.162V63.6275C106.157 62.7273 105.425 62 104.525 62H70.4976C69.8496 61.996 69.2583 62.37 68.9849 62.9573H65.136C64.2859 62.9477 63.5687 63.5866 63.4797 64.4321H62.2637C61.4828 64.4311 60.8065 64.9724 60.6362 65.734L60.0428 68.3289H60.0423C59.9286 68.8243 60.0469 69.3444 60.3638 69.7416C60.6807 70.1384 61.1618 70.3694 61.6698 70.3684H64.5422V70.5215C64.6933 71.3075 65.3792 71.8771 66.1797 71.8811H70.3253V102.223H66.4091C65.656 102.226 65.0081 102.758 64.8585 103.496H62.618C62.1419 103.501 61.6926 103.718 61.3939 104.089C61.0957 104.46 60.9789 104.945 61.0765 105.411L61.5743 107.585C61.7355 108.307 62.3764 108.82 63.1159 108.82H63.9968C64.1697 109.53 64.807 110.029 65.5384 110.026H67.7789V110.466L67.7784 110.467C67.7784 111.371 68.5118 112.104 69.416 112.104H103.434C104.082 112.108 104.673 111.734 104.947 111.146H108.776C109.63 111.167 110.358 110.53 110.452 109.681H111.706C112.487 109.682 113.163 109.141 113.334 108.379L113.965 105.785C114.07 105.282 113.935 104.759 113.602 104.368L113.601 104.368ZM110.413 68.3107H109.512L109.646 67.5829H110.24L110.413 68.3107ZM107.54 66.3956L106.937 69.603H106.172V66.3763L107.54 66.3956ZM71.1571 64.3177H103.854V67.19H90.9863C90.5602 67.19 90.2155 67.5353 90.2155 67.9608C90.2155 68.3864 90.5602 68.7316 90.9863 68.7316H103.854V69.5645H71.1481L71.1571 64.3177ZM62.4349 68.0615L62.7316 66.7403H63.8234L64.0725 68.0615H62.4349ZM66.6957 69.5839L65.8916 65.2943H68.8312V69.5839H66.6957ZM72.6225 71.8912H102.36V102.224H72.6315L72.6225 71.8912ZM63.5172 105.804H64.4173L64.2834 106.532H63.689L63.5172 105.804ZM66.3895 107.719L67.0501 104.531H67.8158V107.767L66.3895 107.719ZM102.773 109.797H70.0862V109.127H82.9443C83.3704 109.127 83.7151 108.782 83.7151 108.356C83.7151 107.931 83.3704 107.586 82.9443 107.586H70.0862V104.531H102.792L102.773 109.797ZM105.08 108.84V104.531H107.263L108.067 108.821L105.08 108.84ZM111.179 107.394L110.135 107.394L109.886 106.073H111.514L111.179 107.394ZM84.4276 108.352V108.351C84.4276 108.073 84.5954 107.821 84.8532 107.714C85.1105 107.608 85.4071 107.667 85.6043 107.864C85.8014 108.061 85.8605 108.358 85.7539 108.615C85.6467 108.873 85.3955 109.041 85.1165 109.041C84.7506 109.031 84.4564 108.736 84.4463 108.37L84.4276 108.352ZM89.4733 67.9665C89.4733 68.245 89.305 68.4967 89.0477 68.6034C88.79 68.71 88.4933 68.6509 88.2962 68.4538C88.0991 68.2566 88.0404 67.9599 88.1471 67.7027C88.2537 67.4449 88.5049 67.2771 88.7839 67.2771C88.9699 67.2746 89.1493 67.3474 89.2808 67.4788C89.4127 67.6107 89.4854 67.7896 89.4829 67.9761L89.4733 67.9665ZM86.4857 80.1165C86.4857 80.3197 86.4053 80.5143 86.2613 80.6578C86.1177 80.8019 85.9232 80.8822 85.72 80.8822H75.8676C75.442 80.8822 75.0968 80.537 75.0968 80.1115C75.0968 79.6859 75.442 79.3407 75.8676 79.3407H85.72C85.9247 79.3407 86.1208 79.4231 86.2648 79.5686C86.4089 79.7142 86.4882 79.9118 86.4857 80.1165L86.4857 80.1165ZM86.4857 83.142C86.4857 83.3452 86.4053 83.5398 86.2613 83.6833C86.1177 83.8274 85.9232 83.9078 85.72 83.9078H75.8676C75.442 83.9078 75.0968 83.563 75.0968 83.137C75.0968 82.7114 75.442 82.3662 75.8676 82.3662H85.72C85.9262 82.3662 86.1243 82.4496 86.2684 82.5977C86.4124 82.7453 86.4913 82.9449 86.4857 83.1516V83.142ZM86.4857 86.1676C86.4857 86.3707 86.4053 86.5653 86.2613 86.7089C86.1177 86.8529 85.9232 86.9333 85.72 86.9333H75.8676C75.442 86.9333 75.0968 86.5886 75.0968 86.1625C75.0968 85.7369 75.442 85.3917 75.8676 85.3917H85.72C85.9262 85.3917 86.1243 85.4751 86.2684 85.6232C86.4124 85.7708 86.4913 85.9705 86.4857 86.1772V86.1676ZM86.4857 89.1931C86.4857 89.3963 86.4053 89.5909 86.2613 89.7349C86.1177 89.8784 85.9232 89.9588 85.72 89.9588H75.8676C75.442 89.9588 75.0968 89.6141 75.0968 89.188C75.0968 88.7625 75.442 88.4178 75.8676 88.4178H85.72C85.9282 88.4173 86.1273 88.5022 86.2719 88.6518C86.4165 88.8019 86.4938 89.0041 86.4857 89.2123L86.4857 89.1931ZM86.4857 92.2186C86.4857 92.4218 86.4053 92.6164 86.2613 92.7604C86.1177 92.904 85.9232 92.9843 85.72 92.9843H75.8676C75.442 92.9843 75.0968 92.6396 75.0968 92.2141C75.0968 91.788 75.442 91.4433 75.8676 91.4433H85.72C85.9282 91.4428 86.1273 91.5277 86.2719 91.6773C86.4165 91.8274 86.4938 92.0296 86.4857 92.2378L86.4857 92.2186ZM86.4857 95.2441C86.4857 95.4473 86.4053 95.6419 86.2613 95.786C86.1177 95.9295 85.9232 96.0104 85.72 96.0104H75.8676C75.442 96.0104 75.0968 95.6652 75.0968 95.2396C75.0968 94.8135 75.442 94.4688 75.8676 94.4688H85.72C85.9282 94.4683 86.1273 94.5532 86.2719 94.7028C86.4165 94.853 86.4938 95.0551 86.4857 95.2634L86.4857 95.2441ZM99.9953 80.1171C99.9953 80.3203 99.915 80.5149 99.7709 80.6585C99.6274 80.8025 99.4328 80.8829 99.2296 80.8829H89.3772C88.9516 80.8829 88.6064 80.5377 88.6064 80.1121C88.6064 79.6865 88.9516 79.3413 89.3772 79.3413H99.2296C99.4343 79.3413 99.6304 79.4237 99.7744 79.5693C99.9185 79.7148 99.9979 79.9124 99.9953 80.1172L99.9953 80.1171ZM99.9953 83.1427C99.9953 83.3459 99.915 83.5404 99.7709 83.684C99.6274 83.828 99.4328 83.9084 99.2296 83.9084H89.3772C88.9516 83.9084 88.6064 83.5637 88.6064 83.1376C88.6064 82.7121 88.9516 82.3669 89.3772 82.3669H99.2296C99.4358 82.3669 99.6339 82.4502 99.778 82.5983C99.922 82.7459 100 82.9456 99.9953 83.1523V83.1427ZM99.9953 86.1682C99.9953 86.3714 99.915 86.566 99.7709 86.7095C99.6274 86.8536 99.4328 86.9339 99.2296 86.9339H89.3772C88.9516 86.9339 88.6064 86.5892 88.6064 86.1632C88.6064 85.7376 88.9516 85.3924 89.3772 85.3924H99.2296C99.4358 85.3924 99.6339 85.4758 99.778 85.6239C99.922 85.7715 100 85.9711 99.9953 86.1778V86.1682ZM99.9953 89.1937C99.9953 89.3969 99.915 89.5915 99.7709 89.7356C99.6274 89.8791 99.4328 89.9595 99.2296 89.9595H89.3772C88.9516 89.9595 88.6064 89.6148 88.6064 89.1887C88.6064 88.7631 88.9516 88.4184 89.3772 88.4184H99.2296C99.4378 88.4179 99.637 88.5028 99.7815 88.6524C99.9261 88.8025 100.003 89.0047 99.9953 89.2129L99.9953 89.1937ZM99.9953 92.2193C99.9953 92.4224 99.915 92.617 99.7709 92.7611C99.6274 92.9046 99.4328 92.985 99.2296 92.985H89.3772C88.9516 92.985 88.6064 92.6403 88.6064 92.2147C88.6064 91.7886 88.9516 91.4439 89.3772 91.4439H99.2296C99.4378 91.4434 99.637 91.5283 99.7815 91.678C99.9261 91.8281 100.003 92.0302 99.9953 92.2385L99.9953 92.2193ZM99.9953 95.2448C99.9953 95.448 99.915 95.6426 99.7709 95.7866C99.6274 95.9302 99.4328 96.011 99.2296 96.011H89.3772C88.9516 96.011 88.6064 95.6658 88.6064 95.2402C88.6064 94.8142 88.9516 94.4695 89.3772 94.4695H99.2296C99.4378 94.469 99.637 94.5539 99.7815 94.7035C99.9261 94.8536 100.003 95.0558 99.9953 95.264L99.9953 95.2448Z" fill="#442A14"/>
</g>
<defs>
<filter id="filter0_ii_503_88" x="18.0992" y="21.4783" width="135.801" height="136.801" filterUnits="userSpaceOnUse" color-interpolation-filters="sRGB">
<feFlood flood-opacity="0" result="BackgroundImageFix"/>
<feBlend mode="normal" in="SourceGraphic" in2="BackgroundImageFix" result="shape"/>
<feColorMatrix in="SourceAlpha" type="matrix" values="0 0 0 0 0 0 0 0 0 0 0 0 0 0 0 0 0 0 127 0" result="hardAlpha"/>
<feOffset dx="-3" dy="4"/>
<feGaussianBlur stdDeviation="5"/>
<feComposite in2="hardAlpha" operator="arithmetic" k2="-1" k3="1"/>
<feColorMatrix type="matrix" values="0 0 0 0 0.266667 0 0 0 0 0.164706 0 0 0 0 0.0784314 0 0 0 0.25 0"/>
<feBlend mode="normal" in2="shape" result="effect1_innerShadow_503_88"/>
<feColorMatrix in="SourceAlpha" type="matrix" values="0 0 0 0 0 0 0 0 0 0 0 0 0 0 0 0 0 0 127 0" result="hardAlpha"/>
<feOffset dx="-1" dy="3"/>
<feGaussianBlur stdDeviation="2.5"/>
<feComposite in2="hardAlpha" operator="arithmetic" k2="-1" k3="1"/>
<feColorMatrix type="matrix" values="0 0 0 0 0.266667 0 0 0 0 0.164706 0 0 0 0 0.0784314 0 0 0 0.2 0"/>
<feBlend mode="normal" in2="effect1_innerShadow_503_88" result="effect2_innerShadow_503_88"/>
</filter>
<clipPath id="clip0_503_88">
<rect width="175" height="175" fill="white"/>
</clipPath>
</defs>
</svg>
