<svg width="175" height="175" viewBox="0 0 175 175" fill="none" xmlns="http://www.w3.org/2000/svg">
<g clip-path="url(#clip0_503_58)">
<path d="M87.3789 2.00001L2 87.3789L87.3789 172.758L172.758 87.3789L87.3789 2.00001Z" stroke="#442A14" stroke-width="3"/>
<g filter="url(#filter0_ii_503_58)">
<path d="M87.5 21.4782L21.0992 87.8789L87.5 154.28L153.901 87.8789L87.5 21.4782Z" fill="#EBCC6E"/>
</g>
<path d="M68.6904 64.5735C67.5983 64.5735 66.5506 65.0073 65.7788 65.7796C65.0065 66.5515 64.5726 67.5991 64.5726 68.6913C64.5726 69.783 65.0065 70.8306 65.7788 71.6024C66.5507 72.3748 67.5983 72.8086 68.6904 72.8086C69.7821 72.8086 70.8298 72.3748 71.6016 71.6024C72.3739 70.8306 72.8078 69.783 72.8078 68.6913C72.8033 67.6005 72.3681 66.5556 71.5967 65.7845C70.8257 65.0131 69.7807 64.5779 68.6904 64.5735ZM68.6904 70.1255C67.9328 70.1161 67.3235 69.4992 67.3235 68.7416C67.3235 67.9866 67.9355 67.3746 68.6904 67.3746C69.4485 67.3461 70.0881 67.9332 70.1246 68.6913C70.1389 69.0757 69.9923 69.4489 69.7202 69.7211C69.448 69.9932 69.0748 70.1397 68.6904 70.1255L68.6904 70.1255Z" fill="#442A14"/>
<path d="M105.308 72.8086C106.401 72.8086 107.448 72.3748 108.22 71.6025C108.992 70.8306 109.426 69.783 109.426 68.6913C109.426 67.5991 108.992 66.5515 108.22 65.7796C107.448 65.0073 106.401 64.5735 105.308 64.5735C104.216 64.5735 103.169 65.0073 102.397 65.7796C101.625 66.5515 101.191 67.5991 101.191 68.6913C101.191 69.783 101.625 70.8306 102.397 71.6025C103.169 72.3748 104.216 72.8086 105.308 72.8086ZM105.308 67.3242C106.063 67.3242 106.675 67.9362 106.675 68.6912C106.675 69.4488 106.066 70.0653 105.308 70.0746C104.933 70.0884 104.568 69.9486 104.297 69.6876C104.027 69.4266 103.874 69.0671 103.874 68.6912C103.878 68.3179 104.033 67.9625 104.303 67.705C104.573 67.448 104.936 67.3104 105.308 67.3242V67.3242Z" fill="#442A14"/>
<path d="M106.676 100.264H103.014V77.0436C105.425 77.6992 108.002 77.2827 110.084 75.9015C112.166 74.5198 113.552 72.3074 113.885 69.831C114.219 67.3545 113.468 64.8548 111.825 62.9717C110.182 61.0885 107.808 60.0057 105.309 60H68.6908C65.6735 60.1327 62.9409 61.8195 61.4698 64.4563C59.9986 67.0936 59.9986 70.3046 61.4698 72.9418C62.9409 75.5787 65.6735 77.2655 68.6908 77.3982C69.468 77.383 70.2399 77.2641 70.9855 77.0436V100.264H67.3238V105.765H60V114H114V105.765H106.676L106.676 100.264ZM100.263 100.264H97.5295V76.0139C97.5269 75.2581 97.9001 74.5498 98.525 74.1241C99.0127 74.7565 99.5798 75.3239 100.212 75.8117L100.263 100.264ZM89.2944 100.264H84.7044V76.0139C84.7044 75.1939 85.1418 74.4363 85.8518 74.0265C86.5617 73.6166 87.4365 73.6167 88.147 74.0265C88.857 74.4362 89.2943 75.1938 89.2943 76.0139L89.2944 100.264ZM86.9992 70.9854C85.6568 70.9854 84.3691 71.519 83.4194 72.4682C82.4702 73.4178 81.9366 74.7055 81.9366 76.048V100.264H79.2201V76.0138C79.1965 74.3074 78.3145 72.7276 76.8741 71.8122C77.0861 71.2675 77.2389 70.7018 77.3298 70.1245H96.7197C96.7946 70.6995 96.93 71.2657 97.1246 71.8122C95.6449 72.7284 94.7404 74.3408 94.7283 76.0814V100.263H92.062V76.013C92.0531 74.6763 91.5159 73.3971 90.5677 72.4551C89.619 71.513 88.3367 70.9844 86.9995 70.9844L86.9992 70.9854ZM62.7495 68.6907C62.7539 67.1165 63.3815 65.608 64.4946 64.4953C65.6073 63.3822 67.1158 62.7546 68.69 62.7502H105.309H105.309C106.889 62.7506 108.406 63.3786 109.523 64.497C110.64 65.6155 111.267 67.132 111.266 68.7129C111.264 70.2936 110.634 71.8094 109.515 72.9255C108.395 74.0417 106.878 74.667 105.298 74.664C103.717 74.6613 102.202 74.0297 101.087 72.9095C99.9713 71.7888 99.3472 70.2713 99.3517 68.6905V67.3236H74.647V68.6905C74.8701 70.3907 74.3499 72.1046 73.2186 73.3941C72.0877 74.6831 70.4561 75.422 68.7408 75.422C67.026 75.422 65.394 74.6831 64.2631 73.3941C63.1322 72.1046 62.6115 70.3907 62.8347 68.6905L62.7495 68.6907ZM73.7356 75.7441C74.3681 75.2564 74.9351 74.6894 75.4228 74.0564C76.0477 74.4823 76.421 75.1905 76.4187 75.9468V100.264H73.7356L73.7356 75.7441ZM70.1242 103.014H103.874V105.765H70.1242V103.014ZM111.3 108.516V111.25L62.7502 111.249V108.516L111.3 108.516Z" fill="#442A14"/>
</g>
<defs>
<filter id="filter0_ii_503_58" x="18.0992" y="21.4783" width="135.801" height="136.801" filterUnits="userSpaceOnUse" color-interpolation-filters="sRGB">
<feFlood flood-opacity="0" result="BackgroundImageFix"/>
<feBlend mode="normal" in="SourceGraphic" in2="BackgroundImageFix" result="shape"/>
<feColorMatrix in="SourceAlpha" type="matrix" values="0 0 0 0 0 0 0 0 0 0 0 0 0 0 0 0 0 0 127 0" result="hardAlpha"/>
<feOffset dx="-3" dy="4"/>
<feGaussianBlur stdDeviation="5"/>
<feComposite in2="hardAlpha" operator="arithmetic" k2="-1" k3="1"/>
<feColorMatrix type="matrix" values="0 0 0 0 0.266667 0 0 0 0 0.164706 0 0 0 0 0.0784314 0 0 0 0.25 0"/>
<feBlend mode="normal" in2="shape" result="effect1_innerShadow_503_58"/>
<feColorMatrix in="SourceAlpha" type="matrix" values="0 0 0 0 0 0 0 0 0 0 0 0 0 0 0 0 0 0 127 0" result="hardAlpha"/>
<feOffset dx="-1" dy="3"/>
<feGaussianBlur stdDeviation="2.5"/>
<feComposite in2="hardAlpha" operator="arithmetic" k2="-1" k3="1"/>
<feColorMatrix type="matrix" values="0 0 0 0 0.266667 0 0 0 0 0.164706 0 0 0 0 0.0784314 0 0 0 0.2 0"/>
<feBlend mode="normal" in2="effect1_innerShadow_503_58" result="effect2_innerShadow_503_58"/>
</filter>
<clipPath id="clip0_503_58">
<rect width="175" height="175" fill="white"/>
</clipPath>
</defs>
</svg>
