<svg width="175" height="175" viewBox="0 0 175 175" fill="none" xmlns="http://www.w3.org/2000/svg">
<rect x="2.12132" y="87.5" width="120.744" height="120.744" transform="rotate(-45 2.12132 87.5)" stroke="#442A14" stroke-width="3"/>
<g filter="url(#filter0_di_254_4)">
<rect x="21.0994" y="87.5" width="93.9048" height="93.9048" transform="rotate(-45 21.0994 87.5)" fill="#EBCC6E"/>
</g>
<g clip-path="url(#clip0_254_4)">
<path d="M88.9999 97.3998C90.5708 97.3998 92.1063 96.9339 93.4122 96.061C94.7182 95.1881 95.7358 93.9474 96.3365 92.496C96.9372 91.0445 97.0938 89.4476 96.7866 87.9071C96.4795 86.3666 95.7223 84.9518 94.6108 83.8418C93.4994 82.7318 92.0837 81.9764 90.5428 81.6711C89.002 81.3659 87.4052 81.5246 85.9545 82.127C84.5038 82.7295 83.2645 83.7488 82.3932 85.0558C81.522 86.3629 81.058 87.899 81.0599 89.4698C81.0626 91.5739 81.9003 93.5909 83.389 95.0777C84.8778 96.5646 86.8959 97.3998 88.9999 97.3998ZM85.6399 85.0998C85.6396 84.885 85.7128 84.6765 85.8475 84.5091C85.9821 84.3417 86.17 84.2255 86.3799 84.1798C86.9147 84.0798 87.4562 84.0196 87.9999 83.9998V83.3998C87.9864 83.2689 88.0005 83.1366 88.0413 83.0115C88.0821 82.8863 88.1487 82.7712 88.2369 82.6734C88.325 82.5757 88.4327 82.4976 88.5529 82.4441C88.6732 82.3906 88.8033 82.363 88.9349 82.363C89.0666 82.363 89.1967 82.3906 89.3169 82.4441C89.4372 82.4976 89.5449 82.5757 89.633 82.6734C89.7212 82.7712 89.7878 82.8863 89.8286 83.0115C89.8694 83.1366 89.8835 83.2689 89.8699 83.3998V84.0598C90.552 84.1356 91.1978 84.4064 91.7299 84.8398C92.0823 85.1081 92.3651 85.457 92.5548 85.8572C92.7444 86.2574 92.8353 86.6972 92.8199 87.1398C92.8228 87.8337 92.5741 88.5051 92.1199 89.0298C92.4493 89.3238 92.7096 89.6868 92.8825 90.0931C93.0554 90.4993 93.1364 90.9386 93.1199 91.3798C93.1282 91.8376 93.0438 92.2924 92.872 92.7168C92.7002 93.1413 92.4444 93.5266 92.1199 93.8498C91.4901 94.3996 90.7098 94.748 89.8799 94.8498V95.5498C89.856 95.7811 89.7472 95.9953 89.5745 96.151C89.4018 96.3068 89.1775 96.393 88.9449 96.393C88.7124 96.393 88.4881 96.3068 88.3154 96.151C88.1427 95.9953 88.0339 95.7811 88.0099 95.5498V94.9498C87.2499 94.9498 86.7199 94.8698 86.4499 94.8498C86.2265 94.8182 86.0221 94.7065 85.8749 94.5354C85.7277 94.3643 85.6477 94.1455 85.6499 93.9198L85.6399 85.0998Z" fill="#442A14"/>
<path d="M118.2 97.3897C117.692 97.3894 117.193 97.5281 116.758 97.7907C116.322 98.0533 115.967 98.4299 115.73 98.8797H109.83V90.7697H113.33C113.564 91.2228 113.918 91.6027 114.354 91.8673C114.79 92.132 115.29 92.2712 115.8 92.2697C116.543 92.2697 117.255 91.9747 117.78 91.4496C118.305 90.9245 118.6 90.2123 118.6 89.4697C118.6 88.7271 118.305 88.0149 117.78 87.4898C117.255 86.9647 116.543 86.6697 115.8 86.6697C115.291 86.6661 114.791 86.8034 114.355 87.0663C113.919 87.3293 113.564 87.7077 113.33 88.1597H109.83V84.9097L112.61 80.0497H115.73C116.022 80.6033 116.49 81.0432 117.061 81.2993C117.632 81.5555 118.272 81.613 118.879 81.4628C119.487 81.3126 120.026 80.9633 120.412 80.4707C120.798 79.978 121.007 79.3704 121.007 78.7447C121.007 78.119 120.798 77.5114 120.412 77.0187C120.026 76.5261 119.487 76.1768 118.879 76.0266C118.272 75.8764 117.632 75.9339 117.061 76.1901C116.49 76.4462 116.022 76.8861 115.73 77.4397H111.85C111.62 77.44 111.394 77.5012 111.196 77.6171C110.997 77.7331 110.833 77.8996 110.72 78.0997L109.83 79.6397V66.6397C109.831 66.451 109.775 66.2663 109.67 66.1097L109.55 65.9997L103.08 59.5197L102.94 59.3997C102.888 59.3649 102.83 59.338 102.77 59.3197C102.66 59.2684 102.541 59.2411 102.42 59.2397H71C70.2608 59.2343 69.5495 59.5215 69.0213 60.0386C68.493 60.5556 68.1906 61.2606 68.18 61.9997V79.6497L67.29 78.0997C67.1752 77.8988 67.0093 77.7319 66.809 77.616C66.6088 77.5001 66.3814 77.4392 66.15 77.4397H62.28C61.9882 76.8832 61.5183 76.4406 60.9454 76.1826C60.3725 75.9245 59.7296 75.866 59.1194 76.0162C58.5093 76.1665 57.9672 76.5169 57.5796 77.0115C57.1921 77.5061 56.9814 78.1163 56.9814 78.7447C56.9814 79.3731 57.1921 79.9833 57.5796 80.4779C57.9672 80.9725 58.5093 81.3229 59.1194 81.4732C59.7296 81.6234 60.3725 81.5649 60.9454 81.3068C61.5183 81.0488 61.9882 80.6062 62.28 80.0497H65.4L68.18 84.9097V88.1597H64.68C64.3882 87.6032 63.9183 87.1606 63.3454 86.9026C62.7725 86.6445 62.1296 86.586 61.5194 86.7362C60.9093 86.8865 60.3672 87.2369 59.9796 87.7315C59.5921 88.2261 59.3814 88.8363 59.3814 89.4647C59.3814 90.0931 59.5921 90.7033 59.9796 91.1979C60.3672 91.6925 60.9093 92.0429 61.5194 92.1932C62.1296 92.3434 62.7725 92.2849 63.3454 92.0268C63.9183 91.7688 64.3882 91.3262 64.68 90.7697H68.18V98.8797H62.28C61.9882 98.3232 61.5183 97.8806 60.9454 97.6226C60.3725 97.3645 59.7296 97.306 59.1194 97.4562C58.5093 97.6065 57.9672 97.9569 57.5796 98.4515C57.1921 98.9461 56.9814 99.5563 56.9814 100.185C56.9814 100.813 57.1921 101.423 57.5796 101.918C57.9672 102.412 58.5093 102.763 59.1194 102.913C59.7296 103.063 60.3725 103.005 60.9454 102.747C61.5183 102.489 61.9882 102.046 62.28 101.49H68.18V114C68.1958 115.268 68.7106 116.478 69.6128 117.369C70.515 118.26 71.732 118.76 73 118.76H113C114.061 118.76 115.078 118.338 115.828 117.588C116.579 116.838 117 115.821 117 114.76V112.52C117.001 112.396 116.978 112.274 116.931 112.16C116.884 112.046 116.815 111.942 116.727 111.855C116.639 111.769 116.535 111.7 116.421 111.655C116.306 111.609 116.183 111.587 116.06 111.59H109.86V101.49H115.76C115.991 101.93 116.334 102.3 116.755 102.564C117.177 102.827 117.66 102.974 118.157 102.988C118.653 103.003 119.145 102.886 119.581 102.648C120.017 102.41 120.382 102.06 120.638 101.635C120.895 101.209 121.033 100.723 121.04 100.226C121.046 99.7296 120.92 99.2401 120.675 98.808C120.43 98.3759 120.074 98.0169 119.645 97.7676C119.215 97.5184 118.727 97.3879 118.23 97.3897H118.2ZM71 86.2097H76.37C76.1948 86.8488 76.0711 87.5009 76 88.1597H71V86.2097ZM71 90.7697H76C76.0613 91.4277 76.175 92.0798 76.34 92.7197H73.54C73.3104 92.721 73.0851 92.7826 72.8867 92.8985C72.6884 93.0143 72.524 93.1803 72.41 93.3797L71 95.8797V90.7697ZM107 110.65H76.86C76.7371 110.65 76.6153 110.674 76.5018 110.721C76.3883 110.769 76.2854 110.838 76.1989 110.926C76.1124 111.013 76.0441 111.117 75.9979 111.231C75.9518 111.345 75.9287 111.467 75.93 111.59V113.78C75.93 113.69 75.93 113.06 75.93 113.15C75.8817 113.595 75.7443 114.027 75.5262 114.418C75.308 114.81 75.0135 115.154 74.66 115.43L74.33 115.62C74.0931 115.756 73.8314 115.845 73.56 115.88C73.275 115.901 72.9899 115.839 72.74 115.7C72.4494 115.576 72.1821 115.404 71.95 115.19C71.6502 114.909 71.4112 114.57 71.2478 114.193C71.0844 113.817 71.0001 113.41 71 113V101C71.0674 100.932 71.1247 100.854 71.17 100.77L74.32 95.2797H77.32C78.407 97.4432 80.0739 99.2619 82.1346 100.533C84.1954 101.804 86.5689 102.477 88.99 102.477C91.4112 102.477 93.7847 101.804 95.8454 100.533C97.9062 99.2619 99.5731 97.4432 100.66 95.2797H103.66L106.8 100.77C106.853 100.861 106.917 100.945 106.99 101.02L107 110.65ZM79.2 89.4697C79.2 87.5314 79.7748 85.6367 80.8516 84.0251C81.9285 82.4135 83.459 81.1574 85.2497 80.4157C87.0405 79.6739 89.0109 79.4799 90.9119 79.858C92.8129 80.2361 94.5591 81.1695 95.9297 82.5401C97.3002 83.9106 98.2336 85.6568 98.6117 87.5578C98.9899 89.4588 98.7958 91.4293 98.0541 93.22C97.3123 95.0107 96.0562 96.5413 94.4446 97.6181C92.833 98.6949 90.9383 99.2697 89 99.2697C86.4017 99.2671 83.9106 98.2337 82.0733 96.3964C80.236 94.5591 79.2027 92.068 79.2 89.4697ZM107 95.8997L105.56 93.3797C105.445 93.181 105.281 93.0155 105.083 92.8998C104.884 92.7841 104.66 92.722 104.43 92.7197H101.63C101.805 92.0806 101.929 91.4285 102 90.7697H107V95.8997ZM107 88.1597H102C101.94 87.5007 101.823 86.8483 101.65 86.2097H107V88.1597ZM107 83.5897H100.68C99.5931 81.4262 97.9262 79.6075 95.8654 78.3366C93.8047 77.0657 91.4312 76.3927 89.01 76.3927C86.5889 76.3927 84.2154 77.0657 82.1546 78.3366C80.0939 79.6075 78.427 81.4262 77.34 83.5897H71V62.9997C70.9919 62.8738 71.0092 62.7475 71.051 62.6285C71.0927 62.5094 71.1579 62.3999 71.2429 62.3066C71.3278 62.2133 71.4306 62.138 71.5452 62.0853C71.6599 62.0326 71.7839 62.0035 71.91 61.9997H101.48V64.7897C101.483 65.5332 101.78 66.2454 102.307 66.7702C102.833 67.295 103.547 67.5897 104.29 67.5897H107V83.5897Z" fill="#442A14"/>
<path d="M80.8199 67.8498H97.1899C97.4932 67.8223 97.7751 67.6823 97.9804 67.4575C98.1858 67.2327 98.2996 66.9393 98.2996 66.6348C98.2996 66.3303 98.1858 66.0369 97.9804 65.8121C97.7751 65.5872 97.4932 65.4473 97.1899 65.4198H80.8199C80.6511 65.4045 80.481 65.4245 80.3203 65.4786C80.1597 65.5327 80.012 65.6196 79.8869 65.734C79.7617 65.8483 79.6617 65.9874 79.5933 66.1425C79.5249 66.2976 79.4896 66.4653 79.4896 66.6348C79.4896 66.8043 79.5249 66.972 79.5933 67.1271C79.6617 67.2822 79.7617 67.4213 79.8869 67.5356C80.012 67.6499 80.1597 67.7369 80.3203 67.791C80.481 67.8451 80.6511 67.8651 80.8199 67.8498ZM100.51 70.3098H77.5099C77.3411 70.2945 77.171 70.3145 77.0103 70.3686C76.8497 70.4227 76.702 70.5096 76.5769 70.624C76.4517 70.7383 76.3517 70.8774 76.2833 71.0325C76.2149 71.1876 76.1796 71.3553 76.1796 71.5248C76.1796 71.6943 76.2149 71.862 76.2833 72.0171C76.3517 72.1722 76.4517 72.3113 76.5769 72.4256C76.702 72.5399 76.8497 72.6269 77.0103 72.681C77.171 72.7351 77.3411 72.7551 77.5099 72.7398H100.51C100.813 72.7123 101.095 72.5723 101.3 72.3475C101.506 72.1227 101.62 71.8293 101.62 71.5248C101.62 71.2203 101.506 70.9269 101.3 70.7021C101.095 70.4772 100.813 70.3373 100.51 70.3098ZM100.71 106.41H77.2999C77.1311 106.394 76.961 106.414 76.8003 106.469C76.6397 106.523 76.492 106.61 76.3669 106.724C76.2417 106.838 76.1417 106.977 76.0733 107.133C76.0049 107.288 75.9696 107.455 75.9696 107.625C75.9696 107.794 76.0049 107.962 76.0733 108.117C76.1417 108.272 76.2417 108.411 76.3669 108.526C76.492 108.64 76.6397 108.727 76.8003 108.781C76.961 108.835 77.1311 108.855 77.2999 108.84H100.71C101.013 108.812 101.295 108.672 101.5 108.448C101.706 108.223 101.82 107.929 101.82 107.625C101.82 107.32 101.706 107.027 101.5 106.802C101.295 106.577 101.013 106.437 100.71 106.41ZM90.9999 87.1398C91.0094 86.9829 90.9817 86.826 90.9192 86.6818C90.8566 86.5375 90.761 86.4101 90.6399 86.3098C90.1643 85.9684 89.5837 85.8056 88.9999 85.8498C88.9889 85.8451 88.977 85.8427 88.9649 85.8427C88.9529 85.8427 88.941 85.8451 88.9299 85.8498H88.7199C88.3292 85.849 87.9386 85.869 87.5499 85.9098V88.1898H90.2299C90.4479 88.1108 90.6374 87.9687 90.7745 87.7818C90.9116 87.5949 90.9901 87.3714 90.9999 87.1398ZM90.8299 92.4898C90.9815 92.3484 91.101 92.1762 91.1803 91.9847C91.2597 91.7932 91.2971 91.5869 91.2899 91.3798C91.2832 91.0604 91.1659 90.7533 90.958 90.5107C90.7501 90.2682 90.4645 90.1053 90.1499 90.0498H87.5099V93.0498H88.3699C89.2299 93.1504 90.0983 92.9527 90.8299 92.4898Z" fill="#442A14"/>
</g>
<defs>
<filter id="filter0_di_254_4" x="8.09937" y="15.0992" width="152.801" height="152.802" filterUnits="userSpaceOnUse" color-interpolation-filters="sRGB">
<feFlood flood-opacity="0" result="BackgroundImageFix"/>
<feColorMatrix in="SourceAlpha" type="matrix" values="0 0 0 0 0 0 0 0 0 0 0 0 0 0 0 0 0 0 127 0" result="hardAlpha"/>
<feOffset dx="-3" dy="4"/>
<feGaussianBlur stdDeviation="5"/>
<feComposite in2="hardAlpha" operator="out"/>
<feColorMatrix type="matrix" values="0 0 0 0 0.266667 0 0 0 0 0.164706 0 0 0 0 0.0784314 0 0 0 0.25 0"/>
<feBlend mode="normal" in2="BackgroundImageFix" result="effect1_dropShadow_254_4"/>
<feBlend mode="normal" in="SourceGraphic" in2="effect1_dropShadow_254_4" result="shape"/>
<feColorMatrix in="SourceAlpha" type="matrix" values="0 0 0 0 0 0 0 0 0 0 0 0 0 0 0 0 0 0 127 0" result="hardAlpha"/>
<feOffset dx="-1" dy="3"/>
<feGaussianBlur stdDeviation="2.5"/>
<feComposite in2="hardAlpha" operator="arithmetic" k2="-1" k3="1"/>
<feColorMatrix type="matrix" values="0 0 0 0 0.266667 0 0 0 0 0.164706 0 0 0 0 0.0784314 0 0 0 0.2 0"/>
<feBlend mode="normal" in2="shape" result="effect2_innerShadow_254_4"/>
</filter>
<clipPath id="clip0_254_4">
<rect width="64" height="64" fill="white" transform="translate(57 56.9998)"/>
</clipPath>
</defs>
</svg>
