<svg width="45" height="45" viewBox="0 0 45 45" fill="none" xmlns="http://www.w3.org/2000/svg">
<circle cx="22.5" cy="22.5" r="22.5" fill="#03A9F4"/>
<path d="M33 16.8C32.2483 17.1261 31.4534 17.3416 30.64 17.44C31.4982 16.9273 32.1413 16.1207 32.45 15.17C31.6436 15.65 30.7608 15.9883 29.84 16.17C29.2245 15.5025 28.405 15.0583 27.5098 14.9068C26.6147 14.7554 25.6945 14.9053 24.8938 15.3332C24.093 15.761 23.4569 16.4425 23.0852 17.2708C22.7135 18.0991 22.6273 19.0274 22.84 19.91C21.2094 19.8275 19.6144 19.4029 18.1587 18.6638C16.7029 17.9247 15.4188 16.8877 14.39 15.62C14.0291 16.2501 13.8395 16.9638 13.84 17.69C13.8387 18.3643 14.0042 19.0286 14.3218 19.6235C14.6393 20.2185 15.099 20.7257 15.66 21.1C15.008 21.0822 14.3699 20.9073 13.8 20.59V20.64C13.8049 21.5849 14.136 22.4991 14.7373 23.2279C15.3386 23.9568 16.1733 24.4556 17.1 24.64C16.7433 24.7485 16.3729 24.8058 16 24.81C15.7419 24.807 15.4844 24.7835 15.23 24.74C15.4939 25.5528 16.0046 26.2631 16.6911 26.7721C17.3775 27.2811 18.2056 27.5635 19.06 27.58C17.6172 28.7152 15.8359 29.3348 14 29.34C13.6657 29.3411 13.3317 29.321 13 29.28C14.8744 30.4902 17.0588 31.1327 19.29 31.13C20.8297 31.146 22.3571 30.855 23.7831 30.274C25.2091 29.6931 26.505 28.8338 27.5952 27.7465C28.6854 26.6591 29.548 25.3654 30.1326 23.9409C30.7172 22.5164 31.012 20.9897 31 19.45C31 19.28 31 19.1 31 18.92C31.7847 18.3348 32.4615 17.6174 33 16.8V16.8Z" fill="white"/>
</svg>
