<svg width="45" height="45" viewBox="0 0 45 45" fill="none" xmlns="http://www.w3.org/2000/svg">
<circle cx="22.5" cy="22.5" r="22.5" fill="#EE6276"/>
<path d="M25.9615 13.0444H16.2426C15.5769 13.0444 15 13.6213 15 14.287V31.7278C15 32.3935 15.5769 32.9704 16.2426 32.9704H29.5562C29.8225 32.9704 30 32.7485 30 32.5266V17.571H26.4941C26.3609 17.571 26.2722 17.5266 26.1834 17.4379C26.0947 17.3491 26.0503 17.216 26.0503 17.1272V13C26.0503 13.0444 26.0059 13.0444 25.9615 13.0444ZM22.5444 26.6686H18.1509C17.929 26.6686 17.7071 26.4467 17.7071 26.2248C17.7071 26.003 17.929 25.7811 18.1509 25.7811H22.5444C22.7663 25.7811 22.9882 26.003 22.9882 26.2248C22.9882 26.4467 22.8107 26.6686 22.5444 26.6686ZM23.4763 24.4941H18.1509C17.929 24.4941 17.7071 24.2722 17.7071 24.0503C17.7071 23.8284 17.929 23.6065 18.1509 23.6065H23.4763C23.7426 23.6065 23.9201 23.8284 23.9201 24.0503C23.9201 24.2722 23.7426 24.4941 23.4763 24.4941ZM25.429 22.3639H18.1509C17.929 22.3639 17.7071 22.142 17.7071 21.9201C17.7071 21.6982 17.929 21.4763 18.1509 21.4763H25.429C25.6509 21.4763 25.8728 21.6982 25.8728 21.9201C25.8728 22.142 25.6509 22.3639 25.429 22.3639ZM26.8491 19.3018C27.1154 19.3018 27.2929 19.5237 27.2929 19.7456C27.2929 20.0118 27.1154 20.1893 26.8491 20.1893H18.1509C17.929 20.1893 17.7071 20.0118 17.7071 19.7456C17.7071 19.5237 17.929 19.3018 18.1509 19.3018H26.8491Z" fill="white"/>
<path d="M26.9822 13.5325V16.7277H29.9556C29.9112 16.5502 29.7781 16.3727 29.645 16.2396L26.9822 13.5325Z" fill="white"/>
</svg>
