<svg width="175" height="175" viewBox="0 0 175 175" fill="none" xmlns="http://www.w3.org/2000/svg">
<rect x="2.12132" y="87.5" width="120.744" height="120.744" transform="rotate(-45 2.12132 87.5)" stroke="#442A14" stroke-width="3"/>
<g filter="url(#filter0_di_255_6)">
<rect x="21.0994" y="87.5" width="93.9048" height="93.9048" transform="rotate(-45 21.0994 87.5)" fill="#EBCC6E"/>
</g>
<path d="M112.334 103.09C114.738 98.783 116 93.9325 116 89C116 84.0675 114.738 79.217 112.334 74.91C112.322 74.7699 112.279 74.6343 112.209 74.5124C112.139 74.3905 112.043 74.2853 111.928 74.204C108.686 68.7388 103.738 64.4897 97.8463 62.1101C91.9541 59.7305 85.4435 59.3521 79.3153 61.033C73.1871 62.714 67.7807 66.3612 63.9272 71.414C60.0738 76.4668 57.9866 82.6455 57.9866 89C57.9866 95.3545 60.0738 101.533 63.9272 106.586C67.7807 111.639 73.1871 115.286 79.3153 116.967C85.4435 118.648 91.9541 118.27 97.8463 115.89C103.738 113.51 108.686 109.261 111.928 103.796C112.043 103.715 112.139 103.61 112.209 103.488C112.279 103.366 112.322 103.23 112.334 103.09ZM70.3801 104H74.9591C75.9178 107.774 77.6705 111.299 80.1001 114.342C75.8269 112.037 72.4163 108.408 70.3801 104ZM60.0251 90H65.0191C65.1103 94.1026 65.8961 98.16 67.3431 102H63.3431C61.3106 98.3158 60.174 94.205 60.0251 90ZM63.3451 76H67.3451C65.8981 79.84 65.1123 83.8974 65.0211 88H60.0251C60.1746 83.7949 61.3119 79.684 63.3451 76ZM103.62 74H99.0411C98.0823 70.2263 96.3297 66.7005 93.9001 63.658C98.1733 65.9634 101.584 69.5922 103.62 74ZM113.975 88H108.981C108.89 83.8974 108.104 79.84 106.657 76H110.657C112.69 79.6842 113.826 83.795 113.975 88ZM106.981 88H100.988C100.945 83.9604 100.466 79.9371 99.5611 76H104.522C106.056 79.8198 106.889 83.8848 106.981 88ZM86.0001 76V88H75.0121C75.0656 83.9552 75.5776 79.9295 76.5381 76H86.0001ZM77.0901 74C79.0901 67.414 82.3421 62.823 86.0001 62.106V74H77.0901ZM86.0001 90V102H76.5381C75.5776 98.0705 75.0656 94.0448 75.0121 90H86.0001ZM86.0001 104V115.894C82.3421 115.177 79.0911 110.586 77.0901 104H86.0001ZM88.0001 102V90H98.9881C98.9345 94.0448 98.4226 98.0705 97.4621 102H88.0001ZM96.9101 104C94.9101 110.586 91.6571 115.177 88.0001 115.894V104H96.9101ZM88.0001 88V76H97.4621C98.4226 79.9295 98.9345 83.9552 98.9881 88H88.0001ZM88.0001 74V62.106C91.6571 62.823 94.9081 67.414 96.9101 74H88.0001ZM80.1001 63.658C77.6705 66.7005 75.9178 70.2263 74.9591 74H70.3801C72.4163 69.5922 75.8269 65.9634 80.1001 63.658ZM74.4381 76C73.5331 79.9372 73.055 83.9604 73.0121 88H67.0191C67.1108 83.8848 67.9434 79.8198 69.4771 76H74.4381ZM67.0191 90H73.0121C73.055 94.0396 73.5331 98.0628 74.4381 102H69.4771C67.9434 98.1802 67.1108 94.1152 67.0191 90ZM93.9001 114.342C96.3297 111.299 98.0823 107.774 99.0411 104H103.62C101.584 108.408 98.1733 112.037 93.9001 114.342ZM99.5611 102C100.466 98.0629 100.945 94.0397 100.988 90H106.981C106.889 94.1153 106.056 98.1802 104.522 102H99.5611ZM108.981 90H113.975C113.826 94.2051 112.688 98.316 110.655 102H106.655C108.103 98.1601 108.889 94.1027 108.981 90ZM109.437 74H105.822C104.293 70.5842 102.081 67.5173 99.3221 64.988C103.4 67.0904 106.88 70.1906 109.437 74ZM74.6771 64.988C71.9191 67.5176 69.7075 70.5844 68.1781 74H64.5631C67.1199 70.1907 70.5993 67.0904 74.6771 64.988ZM64.5631 104H68.1781C69.7078 107.416 71.9197 110.482 74.6781 113.012C70.5999 110.91 67.1202 107.809 64.5631 104ZM99.3221 113.012C102.081 110.483 104.293 107.416 105.822 104H109.437C106.88 107.809 103.4 110.91 99.3221 113.012Z" fill="#442A14"/>
<defs>
<filter id="filter0_di_255_6" x="8.09937" y="15.0992" width="152.802" height="152.802" filterUnits="userSpaceOnUse" color-interpolation-filters="sRGB">
<feFlood flood-opacity="0" result="BackgroundImageFix"/>
<feColorMatrix in="SourceAlpha" type="matrix" values="0 0 0 0 0 0 0 0 0 0 0 0 0 0 0 0 0 0 127 0" result="hardAlpha"/>
<feOffset dx="-3" dy="4"/>
<feGaussianBlur stdDeviation="5"/>
<feComposite in2="hardAlpha" operator="out"/>
<feColorMatrix type="matrix" values="0 0 0 0 0.266667 0 0 0 0 0.164706 0 0 0 0 0.0784314 0 0 0 0.25 0"/>
<feBlend mode="normal" in2="BackgroundImageFix" result="effect1_dropShadow_255_6"/>
<feBlend mode="normal" in="SourceGraphic" in2="effect1_dropShadow_255_6" result="shape"/>
<feColorMatrix in="SourceAlpha" type="matrix" values="0 0 0 0 0 0 0 0 0 0 0 0 0 0 0 0 0 0 127 0" result="hardAlpha"/>
<feOffset dx="-1" dy="3"/>
<feGaussianBlur stdDeviation="2.5"/>
<feComposite in2="hardAlpha" operator="arithmetic" k2="-1" k3="1"/>
<feColorMatrix type="matrix" values="0 0 0 0 0.266667 0 0 0 0 0.164706 0 0 0 0 0.0784314 0 0 0 0.2 0"/>
<feBlend mode="normal" in2="shape" result="effect2_innerShadow_255_6"/>
</filter>
</defs>
</svg>
